M48
; DRILL file {KiCad 9.0.5} date 2025-12-28T17:54:48+0200
; FORMAT={-:-/ absolute / metric / decimal}
; #@! TF.CreationDate,2025-12-28T17:54:48+02:00
; #@! TF.GenerationSoftware,Kicad,Pcbnew,9.0.5
; #@! TF.FileFunction,Plated,1,2,PTH
FMAT,2
METRIC
; #@! TA.AperFunction,Plated,PTH,ViaDrill
T1C0.300
; #@! TA.AperFunction,Plated,PTH,ComponentDrill
T2C0.800
; #@! TA.AperFunction,Plated,PTH,ComponentDrill
T3C1.000
; #@! TA.AperFunction,Plated,PTH,ComponentDrill
T4C1.200
%
G90
G05
T1
X56.403Y-77.709
X60.452Y-100.076
T2
X59.81Y-89.255
X59.81Y-96.875
X63.053Y-89.255
X63.053Y-96.875
X66.296Y-89.255
X66.296Y-96.875
X69.539Y-89.255
X69.539Y-96.875
X72.782Y-89.255
X72.782Y-96.875
X76.025Y-89.255
X76.025Y-96.875
X96.16Y-107.27
X101.16Y-107.27
T3
X54.0Y-59.46
X54.0Y-62.0
X54.0Y-64.54
X54.0Y-67.08
X54.0Y-69.62
X54.0Y-72.16
X54.0Y-74.7
X54.0Y-77.24
X54.0Y-79.78
X54.0Y-82.32
X54.0Y-84.86
X54.0Y-87.4
X54.0Y-89.94
X54.0Y-92.48
X54.0Y-95.02
X79.4Y-59.46
X79.4Y-62.0
X79.4Y-64.54
X79.4Y-67.08
X79.4Y-69.62
X79.4Y-72.16
X79.4Y-74.7
X79.4Y-77.24
X79.4Y-79.78
X79.4Y-82.32
X79.4Y-84.86
X79.4Y-87.4
X79.4Y-89.94
X79.4Y-92.48
X79.4Y-95.02
X89.229Y-95.395
X89.57Y-55.335
X91.769Y-95.395
X92.11Y-55.335
X94.309Y-95.395
X94.65Y-55.335
X96.849Y-95.395
X97.19Y-55.335
X99.389Y-95.395
X99.73Y-55.335
X101.929Y-95.395
X102.27Y-55.335
X104.469Y-95.395
X104.81Y-55.335
X107.009Y-95.395
T4
X62.0Y-108.0
X65.5Y-108.0
X69.0Y-108.0
X72.5Y-108.0
X76.0Y-108.0
X79.5Y-108.0
X83.0Y-108.0
X86.5Y-108.0
M30
