%TF.GenerationSoftware,KiCad,Pcbnew,9.0.5*%
%TF.CreationDate,2025-12-28T14:17:38+02:00*%
%TF.ProjectId,base-schematic-02,62617365-2d73-4636-9865-6d617469632d,rev?*%
%TF.SameCoordinates,Original*%
%TF.FileFunction,Legend,Bot*%
%TF.FilePolarity,Positive*%
%FSLAX46Y46*%
G04 Gerber Fmt 4.6, Leading zero omitted, Abs format (unit mm)*
G04 Created by KiCad (PCBNEW 9.0.5) date 2025-12-28 14:17:38*
%MOMM*%
%LPD*%
G01*
G04 APERTURE LIST*
G04 Aperture macros list*
%AMRoundRect*
0 Rectangle with rounded corners*
0 $1 Rounding radius*
0 $2 $3 $4 $5 $6 $7 $8 $9 X,Y pos of 4 corners*
0 Add a 4 corners polygon primitive as box body*
4,1,4,$2,$3,$4,$5,$6,$7,$8,$9,$2,$3,0*
0 Add four circle primitives for the rounded corners*
1,1,$1+$1,$2,$3*
1,1,$1+$1,$4,$5*
1,1,$1+$1,$6,$7*
1,1,$1+$1,$8,$9*
0 Add four rect primitives between the rounded corners*
20,1,$1+$1,$2,$3,$4,$5,0*
20,1,$1+$1,$4,$5,$6,$7,0*
20,1,$1+$1,$6,$7,$8,$9,0*
20,1,$1+$1,$8,$9,$2,$3,0*%
G04 Aperture macros list end*
%ADD10C,0.100000*%
%ADD11C,0.200000*%
%ADD12C,1.600000*%
%ADD13C,2.400000*%
%ADD14RoundRect,0.250001X-0.949999X-0.949999X0.949999X-0.949999X0.949999X0.949999X-0.949999X0.949999X0*%
%ADD15R,1.700000X1.700000*%
%ADD16C,1.700000*%
%ADD17C,3.200000*%
%ADD18RoundRect,0.250000X-0.950000X-0.550000X0.950000X-0.550000X0.950000X0.550000X-0.950000X0.550000X0*%
%ADD19O,2.400000X1.600000*%
G04 APERTURE END LIST*
D10*
X76776115Y-64421466D02*
X76014211Y-64421466D01*
X76666115Y-61661466D02*
X75904211Y-61661466D01*
X76285163Y-62042419D02*
X76285163Y-61280514D01*
X96696115Y-105641466D02*
X95934211Y-105641466D01*
X96315163Y-106022419D02*
X96315163Y-105260514D01*
X101636115Y-105591466D02*
X100874211Y-105591466D01*
D11*
X101446667Y-74730305D02*
X100780000Y-74730305D01*
X101580000Y-75130305D02*
X101113334Y-73730305D01*
X101113334Y-73730305D02*
X100646667Y-75130305D01*
X100180000Y-75130305D02*
X100180000Y-73730305D01*
X100180000Y-73730305D02*
X99846667Y-73730305D01*
X99846667Y-73730305D02*
X99646667Y-73796972D01*
X99646667Y-73796972D02*
X99513334Y-73930305D01*
X99513334Y-73930305D02*
X99446667Y-74063639D01*
X99446667Y-74063639D02*
X99380000Y-74330305D01*
X99380000Y-74330305D02*
X99380000Y-74530305D01*
X99380000Y-74530305D02*
X99446667Y-74796972D01*
X99446667Y-74796972D02*
X99513334Y-74930305D01*
X99513334Y-74930305D02*
X99646667Y-75063639D01*
X99646667Y-75063639D02*
X99846667Y-75130305D01*
X99846667Y-75130305D02*
X100180000Y-75130305D01*
X98780000Y-75130305D02*
X98780000Y-73730305D01*
X98780000Y-74396972D02*
X97980000Y-74396972D01*
X97980000Y-75130305D02*
X97980000Y-73730305D01*
X97313333Y-75130305D02*
X97313333Y-73730305D01*
X97313333Y-73730305D02*
X96980000Y-73730305D01*
X96980000Y-73730305D02*
X96780000Y-73796972D01*
X96780000Y-73796972D02*
X96646667Y-73930305D01*
X96646667Y-73930305D02*
X96580000Y-74063639D01*
X96580000Y-74063639D02*
X96513333Y-74330305D01*
X96513333Y-74330305D02*
X96513333Y-74530305D01*
X96513333Y-74530305D02*
X96580000Y-74796972D01*
X96580000Y-74796972D02*
X96646667Y-74930305D01*
X96646667Y-74930305D02*
X96780000Y-75063639D01*
X96780000Y-75063639D02*
X96980000Y-75130305D01*
X96980000Y-75130305D02*
X97313333Y-75130305D01*
X94046666Y-74996972D02*
X94113333Y-75063639D01*
X94113333Y-75063639D02*
X94313333Y-75130305D01*
X94313333Y-75130305D02*
X94446666Y-75130305D01*
X94446666Y-75130305D02*
X94646666Y-75063639D01*
X94646666Y-75063639D02*
X94780000Y-74930305D01*
X94780000Y-74930305D02*
X94846666Y-74796972D01*
X94846666Y-74796972D02*
X94913333Y-74530305D01*
X94913333Y-74530305D02*
X94913333Y-74330305D01*
X94913333Y-74330305D02*
X94846666Y-74063639D01*
X94846666Y-74063639D02*
X94780000Y-73930305D01*
X94780000Y-73930305D02*
X94646666Y-73796972D01*
X94646666Y-73796972D02*
X94446666Y-73730305D01*
X94446666Y-73730305D02*
X94313333Y-73730305D01*
X94313333Y-73730305D02*
X94113333Y-73796972D01*
X94113333Y-73796972D02*
X94046666Y-73863639D01*
X92846666Y-74196972D02*
X92846666Y-75130305D01*
X93446666Y-74196972D02*
X93446666Y-74930305D01*
X93446666Y-74930305D02*
X93380000Y-75063639D01*
X93380000Y-75063639D02*
X93246666Y-75130305D01*
X93246666Y-75130305D02*
X93046666Y-75130305D01*
X93046666Y-75130305D02*
X92913333Y-75063639D01*
X92913333Y-75063639D02*
X92846666Y-74996972D01*
X92179999Y-75130305D02*
X92179999Y-73730305D01*
X92179999Y-74263639D02*
X92046666Y-74196972D01*
X92046666Y-74196972D02*
X91779999Y-74196972D01*
X91779999Y-74196972D02*
X91646666Y-74263639D01*
X91646666Y-74263639D02*
X91579999Y-74330305D01*
X91579999Y-74330305D02*
X91513333Y-74463639D01*
X91513333Y-74463639D02*
X91513333Y-74863639D01*
X91513333Y-74863639D02*
X91579999Y-74996972D01*
X91579999Y-74996972D02*
X91646666Y-75063639D01*
X91646666Y-75063639D02*
X91779999Y-75130305D01*
X91779999Y-75130305D02*
X92046666Y-75130305D01*
X92046666Y-75130305D02*
X92179999Y-75063639D01*
X90379999Y-75063639D02*
X90513332Y-75130305D01*
X90513332Y-75130305D02*
X90779999Y-75130305D01*
X90779999Y-75130305D02*
X90913332Y-75063639D01*
X90913332Y-75063639D02*
X90979999Y-74930305D01*
X90979999Y-74930305D02*
X90979999Y-74396972D01*
X90979999Y-74396972D02*
X90913332Y-74263639D01*
X90913332Y-74263639D02*
X90779999Y-74196972D01*
X90779999Y-74196972D02*
X90513332Y-74196972D01*
X90513332Y-74196972D02*
X90379999Y-74263639D01*
X90379999Y-74263639D02*
X90313332Y-74396972D01*
X90313332Y-74396972D02*
X90313332Y-74530305D01*
X90313332Y-74530305D02*
X90979999Y-74663639D01*
X88246665Y-75663639D02*
X88313332Y-75596972D01*
X88313332Y-75596972D02*
X88446665Y-75396972D01*
X88446665Y-75396972D02*
X88513332Y-75263639D01*
X88513332Y-75263639D02*
X88579999Y-75063639D01*
X88579999Y-75063639D02*
X88646665Y-74730305D01*
X88646665Y-74730305D02*
X88646665Y-74463639D01*
X88646665Y-74463639D02*
X88579999Y-74130305D01*
X88579999Y-74130305D02*
X88513332Y-73930305D01*
X88513332Y-73930305D02*
X88446665Y-73796972D01*
X88446665Y-73796972D02*
X88313332Y-73596972D01*
X88313332Y-73596972D02*
X88246665Y-73530305D01*
X87846666Y-74196972D02*
X87513332Y-75130305D01*
X87513332Y-75130305D02*
X87179999Y-74196972D01*
X86646665Y-74996972D02*
X86579999Y-75063639D01*
X86579999Y-75063639D02*
X86646665Y-75130305D01*
X86646665Y-75130305D02*
X86713332Y-75063639D01*
X86713332Y-75063639D02*
X86646665Y-74996972D01*
X86646665Y-74996972D02*
X86646665Y-75130305D01*
X86113332Y-73730305D02*
X85246665Y-73730305D01*
X85246665Y-73730305D02*
X85713332Y-74263639D01*
X85713332Y-74263639D02*
X85513332Y-74263639D01*
X85513332Y-74263639D02*
X85379998Y-74330305D01*
X85379998Y-74330305D02*
X85313332Y-74396972D01*
X85313332Y-74396972D02*
X85246665Y-74530305D01*
X85246665Y-74530305D02*
X85246665Y-74863639D01*
X85246665Y-74863639D02*
X85313332Y-74996972D01*
X85313332Y-74996972D02*
X85379998Y-75063639D01*
X85379998Y-75063639D02*
X85513332Y-75130305D01*
X85513332Y-75130305D02*
X85913332Y-75130305D01*
X85913332Y-75130305D02*
X86046665Y-75063639D01*
X86046665Y-75063639D02*
X86113332Y-74996972D01*
X84779999Y-75663639D02*
X84713332Y-75596972D01*
X84713332Y-75596972D02*
X84579999Y-75396972D01*
X84579999Y-75396972D02*
X84513332Y-75263639D01*
X84513332Y-75263639D02*
X84446665Y-75063639D01*
X84446665Y-75063639D02*
X84379999Y-74730305D01*
X84379999Y-74730305D02*
X84379999Y-74463639D01*
X84379999Y-74463639D02*
X84446665Y-74130305D01*
X84446665Y-74130305D02*
X84513332Y-73930305D01*
X84513332Y-73930305D02*
X84579999Y-73796972D01*
X84579999Y-73796972D02*
X84713332Y-73596972D01*
X84713332Y-73596972D02*
X84779999Y-73530305D01*
X100080001Y-76650894D02*
X99880001Y-76717561D01*
X99880001Y-76717561D02*
X99813334Y-76784227D01*
X99813334Y-76784227D02*
X99746667Y-76917561D01*
X99746667Y-76917561D02*
X99746667Y-77117561D01*
X99746667Y-77117561D02*
X99813334Y-77250894D01*
X99813334Y-77250894D02*
X99880001Y-77317561D01*
X99880001Y-77317561D02*
X100013334Y-77384227D01*
X100013334Y-77384227D02*
X100546667Y-77384227D01*
X100546667Y-77384227D02*
X100546667Y-75984227D01*
X100546667Y-75984227D02*
X100080001Y-75984227D01*
X100080001Y-75984227D02*
X99946667Y-76050894D01*
X99946667Y-76050894D02*
X99880001Y-76117561D01*
X99880001Y-76117561D02*
X99813334Y-76250894D01*
X99813334Y-76250894D02*
X99813334Y-76384227D01*
X99813334Y-76384227D02*
X99880001Y-76517561D01*
X99880001Y-76517561D02*
X99946667Y-76584227D01*
X99946667Y-76584227D02*
X100080001Y-76650894D01*
X100080001Y-76650894D02*
X100546667Y-76650894D01*
X99280001Y-76450894D02*
X98946667Y-77384227D01*
X98613334Y-76450894D02*
X98946667Y-77384227D01*
X98946667Y-77384227D02*
X99080001Y-77717561D01*
X99080001Y-77717561D02*
X99146667Y-77784227D01*
X99146667Y-77784227D02*
X99280001Y-77850894D01*
X97013333Y-76650894D02*
X96546667Y-76650894D01*
X96346667Y-77384227D02*
X97013333Y-77384227D01*
X97013333Y-77384227D02*
X97013333Y-75984227D01*
X97013333Y-75984227D02*
X96346667Y-75984227D01*
X95746666Y-77250894D02*
X95680000Y-77317561D01*
X95680000Y-77317561D02*
X95746666Y-77384227D01*
X95746666Y-77384227D02*
X95813333Y-77317561D01*
X95813333Y-77317561D02*
X95746666Y-77250894D01*
X95746666Y-77250894D02*
X95746666Y-77384227D01*
X93279999Y-76050894D02*
X93413332Y-75984227D01*
X93413332Y-75984227D02*
X93613332Y-75984227D01*
X93613332Y-75984227D02*
X93813332Y-76050894D01*
X93813332Y-76050894D02*
X93946666Y-76184227D01*
X93946666Y-76184227D02*
X94013332Y-76317561D01*
X94013332Y-76317561D02*
X94079999Y-76584227D01*
X94079999Y-76584227D02*
X94079999Y-76784227D01*
X94079999Y-76784227D02*
X94013332Y-77050894D01*
X94013332Y-77050894D02*
X93946666Y-77184227D01*
X93946666Y-77184227D02*
X93813332Y-77317561D01*
X93813332Y-77317561D02*
X93613332Y-77384227D01*
X93613332Y-77384227D02*
X93479999Y-77384227D01*
X93479999Y-77384227D02*
X93279999Y-77317561D01*
X93279999Y-77317561D02*
X93213332Y-77250894D01*
X93213332Y-77250894D02*
X93213332Y-76784227D01*
X93213332Y-76784227D02*
X93479999Y-76784227D01*
X92413332Y-77384227D02*
X92546666Y-77317561D01*
X92546666Y-77317561D02*
X92613332Y-77250894D01*
X92613332Y-77250894D02*
X92679999Y-77117561D01*
X92679999Y-77117561D02*
X92679999Y-76717561D01*
X92679999Y-76717561D02*
X92613332Y-76584227D01*
X92613332Y-76584227D02*
X92546666Y-76517561D01*
X92546666Y-76517561D02*
X92413332Y-76450894D01*
X92413332Y-76450894D02*
X92213332Y-76450894D01*
X92213332Y-76450894D02*
X92079999Y-76517561D01*
X92079999Y-76517561D02*
X92013332Y-76584227D01*
X92013332Y-76584227D02*
X91946666Y-76717561D01*
X91946666Y-76717561D02*
X91946666Y-77117561D01*
X91946666Y-77117561D02*
X92013332Y-77250894D01*
X92013332Y-77250894D02*
X92079999Y-77317561D01*
X92079999Y-77317561D02*
X92213332Y-77384227D01*
X92213332Y-77384227D02*
X92413332Y-77384227D01*
X91146665Y-77384227D02*
X91279999Y-77317561D01*
X91279999Y-77317561D02*
X91346665Y-77184227D01*
X91346665Y-77184227D02*
X91346665Y-75984227D01*
X90013332Y-76450894D02*
X90013332Y-77384227D01*
X90613332Y-76450894D02*
X90613332Y-77184227D01*
X90613332Y-77184227D02*
X90546666Y-77317561D01*
X90546666Y-77317561D02*
X90413332Y-77384227D01*
X90413332Y-77384227D02*
X90213332Y-77384227D01*
X90213332Y-77384227D02*
X90079999Y-77317561D01*
X90079999Y-77317561D02*
X90013332Y-77250894D01*
X89346665Y-77384227D02*
X89346665Y-75984227D01*
X89346665Y-76517561D02*
X89213332Y-76450894D01*
X89213332Y-76450894D02*
X88946665Y-76450894D01*
X88946665Y-76450894D02*
X88813332Y-76517561D01*
X88813332Y-76517561D02*
X88746665Y-76584227D01*
X88746665Y-76584227D02*
X88679999Y-76717561D01*
X88679999Y-76717561D02*
X88679999Y-77117561D01*
X88679999Y-77117561D02*
X88746665Y-77250894D01*
X88746665Y-77250894D02*
X88813332Y-77317561D01*
X88813332Y-77317561D02*
X88946665Y-77384227D01*
X88946665Y-77384227D02*
X89213332Y-77384227D01*
X89213332Y-77384227D02*
X89346665Y-77317561D01*
X87546665Y-77317561D02*
X87679998Y-77384227D01*
X87679998Y-77384227D02*
X87946665Y-77384227D01*
X87946665Y-77384227D02*
X88079998Y-77317561D01*
X88079998Y-77317561D02*
X88146665Y-77184227D01*
X88146665Y-77184227D02*
X88146665Y-76650894D01*
X88146665Y-76650894D02*
X88079998Y-76517561D01*
X88079998Y-76517561D02*
X87946665Y-76450894D01*
X87946665Y-76450894D02*
X87679998Y-76450894D01*
X87679998Y-76450894D02*
X87546665Y-76517561D01*
X87546665Y-76517561D02*
X87479998Y-76650894D01*
X87479998Y-76650894D02*
X87479998Y-76784227D01*
X87479998Y-76784227D02*
X88146665Y-76917561D01*
X87013332Y-76450894D02*
X86679998Y-77384227D01*
X86679998Y-77384227D02*
X86346665Y-76450894D01*
X85213331Y-77384227D02*
X85213331Y-76650894D01*
X85213331Y-76650894D02*
X85279998Y-76517561D01*
X85279998Y-76517561D02*
X85413331Y-76450894D01*
X85413331Y-76450894D02*
X85679998Y-76450894D01*
X85679998Y-76450894D02*
X85813331Y-76517561D01*
X85213331Y-77317561D02*
X85346665Y-77384227D01*
X85346665Y-77384227D02*
X85679998Y-77384227D01*
X85679998Y-77384227D02*
X85813331Y-77317561D01*
X85813331Y-77317561D02*
X85879998Y-77184227D01*
X85879998Y-77184227D02*
X85879998Y-77050894D01*
X85879998Y-77050894D02*
X85813331Y-76917561D01*
X85813331Y-76917561D02*
X85679998Y-76850894D01*
X85679998Y-76850894D02*
X85346665Y-76850894D01*
X85346665Y-76850894D02*
X85213331Y-76784227D01*
D10*
X62896115Y-110692419D02*
X62896115Y-109692419D01*
X62896115Y-109692419D02*
X62658020Y-109692419D01*
X62658020Y-109692419D02*
X62515163Y-109740038D01*
X62515163Y-109740038D02*
X62419925Y-109835276D01*
X62419925Y-109835276D02*
X62372306Y-109930514D01*
X62372306Y-109930514D02*
X62324687Y-110120990D01*
X62324687Y-110120990D02*
X62324687Y-110263847D01*
X62324687Y-110263847D02*
X62372306Y-110454323D01*
X62372306Y-110454323D02*
X62419925Y-110549561D01*
X62419925Y-110549561D02*
X62515163Y-110644800D01*
X62515163Y-110644800D02*
X62658020Y-110692419D01*
X62658020Y-110692419D02*
X62896115Y-110692419D01*
X61991353Y-109692419D02*
X61372306Y-109692419D01*
X61372306Y-109692419D02*
X61705639Y-110073371D01*
X61705639Y-110073371D02*
X61562782Y-110073371D01*
X61562782Y-110073371D02*
X61467544Y-110120990D01*
X61467544Y-110120990D02*
X61419925Y-110168609D01*
X61419925Y-110168609D02*
X61372306Y-110263847D01*
X61372306Y-110263847D02*
X61372306Y-110501942D01*
X61372306Y-110501942D02*
X61419925Y-110597180D01*
X61419925Y-110597180D02*
X61467544Y-110644800D01*
X61467544Y-110644800D02*
X61562782Y-110692419D01*
X61562782Y-110692419D02*
X61848496Y-110692419D01*
X61848496Y-110692419D02*
X61943734Y-110644800D01*
X61943734Y-110644800D02*
X61991353Y-110597180D01*
X60991353Y-109787657D02*
X60943734Y-109740038D01*
X60943734Y-109740038D02*
X60848496Y-109692419D01*
X60848496Y-109692419D02*
X60610401Y-109692419D01*
X60610401Y-109692419D02*
X60515163Y-109740038D01*
X60515163Y-109740038D02*
X60467544Y-109787657D01*
X60467544Y-109787657D02*
X60419925Y-109882895D01*
X60419925Y-109882895D02*
X60419925Y-109978133D01*
X60419925Y-109978133D02*
X60467544Y-110120990D01*
X60467544Y-110120990D02*
X61038972Y-110692419D01*
X61038972Y-110692419D02*
X60419925Y-110692419D01*
X66451965Y-110692419D02*
X66451965Y-109692419D01*
X66451965Y-109692419D02*
X66213870Y-109692419D01*
X66213870Y-109692419D02*
X66071013Y-109740038D01*
X66071013Y-109740038D02*
X65975775Y-109835276D01*
X65975775Y-109835276D02*
X65928156Y-109930514D01*
X65928156Y-109930514D02*
X65880537Y-110120990D01*
X65880537Y-110120990D02*
X65880537Y-110263847D01*
X65880537Y-110263847D02*
X65928156Y-110454323D01*
X65928156Y-110454323D02*
X65975775Y-110549561D01*
X65975775Y-110549561D02*
X66071013Y-110644800D01*
X66071013Y-110644800D02*
X66213870Y-110692419D01*
X66213870Y-110692419D02*
X66451965Y-110692419D01*
X65547203Y-109692419D02*
X64928156Y-109692419D01*
X64928156Y-109692419D02*
X65261489Y-110073371D01*
X65261489Y-110073371D02*
X65118632Y-110073371D01*
X65118632Y-110073371D02*
X65023394Y-110120990D01*
X65023394Y-110120990D02*
X64975775Y-110168609D01*
X64975775Y-110168609D02*
X64928156Y-110263847D01*
X64928156Y-110263847D02*
X64928156Y-110501942D01*
X64928156Y-110501942D02*
X64975775Y-110597180D01*
X64975775Y-110597180D02*
X65023394Y-110644800D01*
X65023394Y-110644800D02*
X65118632Y-110692419D01*
X65118632Y-110692419D02*
X65404346Y-110692419D01*
X65404346Y-110692419D02*
X65499584Y-110644800D01*
X65499584Y-110644800D02*
X65547203Y-110597180D01*
X64594822Y-109692419D02*
X63975775Y-109692419D01*
X63975775Y-109692419D02*
X64309108Y-110073371D01*
X64309108Y-110073371D02*
X64166251Y-110073371D01*
X64166251Y-110073371D02*
X64071013Y-110120990D01*
X64071013Y-110120990D02*
X64023394Y-110168609D01*
X64023394Y-110168609D02*
X63975775Y-110263847D01*
X63975775Y-110263847D02*
X63975775Y-110501942D01*
X63975775Y-110501942D02*
X64023394Y-110597180D01*
X64023394Y-110597180D02*
X64071013Y-110644800D01*
X64071013Y-110644800D02*
X64166251Y-110692419D01*
X64166251Y-110692419D02*
X64451965Y-110692419D01*
X64451965Y-110692419D02*
X64547203Y-110644800D01*
X64547203Y-110644800D02*
X64594822Y-110597180D01*
X70007816Y-110692419D02*
X70007816Y-109692419D01*
X70007816Y-109692419D02*
X69769721Y-109692419D01*
X69769721Y-109692419D02*
X69626864Y-109740038D01*
X69626864Y-109740038D02*
X69531626Y-109835276D01*
X69531626Y-109835276D02*
X69484007Y-109930514D01*
X69484007Y-109930514D02*
X69436388Y-110120990D01*
X69436388Y-110120990D02*
X69436388Y-110263847D01*
X69436388Y-110263847D02*
X69484007Y-110454323D01*
X69484007Y-110454323D02*
X69531626Y-110549561D01*
X69531626Y-110549561D02*
X69626864Y-110644800D01*
X69626864Y-110644800D02*
X69769721Y-110692419D01*
X69769721Y-110692419D02*
X70007816Y-110692419D01*
X69055435Y-109787657D02*
X69007816Y-109740038D01*
X69007816Y-109740038D02*
X68912578Y-109692419D01*
X68912578Y-109692419D02*
X68674483Y-109692419D01*
X68674483Y-109692419D02*
X68579245Y-109740038D01*
X68579245Y-109740038D02*
X68531626Y-109787657D01*
X68531626Y-109787657D02*
X68484007Y-109882895D01*
X68484007Y-109882895D02*
X68484007Y-109978133D01*
X68484007Y-109978133D02*
X68531626Y-110120990D01*
X68531626Y-110120990D02*
X69103054Y-110692419D01*
X69103054Y-110692419D02*
X68484007Y-110692419D01*
X67626864Y-109692419D02*
X67817340Y-109692419D01*
X67817340Y-109692419D02*
X67912578Y-109740038D01*
X67912578Y-109740038D02*
X67960197Y-109787657D01*
X67960197Y-109787657D02*
X68055435Y-109930514D01*
X68055435Y-109930514D02*
X68103054Y-110120990D01*
X68103054Y-110120990D02*
X68103054Y-110501942D01*
X68103054Y-110501942D02*
X68055435Y-110597180D01*
X68055435Y-110597180D02*
X68007816Y-110644800D01*
X68007816Y-110644800D02*
X67912578Y-110692419D01*
X67912578Y-110692419D02*
X67722102Y-110692419D01*
X67722102Y-110692419D02*
X67626864Y-110644800D01*
X67626864Y-110644800D02*
X67579245Y-110597180D01*
X67579245Y-110597180D02*
X67531626Y-110501942D01*
X67531626Y-110501942D02*
X67531626Y-110263847D01*
X67531626Y-110263847D02*
X67579245Y-110168609D01*
X67579245Y-110168609D02*
X67626864Y-110120990D01*
X67626864Y-110120990D02*
X67722102Y-110073371D01*
X67722102Y-110073371D02*
X67912578Y-110073371D01*
X67912578Y-110073371D02*
X68007816Y-110120990D01*
X68007816Y-110120990D02*
X68055435Y-110168609D01*
X68055435Y-110168609D02*
X68103054Y-110263847D01*
X73563666Y-110692419D02*
X73563666Y-109692419D01*
X73563666Y-109692419D02*
X73325571Y-109692419D01*
X73325571Y-109692419D02*
X73182714Y-109740038D01*
X73182714Y-109740038D02*
X73087476Y-109835276D01*
X73087476Y-109835276D02*
X73039857Y-109930514D01*
X73039857Y-109930514D02*
X72992238Y-110120990D01*
X72992238Y-110120990D02*
X72992238Y-110263847D01*
X72992238Y-110263847D02*
X73039857Y-110454323D01*
X73039857Y-110454323D02*
X73087476Y-110549561D01*
X73087476Y-110549561D02*
X73182714Y-110644800D01*
X73182714Y-110644800D02*
X73325571Y-110692419D01*
X73325571Y-110692419D02*
X73563666Y-110692419D01*
X72611285Y-109787657D02*
X72563666Y-109740038D01*
X72563666Y-109740038D02*
X72468428Y-109692419D01*
X72468428Y-109692419D02*
X72230333Y-109692419D01*
X72230333Y-109692419D02*
X72135095Y-109740038D01*
X72135095Y-109740038D02*
X72087476Y-109787657D01*
X72087476Y-109787657D02*
X72039857Y-109882895D01*
X72039857Y-109882895D02*
X72039857Y-109978133D01*
X72039857Y-109978133D02*
X72087476Y-110120990D01*
X72087476Y-110120990D02*
X72658904Y-110692419D01*
X72658904Y-110692419D02*
X72039857Y-110692419D01*
X71706523Y-109692419D02*
X71039857Y-109692419D01*
X71039857Y-109692419D02*
X71468428Y-110692419D01*
X77119517Y-110692419D02*
X77119517Y-109692419D01*
X77119517Y-109692419D02*
X76881422Y-109692419D01*
X76881422Y-109692419D02*
X76738565Y-109740038D01*
X76738565Y-109740038D02*
X76643327Y-109835276D01*
X76643327Y-109835276D02*
X76595708Y-109930514D01*
X76595708Y-109930514D02*
X76548089Y-110120990D01*
X76548089Y-110120990D02*
X76548089Y-110263847D01*
X76548089Y-110263847D02*
X76595708Y-110454323D01*
X76595708Y-110454323D02*
X76643327Y-110549561D01*
X76643327Y-110549561D02*
X76738565Y-110644800D01*
X76738565Y-110644800D02*
X76881422Y-110692419D01*
X76881422Y-110692419D02*
X77119517Y-110692419D01*
X75595708Y-110692419D02*
X76167136Y-110692419D01*
X75881422Y-110692419D02*
X75881422Y-109692419D01*
X75881422Y-109692419D02*
X75976660Y-109835276D01*
X75976660Y-109835276D02*
X76071898Y-109930514D01*
X76071898Y-109930514D02*
X76167136Y-109978133D01*
X74738565Y-110025752D02*
X74738565Y-110692419D01*
X74976660Y-109644800D02*
X75214755Y-110359085D01*
X75214755Y-110359085D02*
X74595708Y-110359085D01*
X80675367Y-110692419D02*
X80675367Y-109692419D01*
X80675367Y-109692419D02*
X80437272Y-109692419D01*
X80437272Y-109692419D02*
X80294415Y-109740038D01*
X80294415Y-109740038D02*
X80199177Y-109835276D01*
X80199177Y-109835276D02*
X80151558Y-109930514D01*
X80151558Y-109930514D02*
X80103939Y-110120990D01*
X80103939Y-110120990D02*
X80103939Y-110263847D01*
X80103939Y-110263847D02*
X80151558Y-110454323D01*
X80151558Y-110454323D02*
X80199177Y-110549561D01*
X80199177Y-110549561D02*
X80294415Y-110644800D01*
X80294415Y-110644800D02*
X80437272Y-110692419D01*
X80437272Y-110692419D02*
X80675367Y-110692419D01*
X79151558Y-110692419D02*
X79722986Y-110692419D01*
X79437272Y-110692419D02*
X79437272Y-109692419D01*
X79437272Y-109692419D02*
X79532510Y-109835276D01*
X79532510Y-109835276D02*
X79627748Y-109930514D01*
X79627748Y-109930514D02*
X79722986Y-109978133D01*
X78770605Y-109787657D02*
X78722986Y-109740038D01*
X78722986Y-109740038D02*
X78627748Y-109692419D01*
X78627748Y-109692419D02*
X78389653Y-109692419D01*
X78389653Y-109692419D02*
X78294415Y-109740038D01*
X78294415Y-109740038D02*
X78246796Y-109787657D01*
X78246796Y-109787657D02*
X78199177Y-109882895D01*
X78199177Y-109882895D02*
X78199177Y-109978133D01*
X78199177Y-109978133D02*
X78246796Y-110120990D01*
X78246796Y-110120990D02*
X78818224Y-110692419D01*
X78818224Y-110692419D02*
X78199177Y-110692419D01*
X83850265Y-109692419D02*
X83516932Y-110692419D01*
X83516932Y-110692419D02*
X83183599Y-109692419D01*
X82850265Y-110692419D02*
X82850265Y-109692419D01*
X82374075Y-110692419D02*
X82374075Y-109692419D01*
X82374075Y-109692419D02*
X81802647Y-110692419D01*
X81802647Y-110692419D02*
X81802647Y-109692419D01*
X86882306Y-109740038D02*
X86977544Y-109692419D01*
X86977544Y-109692419D02*
X87120401Y-109692419D01*
X87120401Y-109692419D02*
X87263258Y-109740038D01*
X87263258Y-109740038D02*
X87358496Y-109835276D01*
X87358496Y-109835276D02*
X87406115Y-109930514D01*
X87406115Y-109930514D02*
X87453734Y-110120990D01*
X87453734Y-110120990D02*
X87453734Y-110263847D01*
X87453734Y-110263847D02*
X87406115Y-110454323D01*
X87406115Y-110454323D02*
X87358496Y-110549561D01*
X87358496Y-110549561D02*
X87263258Y-110644800D01*
X87263258Y-110644800D02*
X87120401Y-110692419D01*
X87120401Y-110692419D02*
X87025163Y-110692419D01*
X87025163Y-110692419D02*
X86882306Y-110644800D01*
X86882306Y-110644800D02*
X86834687Y-110597180D01*
X86834687Y-110597180D02*
X86834687Y-110263847D01*
X86834687Y-110263847D02*
X87025163Y-110263847D01*
X86406115Y-110692419D02*
X86406115Y-109692419D01*
X86406115Y-109692419D02*
X85834687Y-110692419D01*
X85834687Y-110692419D02*
X85834687Y-109692419D01*
X85358496Y-110692419D02*
X85358496Y-109692419D01*
X85358496Y-109692419D02*
X85120401Y-109692419D01*
X85120401Y-109692419D02*
X84977544Y-109740038D01*
X84977544Y-109740038D02*
X84882306Y-109835276D01*
X84882306Y-109835276D02*
X84834687Y-109930514D01*
X84834687Y-109930514D02*
X84787068Y-110120990D01*
X84787068Y-110120990D02*
X84787068Y-110263847D01*
X84787068Y-110263847D02*
X84834687Y-110454323D01*
X84834687Y-110454323D02*
X84882306Y-110549561D01*
X84882306Y-110549561D02*
X84977544Y-110644800D01*
X84977544Y-110644800D02*
X85120401Y-110692419D01*
X85120401Y-110692419D02*
X85358496Y-110692419D01*
%LPC*%
D12*
%TO.C,C2*%
X96160000Y-107270000D03*
X101160000Y-107270000D03*
%TD*%
D13*
%TO.C,J4*%
X86500000Y-108000000D03*
X83000000Y-108000000D03*
X79500000Y-108000000D03*
X76000000Y-108000000D03*
X72500000Y-108000000D03*
X69000000Y-108000000D03*
X65500000Y-108000000D03*
D14*
X62000000Y-108000000D03*
%TD*%
D12*
%TO.C,C1*%
X74440000Y-61710000D03*
X74440000Y-64210000D03*
%TD*%
D15*
%TO.C,J2*%
X79400000Y-59460000D03*
D16*
X79400000Y-62000000D03*
X79400000Y-64540000D03*
X79400000Y-67080000D03*
X79400000Y-69620000D03*
X79400000Y-72160000D03*
X79400000Y-74700000D03*
X79400000Y-77240000D03*
X79400000Y-79780000D03*
X79400000Y-82320000D03*
X79400000Y-84860000D03*
X79400000Y-87400000D03*
X79400000Y-89940000D03*
X79400000Y-92480000D03*
X79400000Y-95020000D03*
%TD*%
D15*
%TO.C,J1*%
X54000000Y-59460000D03*
D16*
X54000000Y-62000000D03*
X54000000Y-64540000D03*
X54000000Y-67080000D03*
X54000000Y-69620000D03*
X54000000Y-72160000D03*
X54000000Y-74700000D03*
X54000000Y-77240000D03*
X54000000Y-79780000D03*
X54000000Y-82320000D03*
X54000000Y-84860000D03*
X54000000Y-87400000D03*
X54000000Y-89940000D03*
X54000000Y-92480000D03*
X54000000Y-95020000D03*
%TD*%
D17*
%TO.C,H1*%
X53600000Y-53600000D03*
%TD*%
D12*
%TO.C,R2*%
X63053000Y-89255000D03*
X63053000Y-96875000D03*
%TD*%
%TO.C,R1*%
X59810000Y-89255000D03*
X59810000Y-96875000D03*
%TD*%
D15*
%TO.C,J3-DAC1*%
X90750000Y-55325000D03*
D16*
X93290000Y-55325000D03*
X95830000Y-55325000D03*
X98370000Y-55325000D03*
X100910000Y-55325000D03*
X103450000Y-55325000D03*
X105990000Y-55325000D03*
%TD*%
D17*
%TO.C,H4*%
X53600000Y-111400000D03*
%TD*%
D12*
%TO.C,R4*%
X69539000Y-89255000D03*
X69539000Y-96875000D03*
%TD*%
%TO.C,R6*%
X76025000Y-89255000D03*
X76025000Y-96875000D03*
%TD*%
%TO.C,R5*%
X72782000Y-89255000D03*
X72782000Y-96875000D03*
%TD*%
%TO.C,R3*%
X66296000Y-89255000D03*
X66296000Y-96875000D03*
%TD*%
D18*
%TO.C,U1*%
X61650000Y-61510000D03*
D19*
X61650000Y-64050000D03*
X61650000Y-66590000D03*
X61650000Y-69130000D03*
X61650000Y-71670000D03*
X61650000Y-74210000D03*
X61650000Y-76750000D03*
X61650000Y-79290000D03*
X61650000Y-81830000D03*
X61650000Y-84370000D03*
X69270000Y-84370000D03*
X69270000Y-81830000D03*
X69270000Y-79290000D03*
X69270000Y-76750000D03*
X69270000Y-74210000D03*
X69270000Y-71670000D03*
X69270000Y-69130000D03*
X69270000Y-66590000D03*
X69270000Y-64050000D03*
X69270000Y-61510000D03*
%TD*%
D17*
%TO.C,H3*%
X111450000Y-111430000D03*
%TD*%
%TO.C,H2*%
X111400000Y-53600000D03*
%TD*%
D15*
%TO.C,J4-IMU1*%
X107009138Y-95394959D03*
D16*
X104469138Y-95394959D03*
X101929138Y-95394959D03*
X99389138Y-95394959D03*
X96849138Y-95394959D03*
X94309138Y-95394959D03*
X91769138Y-95394959D03*
X89229138Y-95394959D03*
%TD*%
%LPD*%
M02*
