M48
; DRILL file {KiCad 9.0.5} date 2025-12-28T14:16:16+0200
; FORMAT={-:-/ absolute / metric / decimal}
; #@! TF.CreationDate,2025-12-28T14:16:16+02:00
; #@! TF.GenerationSoftware,Kicad,Pcbnew,9.0.5
; #@! TF.FileFunction,Plated,1,2,PTH
FMAT,2
METRIC
; #@! TA.AperFunction,Plated,PTH,ViaDrill
T1C0.300
; #@! TA.AperFunction,Plated,PTH,ComponentDrill
T2C0.800
; #@! TA.AperFunction,Plated,PTH,ComponentDrill
T3C1.000
; #@! TA.AperFunction,Plated,PTH,ComponentDrill
T4C1.200
%
G90
G05
T1
X55.5Y-101.5
X55.95Y-77.225
X56.225Y-90.55
X57.45Y-99.05
X70.925Y-79.275
X84.0Y-104.0
X86.825Y-61.075
X92.101Y-101.899
X92.425Y-62.05
X99.175Y-85.5
X101.025Y-60.45
X103.375Y-98.625
X104.469Y-75.894
X105.99Y-67.685
T2
X59.81Y-89.255
X59.81Y-96.875
X61.65Y-61.51
X61.65Y-64.05
X61.65Y-66.59
X61.65Y-69.13
X61.65Y-71.67
X61.65Y-74.21
X61.65Y-76.75
X61.65Y-79.29
X61.65Y-81.83
X61.65Y-84.37
X63.053Y-89.255
X63.053Y-96.875
X66.296Y-89.255
X66.296Y-96.875
X69.27Y-61.51
X69.27Y-64.05
X69.27Y-66.59
X69.27Y-69.13
X69.27Y-71.67
X69.27Y-74.21
X69.27Y-76.75
X69.27Y-79.29
X69.27Y-81.83
X69.27Y-84.37
X69.539Y-89.255
X69.539Y-96.875
X72.782Y-89.255
X72.782Y-96.875
X74.44Y-61.71
X74.44Y-64.21
X76.025Y-89.255
X76.025Y-96.875
X96.16Y-107.27
X101.16Y-107.27
T3
X54.0Y-59.46
X54.0Y-62.0
X54.0Y-64.54
X54.0Y-67.08
X54.0Y-69.62
X54.0Y-72.16
X54.0Y-74.7
X54.0Y-77.24
X54.0Y-79.78
X54.0Y-82.32
X54.0Y-84.86
X54.0Y-87.4
X54.0Y-89.94
X54.0Y-92.48
X54.0Y-95.02
X79.4Y-59.46
X79.4Y-62.0
X79.4Y-64.54
X79.4Y-67.08
X79.4Y-69.62
X79.4Y-72.16
X79.4Y-74.7
X79.4Y-77.24
X79.4Y-79.78
X79.4Y-82.32
X79.4Y-84.86
X79.4Y-87.4
X79.4Y-89.94
X79.4Y-92.48
X79.4Y-95.02
X89.229Y-95.395
X90.75Y-55.325
X91.769Y-95.395
X93.29Y-55.325
X94.309Y-95.395
X95.83Y-55.325
X96.849Y-95.395
X98.37Y-55.325
X99.389Y-95.395
X100.91Y-55.325
X101.929Y-95.395
X103.45Y-55.325
X104.469Y-95.395
X105.99Y-55.325
X107.009Y-95.395
T4
X62.0Y-108.0
X65.5Y-108.0
X69.0Y-108.0
X72.5Y-108.0
X76.0Y-108.0
X79.5Y-108.0
X83.0Y-108.0
X86.5Y-108.0
M30
