%TF.GenerationSoftware,KiCad,Pcbnew,9.0.5*%
%TF.CreationDate,2025-12-28T14:17:38+02:00*%
%TF.ProjectId,base-schematic-02,62617365-2d73-4636-9865-6d617469632d,rev?*%
%TF.SameCoordinates,Original*%
%TF.FileFunction,Soldermask,Top*%
%TF.FilePolarity,Negative*%
%FSLAX46Y46*%
G04 Gerber Fmt 4.6, Leading zero omitted, Abs format (unit mm)*
G04 Created by KiCad (PCBNEW 9.0.5) date 2025-12-28 14:17:38*
%MOMM*%
%LPD*%
G01*
G04 APERTURE LIST*
G04 Aperture macros list*
%AMRoundRect*
0 Rectangle with rounded corners*
0 $1 Rounding radius*
0 $2 $3 $4 $5 $6 $7 $8 $9 X,Y pos of 4 corners*
0 Add a 4 corners polygon primitive as box body*
4,1,4,$2,$3,$4,$5,$6,$7,$8,$9,$2,$3,0*
0 Add four circle primitives for the rounded corners*
1,1,$1+$1,$2,$3*
1,1,$1+$1,$4,$5*
1,1,$1+$1,$6,$7*
1,1,$1+$1,$8,$9*
0 Add four rect primitives between the rounded corners*
20,1,$1+$1,$2,$3,$4,$5,0*
20,1,$1+$1,$4,$5,$6,$7,0*
20,1,$1+$1,$6,$7,$8,$9,0*
20,1,$1+$1,$8,$9,$2,$3,0*%
G04 Aperture macros list end*
%ADD10C,1.600000*%
%ADD11C,2.400000*%
%ADD12RoundRect,0.250001X-0.949999X-0.949999X0.949999X-0.949999X0.949999X0.949999X-0.949999X0.949999X0*%
%ADD13R,1.700000X1.700000*%
%ADD14C,1.700000*%
%ADD15C,3.200000*%
%ADD16RoundRect,0.250000X-0.950000X-0.550000X0.950000X-0.550000X0.950000X0.550000X-0.950000X0.550000X0*%
%ADD17O,2.400000X1.600000*%
G04 APERTURE END LIST*
D10*
%TO.C,C2*%
X96160000Y-107270000D03*
X101160000Y-107270000D03*
%TD*%
D11*
%TO.C,J4*%
X86500000Y-108000000D03*
X83000000Y-108000000D03*
X79500000Y-108000000D03*
X76000000Y-108000000D03*
X72500000Y-108000000D03*
X69000000Y-108000000D03*
X65500000Y-108000000D03*
D12*
X62000000Y-108000000D03*
%TD*%
D10*
%TO.C,C1*%
X74440000Y-61710000D03*
X74440000Y-64210000D03*
%TD*%
D13*
%TO.C,J2*%
X79400000Y-59460000D03*
D14*
X79400000Y-62000000D03*
X79400000Y-64540000D03*
X79400000Y-67080000D03*
X79400000Y-69620000D03*
X79400000Y-72160000D03*
X79400000Y-74700000D03*
X79400000Y-77240000D03*
X79400000Y-79780000D03*
X79400000Y-82320000D03*
X79400000Y-84860000D03*
X79400000Y-87400000D03*
X79400000Y-89940000D03*
X79400000Y-92480000D03*
X79400000Y-95020000D03*
%TD*%
D13*
%TO.C,J1*%
X54000000Y-59460000D03*
D14*
X54000000Y-62000000D03*
X54000000Y-64540000D03*
X54000000Y-67080000D03*
X54000000Y-69620000D03*
X54000000Y-72160000D03*
X54000000Y-74700000D03*
X54000000Y-77240000D03*
X54000000Y-79780000D03*
X54000000Y-82320000D03*
X54000000Y-84860000D03*
X54000000Y-87400000D03*
X54000000Y-89940000D03*
X54000000Y-92480000D03*
X54000000Y-95020000D03*
%TD*%
D15*
%TO.C,H1*%
X53600000Y-53600000D03*
%TD*%
D10*
%TO.C,R2*%
X63053000Y-89255000D03*
X63053000Y-96875000D03*
%TD*%
%TO.C,R1*%
X59810000Y-89255000D03*
X59810000Y-96875000D03*
%TD*%
D13*
%TO.C,J3-DAC1*%
X90750000Y-55325000D03*
D14*
X93290000Y-55325000D03*
X95830000Y-55325000D03*
X98370000Y-55325000D03*
X100910000Y-55325000D03*
X103450000Y-55325000D03*
X105990000Y-55325000D03*
%TD*%
D15*
%TO.C,H4*%
X53600000Y-111400000D03*
%TD*%
D10*
%TO.C,R4*%
X69539000Y-89255000D03*
X69539000Y-96875000D03*
%TD*%
%TO.C,R6*%
X76025000Y-89255000D03*
X76025000Y-96875000D03*
%TD*%
%TO.C,R5*%
X72782000Y-89255000D03*
X72782000Y-96875000D03*
%TD*%
%TO.C,R3*%
X66296000Y-89255000D03*
X66296000Y-96875000D03*
%TD*%
D16*
%TO.C,U1*%
X61650000Y-61510000D03*
D17*
X61650000Y-64050000D03*
X61650000Y-66590000D03*
X61650000Y-69130000D03*
X61650000Y-71670000D03*
X61650000Y-74210000D03*
X61650000Y-76750000D03*
X61650000Y-79290000D03*
X61650000Y-81830000D03*
X61650000Y-84370000D03*
X69270000Y-84370000D03*
X69270000Y-81830000D03*
X69270000Y-79290000D03*
X69270000Y-76750000D03*
X69270000Y-74210000D03*
X69270000Y-71670000D03*
X69270000Y-69130000D03*
X69270000Y-66590000D03*
X69270000Y-64050000D03*
X69270000Y-61510000D03*
%TD*%
D15*
%TO.C,H3*%
X111450000Y-111430000D03*
%TD*%
%TO.C,H2*%
X111400000Y-53600000D03*
%TD*%
D13*
%TO.C,J4-IMU1*%
X107009138Y-95394959D03*
D14*
X104469138Y-95394959D03*
X101929138Y-95394959D03*
X99389138Y-95394959D03*
X96849138Y-95394959D03*
X94309138Y-95394959D03*
X91769138Y-95394959D03*
X89229138Y-95394959D03*
%TD*%
M02*
