%TF.GenerationSoftware,KiCad,Pcbnew,9.0.5*%
%TF.CreationDate,2025-12-28T18:17:11+02:00*%
%TF.ProjectId,base-schematic-02,62617365-2d73-4636-9865-6d617469632d,rev?*%
%TF.SameCoordinates,Original*%
%TF.FileFunction,Legend,Bot*%
%TF.FilePolarity,Positive*%
%FSLAX46Y46*%
G04 Gerber Fmt 4.6, Leading zero omitted, Abs format (unit mm)*
G04 Created by KiCad (PCBNEW 9.0.5) date 2025-12-28 18:17:11*
%MOMM*%
%LPD*%
G01*
G04 APERTURE LIST*
G04 Aperture macros list*
%AMRoundRect*
0 Rectangle with rounded corners*
0 $1 Rounding radius*
0 $2 $3 $4 $5 $6 $7 $8 $9 X,Y pos of 4 corners*
0 Add a 4 corners polygon primitive as box body*
4,1,4,$2,$3,$4,$5,$6,$7,$8,$9,$2,$3,0*
0 Add four circle primitives for the rounded corners*
1,1,$1+$1,$2,$3*
1,1,$1+$1,$4,$5*
1,1,$1+$1,$6,$7*
1,1,$1+$1,$8,$9*
0 Add four rect primitives between the rounded corners*
20,1,$1+$1,$2,$3,$4,$5,0*
20,1,$1+$1,$4,$5,$6,$7,0*
20,1,$1+$1,$6,$7,$8,$9,0*
20,1,$1+$1,$8,$9,$2,$3,0*%
G04 Aperture macros list end*
%ADD10C,0.100000*%
%ADD11C,0.200000*%
%ADD12R,1.700000X1.700000*%
%ADD13C,1.700000*%
%ADD14C,3.200000*%
%ADD15RoundRect,0.250001X-0.949999X-0.949999X0.949999X-0.949999X0.949999X0.949999X-0.949999X0.949999X0*%
%ADD16C,2.400000*%
G04 APERTURE END LIST*
D10*
X77068115Y-110692419D02*
X77068115Y-109692419D01*
X77068115Y-109692419D02*
X76830020Y-109692419D01*
X76830020Y-109692419D02*
X76687163Y-109740038D01*
X76687163Y-109740038D02*
X76591925Y-109835276D01*
X76591925Y-109835276D02*
X76544306Y-109930514D01*
X76544306Y-109930514D02*
X76496687Y-110120990D01*
X76496687Y-110120990D02*
X76496687Y-110263847D01*
X76496687Y-110263847D02*
X76544306Y-110454323D01*
X76544306Y-110454323D02*
X76591925Y-110549561D01*
X76591925Y-110549561D02*
X76687163Y-110644800D01*
X76687163Y-110644800D02*
X76830020Y-110692419D01*
X76830020Y-110692419D02*
X77068115Y-110692419D01*
X76163353Y-109692419D02*
X75544306Y-109692419D01*
X75544306Y-109692419D02*
X75877639Y-110073371D01*
X75877639Y-110073371D02*
X75734782Y-110073371D01*
X75734782Y-110073371D02*
X75639544Y-110120990D01*
X75639544Y-110120990D02*
X75591925Y-110168609D01*
X75591925Y-110168609D02*
X75544306Y-110263847D01*
X75544306Y-110263847D02*
X75544306Y-110501942D01*
X75544306Y-110501942D02*
X75591925Y-110597180D01*
X75591925Y-110597180D02*
X75639544Y-110644800D01*
X75639544Y-110644800D02*
X75734782Y-110692419D01*
X75734782Y-110692419D02*
X76020496Y-110692419D01*
X76020496Y-110692419D02*
X76115734Y-110644800D01*
X76115734Y-110644800D02*
X76163353Y-110597180D01*
X75210972Y-109692419D02*
X74591925Y-109692419D01*
X74591925Y-109692419D02*
X74925258Y-110073371D01*
X74925258Y-110073371D02*
X74782401Y-110073371D01*
X74782401Y-110073371D02*
X74687163Y-110120990D01*
X74687163Y-110120990D02*
X74639544Y-110168609D01*
X74639544Y-110168609D02*
X74591925Y-110263847D01*
X74591925Y-110263847D02*
X74591925Y-110501942D01*
X74591925Y-110501942D02*
X74639544Y-110597180D01*
X74639544Y-110597180D02*
X74687163Y-110644800D01*
X74687163Y-110644800D02*
X74782401Y-110692419D01*
X74782401Y-110692419D02*
X75068115Y-110692419D01*
X75068115Y-110692419D02*
X75163353Y-110644800D01*
X75163353Y-110644800D02*
X75210972Y-110597180D01*
X70032115Y-110692419D02*
X70032115Y-109692419D01*
X70032115Y-109692419D02*
X69794020Y-109692419D01*
X69794020Y-109692419D02*
X69651163Y-109740038D01*
X69651163Y-109740038D02*
X69555925Y-109835276D01*
X69555925Y-109835276D02*
X69508306Y-109930514D01*
X69508306Y-109930514D02*
X69460687Y-110120990D01*
X69460687Y-110120990D02*
X69460687Y-110263847D01*
X69460687Y-110263847D02*
X69508306Y-110454323D01*
X69508306Y-110454323D02*
X69555925Y-110549561D01*
X69555925Y-110549561D02*
X69651163Y-110644800D01*
X69651163Y-110644800D02*
X69794020Y-110692419D01*
X69794020Y-110692419D02*
X70032115Y-110692419D01*
X69079734Y-109787657D02*
X69032115Y-109740038D01*
X69032115Y-109740038D02*
X68936877Y-109692419D01*
X68936877Y-109692419D02*
X68698782Y-109692419D01*
X68698782Y-109692419D02*
X68603544Y-109740038D01*
X68603544Y-109740038D02*
X68555925Y-109787657D01*
X68555925Y-109787657D02*
X68508306Y-109882895D01*
X68508306Y-109882895D02*
X68508306Y-109978133D01*
X68508306Y-109978133D02*
X68555925Y-110120990D01*
X68555925Y-110120990D02*
X69127353Y-110692419D01*
X69127353Y-110692419D02*
X68508306Y-110692419D01*
X68174972Y-109692419D02*
X67508306Y-109692419D01*
X67508306Y-109692419D02*
X67936877Y-110692419D01*
X66514115Y-110692419D02*
X66514115Y-109692419D01*
X66514115Y-109692419D02*
X66276020Y-109692419D01*
X66276020Y-109692419D02*
X66133163Y-109740038D01*
X66133163Y-109740038D02*
X66037925Y-109835276D01*
X66037925Y-109835276D02*
X65990306Y-109930514D01*
X65990306Y-109930514D02*
X65942687Y-110120990D01*
X65942687Y-110120990D02*
X65942687Y-110263847D01*
X65942687Y-110263847D02*
X65990306Y-110454323D01*
X65990306Y-110454323D02*
X66037925Y-110549561D01*
X66037925Y-110549561D02*
X66133163Y-110644800D01*
X66133163Y-110644800D02*
X66276020Y-110692419D01*
X66276020Y-110692419D02*
X66514115Y-110692419D01*
X64990306Y-110692419D02*
X65561734Y-110692419D01*
X65276020Y-110692419D02*
X65276020Y-109692419D01*
X65276020Y-109692419D02*
X65371258Y-109835276D01*
X65371258Y-109835276D02*
X65466496Y-109930514D01*
X65466496Y-109930514D02*
X65561734Y-109978133D01*
X64133163Y-110025752D02*
X64133163Y-110692419D01*
X64371258Y-109644800D02*
X64609353Y-110359085D01*
X64609353Y-110359085D02*
X63990306Y-110359085D01*
X80586115Y-110692419D02*
X80586115Y-109692419D01*
X80586115Y-109692419D02*
X80348020Y-109692419D01*
X80348020Y-109692419D02*
X80205163Y-109740038D01*
X80205163Y-109740038D02*
X80109925Y-109835276D01*
X80109925Y-109835276D02*
X80062306Y-109930514D01*
X80062306Y-109930514D02*
X80014687Y-110120990D01*
X80014687Y-110120990D02*
X80014687Y-110263847D01*
X80014687Y-110263847D02*
X80062306Y-110454323D01*
X80062306Y-110454323D02*
X80109925Y-110549561D01*
X80109925Y-110549561D02*
X80205163Y-110644800D01*
X80205163Y-110644800D02*
X80348020Y-110692419D01*
X80348020Y-110692419D02*
X80586115Y-110692419D01*
X79681353Y-109692419D02*
X79062306Y-109692419D01*
X79062306Y-109692419D02*
X79395639Y-110073371D01*
X79395639Y-110073371D02*
X79252782Y-110073371D01*
X79252782Y-110073371D02*
X79157544Y-110120990D01*
X79157544Y-110120990D02*
X79109925Y-110168609D01*
X79109925Y-110168609D02*
X79062306Y-110263847D01*
X79062306Y-110263847D02*
X79062306Y-110501942D01*
X79062306Y-110501942D02*
X79109925Y-110597180D01*
X79109925Y-110597180D02*
X79157544Y-110644800D01*
X79157544Y-110644800D02*
X79252782Y-110692419D01*
X79252782Y-110692419D02*
X79538496Y-110692419D01*
X79538496Y-110692419D02*
X79633734Y-110644800D01*
X79633734Y-110644800D02*
X79681353Y-110597180D01*
X78681353Y-109787657D02*
X78633734Y-109740038D01*
X78633734Y-109740038D02*
X78538496Y-109692419D01*
X78538496Y-109692419D02*
X78300401Y-109692419D01*
X78300401Y-109692419D02*
X78205163Y-109740038D01*
X78205163Y-109740038D02*
X78157544Y-109787657D01*
X78157544Y-109787657D02*
X78109925Y-109882895D01*
X78109925Y-109882895D02*
X78109925Y-109978133D01*
X78109925Y-109978133D02*
X78157544Y-110120990D01*
X78157544Y-110120990D02*
X78728972Y-110692419D01*
X78728972Y-110692419D02*
X78109925Y-110692419D01*
X86882306Y-109740038D02*
X86977544Y-109692419D01*
X86977544Y-109692419D02*
X87120401Y-109692419D01*
X87120401Y-109692419D02*
X87263258Y-109740038D01*
X87263258Y-109740038D02*
X87358496Y-109835276D01*
X87358496Y-109835276D02*
X87406115Y-109930514D01*
X87406115Y-109930514D02*
X87453734Y-110120990D01*
X87453734Y-110120990D02*
X87453734Y-110263847D01*
X87453734Y-110263847D02*
X87406115Y-110454323D01*
X87406115Y-110454323D02*
X87358496Y-110549561D01*
X87358496Y-110549561D02*
X87263258Y-110644800D01*
X87263258Y-110644800D02*
X87120401Y-110692419D01*
X87120401Y-110692419D02*
X87025163Y-110692419D01*
X87025163Y-110692419D02*
X86882306Y-110644800D01*
X86882306Y-110644800D02*
X86834687Y-110597180D01*
X86834687Y-110597180D02*
X86834687Y-110263847D01*
X86834687Y-110263847D02*
X87025163Y-110263847D01*
X86406115Y-110692419D02*
X86406115Y-109692419D01*
X86406115Y-109692419D02*
X85834687Y-110692419D01*
X85834687Y-110692419D02*
X85834687Y-109692419D01*
X85358496Y-110692419D02*
X85358496Y-109692419D01*
X85358496Y-109692419D02*
X85120401Y-109692419D01*
X85120401Y-109692419D02*
X84977544Y-109740038D01*
X84977544Y-109740038D02*
X84882306Y-109835276D01*
X84882306Y-109835276D02*
X84834687Y-109930514D01*
X84834687Y-109930514D02*
X84787068Y-110120990D01*
X84787068Y-110120990D02*
X84787068Y-110263847D01*
X84787068Y-110263847D02*
X84834687Y-110454323D01*
X84834687Y-110454323D02*
X84882306Y-110549561D01*
X84882306Y-110549561D02*
X84977544Y-110644800D01*
X84977544Y-110644800D02*
X85120401Y-110692419D01*
X85120401Y-110692419D02*
X85358496Y-110692419D01*
X83850265Y-109692419D02*
X83516932Y-110692419D01*
X83516932Y-110692419D02*
X83183599Y-109692419D01*
X82850265Y-110692419D02*
X82850265Y-109692419D01*
X82374075Y-110692419D02*
X82374075Y-109692419D01*
X82374075Y-109692419D02*
X81802647Y-110692419D01*
X81802647Y-110692419D02*
X81802647Y-109692419D01*
D11*
X101106667Y-78580305D02*
X100440000Y-78580305D01*
X101240000Y-78980305D02*
X100773334Y-77580305D01*
X100773334Y-77580305D02*
X100306667Y-78980305D01*
X99840000Y-78980305D02*
X99840000Y-77580305D01*
X99840000Y-77580305D02*
X99506667Y-77580305D01*
X99506667Y-77580305D02*
X99306667Y-77646972D01*
X99306667Y-77646972D02*
X99173334Y-77780305D01*
X99173334Y-77780305D02*
X99106667Y-77913639D01*
X99106667Y-77913639D02*
X99040000Y-78180305D01*
X99040000Y-78180305D02*
X99040000Y-78380305D01*
X99040000Y-78380305D02*
X99106667Y-78646972D01*
X99106667Y-78646972D02*
X99173334Y-78780305D01*
X99173334Y-78780305D02*
X99306667Y-78913639D01*
X99306667Y-78913639D02*
X99506667Y-78980305D01*
X99506667Y-78980305D02*
X99840000Y-78980305D01*
X98440000Y-78980305D02*
X98440000Y-77580305D01*
X98440000Y-78246972D02*
X97640000Y-78246972D01*
X97640000Y-78980305D02*
X97640000Y-77580305D01*
X96973333Y-78980305D02*
X96973333Y-77580305D01*
X96973333Y-77580305D02*
X96640000Y-77580305D01*
X96640000Y-77580305D02*
X96440000Y-77646972D01*
X96440000Y-77646972D02*
X96306667Y-77780305D01*
X96306667Y-77780305D02*
X96240000Y-77913639D01*
X96240000Y-77913639D02*
X96173333Y-78180305D01*
X96173333Y-78180305D02*
X96173333Y-78380305D01*
X96173333Y-78380305D02*
X96240000Y-78646972D01*
X96240000Y-78646972D02*
X96306667Y-78780305D01*
X96306667Y-78780305D02*
X96440000Y-78913639D01*
X96440000Y-78913639D02*
X96640000Y-78980305D01*
X96640000Y-78980305D02*
X96973333Y-78980305D01*
X93706666Y-78846972D02*
X93773333Y-78913639D01*
X93773333Y-78913639D02*
X93973333Y-78980305D01*
X93973333Y-78980305D02*
X94106666Y-78980305D01*
X94106666Y-78980305D02*
X94306666Y-78913639D01*
X94306666Y-78913639D02*
X94440000Y-78780305D01*
X94440000Y-78780305D02*
X94506666Y-78646972D01*
X94506666Y-78646972D02*
X94573333Y-78380305D01*
X94573333Y-78380305D02*
X94573333Y-78180305D01*
X94573333Y-78180305D02*
X94506666Y-77913639D01*
X94506666Y-77913639D02*
X94440000Y-77780305D01*
X94440000Y-77780305D02*
X94306666Y-77646972D01*
X94306666Y-77646972D02*
X94106666Y-77580305D01*
X94106666Y-77580305D02*
X93973333Y-77580305D01*
X93973333Y-77580305D02*
X93773333Y-77646972D01*
X93773333Y-77646972D02*
X93706666Y-77713639D01*
X92506666Y-78046972D02*
X92506666Y-78980305D01*
X93106666Y-78046972D02*
X93106666Y-78780305D01*
X93106666Y-78780305D02*
X93040000Y-78913639D01*
X93040000Y-78913639D02*
X92906666Y-78980305D01*
X92906666Y-78980305D02*
X92706666Y-78980305D01*
X92706666Y-78980305D02*
X92573333Y-78913639D01*
X92573333Y-78913639D02*
X92506666Y-78846972D01*
X91839999Y-78980305D02*
X91839999Y-77580305D01*
X91839999Y-78113639D02*
X91706666Y-78046972D01*
X91706666Y-78046972D02*
X91439999Y-78046972D01*
X91439999Y-78046972D02*
X91306666Y-78113639D01*
X91306666Y-78113639D02*
X91239999Y-78180305D01*
X91239999Y-78180305D02*
X91173333Y-78313639D01*
X91173333Y-78313639D02*
X91173333Y-78713639D01*
X91173333Y-78713639D02*
X91239999Y-78846972D01*
X91239999Y-78846972D02*
X91306666Y-78913639D01*
X91306666Y-78913639D02*
X91439999Y-78980305D01*
X91439999Y-78980305D02*
X91706666Y-78980305D01*
X91706666Y-78980305D02*
X91839999Y-78913639D01*
X90039999Y-78913639D02*
X90173332Y-78980305D01*
X90173332Y-78980305D02*
X90439999Y-78980305D01*
X90439999Y-78980305D02*
X90573332Y-78913639D01*
X90573332Y-78913639D02*
X90639999Y-78780305D01*
X90639999Y-78780305D02*
X90639999Y-78246972D01*
X90639999Y-78246972D02*
X90573332Y-78113639D01*
X90573332Y-78113639D02*
X90439999Y-78046972D01*
X90439999Y-78046972D02*
X90173332Y-78046972D01*
X90173332Y-78046972D02*
X90039999Y-78113639D01*
X90039999Y-78113639D02*
X89973332Y-78246972D01*
X89973332Y-78246972D02*
X89973332Y-78380305D01*
X89973332Y-78380305D02*
X90639999Y-78513639D01*
X87906665Y-79513639D02*
X87973332Y-79446972D01*
X87973332Y-79446972D02*
X88106665Y-79246972D01*
X88106665Y-79246972D02*
X88173332Y-79113639D01*
X88173332Y-79113639D02*
X88239999Y-78913639D01*
X88239999Y-78913639D02*
X88306665Y-78580305D01*
X88306665Y-78580305D02*
X88306665Y-78313639D01*
X88306665Y-78313639D02*
X88239999Y-77980305D01*
X88239999Y-77980305D02*
X88173332Y-77780305D01*
X88173332Y-77780305D02*
X88106665Y-77646972D01*
X88106665Y-77646972D02*
X87973332Y-77446972D01*
X87973332Y-77446972D02*
X87906665Y-77380305D01*
X87506666Y-78046972D02*
X87173332Y-78980305D01*
X87173332Y-78980305D02*
X86839999Y-78046972D01*
X86306665Y-78846972D02*
X86239999Y-78913639D01*
X86239999Y-78913639D02*
X86306665Y-78980305D01*
X86306665Y-78980305D02*
X86373332Y-78913639D01*
X86373332Y-78913639D02*
X86306665Y-78846972D01*
X86306665Y-78846972D02*
X86306665Y-78980305D01*
X84906665Y-78980305D02*
X85706665Y-78980305D01*
X85306665Y-78980305D02*
X85306665Y-77580305D01*
X85306665Y-77580305D02*
X85439998Y-77780305D01*
X85439998Y-77780305D02*
X85573332Y-77913639D01*
X85573332Y-77913639D02*
X85706665Y-77980305D01*
X84439999Y-79513639D02*
X84373332Y-79446972D01*
X84373332Y-79446972D02*
X84239999Y-79246972D01*
X84239999Y-79246972D02*
X84173332Y-79113639D01*
X84173332Y-79113639D02*
X84106665Y-78913639D01*
X84106665Y-78913639D02*
X84039999Y-78580305D01*
X84039999Y-78580305D02*
X84039999Y-78313639D01*
X84039999Y-78313639D02*
X84106665Y-77980305D01*
X84106665Y-77980305D02*
X84173332Y-77780305D01*
X84173332Y-77780305D02*
X84239999Y-77646972D01*
X84239999Y-77646972D02*
X84373332Y-77446972D01*
X84373332Y-77446972D02*
X84439999Y-77380305D01*
X99740001Y-80500894D02*
X99540001Y-80567561D01*
X99540001Y-80567561D02*
X99473334Y-80634227D01*
X99473334Y-80634227D02*
X99406667Y-80767561D01*
X99406667Y-80767561D02*
X99406667Y-80967561D01*
X99406667Y-80967561D02*
X99473334Y-81100894D01*
X99473334Y-81100894D02*
X99540001Y-81167561D01*
X99540001Y-81167561D02*
X99673334Y-81234227D01*
X99673334Y-81234227D02*
X100206667Y-81234227D01*
X100206667Y-81234227D02*
X100206667Y-79834227D01*
X100206667Y-79834227D02*
X99740001Y-79834227D01*
X99740001Y-79834227D02*
X99606667Y-79900894D01*
X99606667Y-79900894D02*
X99540001Y-79967561D01*
X99540001Y-79967561D02*
X99473334Y-80100894D01*
X99473334Y-80100894D02*
X99473334Y-80234227D01*
X99473334Y-80234227D02*
X99540001Y-80367561D01*
X99540001Y-80367561D02*
X99606667Y-80434227D01*
X99606667Y-80434227D02*
X99740001Y-80500894D01*
X99740001Y-80500894D02*
X100206667Y-80500894D01*
X98940001Y-80300894D02*
X98606667Y-81234227D01*
X98273334Y-80300894D02*
X98606667Y-81234227D01*
X98606667Y-81234227D02*
X98740001Y-81567561D01*
X98740001Y-81567561D02*
X98806667Y-81634227D01*
X98806667Y-81634227D02*
X98940001Y-81700894D01*
X96673333Y-80500894D02*
X96206667Y-80500894D01*
X96006667Y-81234227D02*
X96673333Y-81234227D01*
X96673333Y-81234227D02*
X96673333Y-79834227D01*
X96673333Y-79834227D02*
X96006667Y-79834227D01*
X95406666Y-81100894D02*
X95340000Y-81167561D01*
X95340000Y-81167561D02*
X95406666Y-81234227D01*
X95406666Y-81234227D02*
X95473333Y-81167561D01*
X95473333Y-81167561D02*
X95406666Y-81100894D01*
X95406666Y-81100894D02*
X95406666Y-81234227D01*
X92939999Y-79900894D02*
X93073332Y-79834227D01*
X93073332Y-79834227D02*
X93273332Y-79834227D01*
X93273332Y-79834227D02*
X93473332Y-79900894D01*
X93473332Y-79900894D02*
X93606666Y-80034227D01*
X93606666Y-80034227D02*
X93673332Y-80167561D01*
X93673332Y-80167561D02*
X93739999Y-80434227D01*
X93739999Y-80434227D02*
X93739999Y-80634227D01*
X93739999Y-80634227D02*
X93673332Y-80900894D01*
X93673332Y-80900894D02*
X93606666Y-81034227D01*
X93606666Y-81034227D02*
X93473332Y-81167561D01*
X93473332Y-81167561D02*
X93273332Y-81234227D01*
X93273332Y-81234227D02*
X93139999Y-81234227D01*
X93139999Y-81234227D02*
X92939999Y-81167561D01*
X92939999Y-81167561D02*
X92873332Y-81100894D01*
X92873332Y-81100894D02*
X92873332Y-80634227D01*
X92873332Y-80634227D02*
X93139999Y-80634227D01*
X92073332Y-81234227D02*
X92206666Y-81167561D01*
X92206666Y-81167561D02*
X92273332Y-81100894D01*
X92273332Y-81100894D02*
X92339999Y-80967561D01*
X92339999Y-80967561D02*
X92339999Y-80567561D01*
X92339999Y-80567561D02*
X92273332Y-80434227D01*
X92273332Y-80434227D02*
X92206666Y-80367561D01*
X92206666Y-80367561D02*
X92073332Y-80300894D01*
X92073332Y-80300894D02*
X91873332Y-80300894D01*
X91873332Y-80300894D02*
X91739999Y-80367561D01*
X91739999Y-80367561D02*
X91673332Y-80434227D01*
X91673332Y-80434227D02*
X91606666Y-80567561D01*
X91606666Y-80567561D02*
X91606666Y-80967561D01*
X91606666Y-80967561D02*
X91673332Y-81100894D01*
X91673332Y-81100894D02*
X91739999Y-81167561D01*
X91739999Y-81167561D02*
X91873332Y-81234227D01*
X91873332Y-81234227D02*
X92073332Y-81234227D01*
X90806665Y-81234227D02*
X90939999Y-81167561D01*
X90939999Y-81167561D02*
X91006665Y-81034227D01*
X91006665Y-81034227D02*
X91006665Y-79834227D01*
X89673332Y-80300894D02*
X89673332Y-81234227D01*
X90273332Y-80300894D02*
X90273332Y-81034227D01*
X90273332Y-81034227D02*
X90206666Y-81167561D01*
X90206666Y-81167561D02*
X90073332Y-81234227D01*
X90073332Y-81234227D02*
X89873332Y-81234227D01*
X89873332Y-81234227D02*
X89739999Y-81167561D01*
X89739999Y-81167561D02*
X89673332Y-81100894D01*
X89006665Y-81234227D02*
X89006665Y-79834227D01*
X89006665Y-80367561D02*
X88873332Y-80300894D01*
X88873332Y-80300894D02*
X88606665Y-80300894D01*
X88606665Y-80300894D02*
X88473332Y-80367561D01*
X88473332Y-80367561D02*
X88406665Y-80434227D01*
X88406665Y-80434227D02*
X88339999Y-80567561D01*
X88339999Y-80567561D02*
X88339999Y-80967561D01*
X88339999Y-80967561D02*
X88406665Y-81100894D01*
X88406665Y-81100894D02*
X88473332Y-81167561D01*
X88473332Y-81167561D02*
X88606665Y-81234227D01*
X88606665Y-81234227D02*
X88873332Y-81234227D01*
X88873332Y-81234227D02*
X89006665Y-81167561D01*
X87206665Y-81167561D02*
X87339998Y-81234227D01*
X87339998Y-81234227D02*
X87606665Y-81234227D01*
X87606665Y-81234227D02*
X87739998Y-81167561D01*
X87739998Y-81167561D02*
X87806665Y-81034227D01*
X87806665Y-81034227D02*
X87806665Y-80500894D01*
X87806665Y-80500894D02*
X87739998Y-80367561D01*
X87739998Y-80367561D02*
X87606665Y-80300894D01*
X87606665Y-80300894D02*
X87339998Y-80300894D01*
X87339998Y-80300894D02*
X87206665Y-80367561D01*
X87206665Y-80367561D02*
X87139998Y-80500894D01*
X87139998Y-80500894D02*
X87139998Y-80634227D01*
X87139998Y-80634227D02*
X87806665Y-80767561D01*
X86673332Y-80300894D02*
X86339998Y-81234227D01*
X86339998Y-81234227D02*
X86006665Y-80300894D01*
X84873331Y-81234227D02*
X84873331Y-80500894D01*
X84873331Y-80500894D02*
X84939998Y-80367561D01*
X84939998Y-80367561D02*
X85073331Y-80300894D01*
X85073331Y-80300894D02*
X85339998Y-80300894D01*
X85339998Y-80300894D02*
X85473331Y-80367561D01*
X84873331Y-81167561D02*
X85006665Y-81234227D01*
X85006665Y-81234227D02*
X85339998Y-81234227D01*
X85339998Y-81234227D02*
X85473331Y-81167561D01*
X85473331Y-81167561D02*
X85539998Y-81034227D01*
X85539998Y-81034227D02*
X85539998Y-80900894D01*
X85539998Y-80900894D02*
X85473331Y-80767561D01*
X85473331Y-80767561D02*
X85339998Y-80700894D01*
X85339998Y-80700894D02*
X85006665Y-80700894D01*
X85006665Y-80700894D02*
X84873331Y-80634227D01*
D10*
X73550115Y-110692419D02*
X73550115Y-109692419D01*
X73550115Y-109692419D02*
X73312020Y-109692419D01*
X73312020Y-109692419D02*
X73169163Y-109740038D01*
X73169163Y-109740038D02*
X73073925Y-109835276D01*
X73073925Y-109835276D02*
X73026306Y-109930514D01*
X73026306Y-109930514D02*
X72978687Y-110120990D01*
X72978687Y-110120990D02*
X72978687Y-110263847D01*
X72978687Y-110263847D02*
X73026306Y-110454323D01*
X73026306Y-110454323D02*
X73073925Y-110549561D01*
X73073925Y-110549561D02*
X73169163Y-110644800D01*
X73169163Y-110644800D02*
X73312020Y-110692419D01*
X73312020Y-110692419D02*
X73550115Y-110692419D01*
X72597734Y-109787657D02*
X72550115Y-109740038D01*
X72550115Y-109740038D02*
X72454877Y-109692419D01*
X72454877Y-109692419D02*
X72216782Y-109692419D01*
X72216782Y-109692419D02*
X72121544Y-109740038D01*
X72121544Y-109740038D02*
X72073925Y-109787657D01*
X72073925Y-109787657D02*
X72026306Y-109882895D01*
X72026306Y-109882895D02*
X72026306Y-109978133D01*
X72026306Y-109978133D02*
X72073925Y-110120990D01*
X72073925Y-110120990D02*
X72645353Y-110692419D01*
X72645353Y-110692419D02*
X72026306Y-110692419D01*
X71169163Y-109692419D02*
X71359639Y-109692419D01*
X71359639Y-109692419D02*
X71454877Y-109740038D01*
X71454877Y-109740038D02*
X71502496Y-109787657D01*
X71502496Y-109787657D02*
X71597734Y-109930514D01*
X71597734Y-109930514D02*
X71645353Y-110120990D01*
X71645353Y-110120990D02*
X71645353Y-110501942D01*
X71645353Y-110501942D02*
X71597734Y-110597180D01*
X71597734Y-110597180D02*
X71550115Y-110644800D01*
X71550115Y-110644800D02*
X71454877Y-110692419D01*
X71454877Y-110692419D02*
X71264401Y-110692419D01*
X71264401Y-110692419D02*
X71169163Y-110644800D01*
X71169163Y-110644800D02*
X71121544Y-110597180D01*
X71121544Y-110597180D02*
X71073925Y-110501942D01*
X71073925Y-110501942D02*
X71073925Y-110263847D01*
X71073925Y-110263847D02*
X71121544Y-110168609D01*
X71121544Y-110168609D02*
X71169163Y-110120990D01*
X71169163Y-110120990D02*
X71264401Y-110073371D01*
X71264401Y-110073371D02*
X71454877Y-110073371D01*
X71454877Y-110073371D02*
X71550115Y-110120990D01*
X71550115Y-110120990D02*
X71597734Y-110168609D01*
X71597734Y-110168609D02*
X71645353Y-110263847D01*
X62996115Y-110692419D02*
X62996115Y-109692419D01*
X62996115Y-109692419D02*
X62758020Y-109692419D01*
X62758020Y-109692419D02*
X62615163Y-109740038D01*
X62615163Y-109740038D02*
X62519925Y-109835276D01*
X62519925Y-109835276D02*
X62472306Y-109930514D01*
X62472306Y-109930514D02*
X62424687Y-110120990D01*
X62424687Y-110120990D02*
X62424687Y-110263847D01*
X62424687Y-110263847D02*
X62472306Y-110454323D01*
X62472306Y-110454323D02*
X62519925Y-110549561D01*
X62519925Y-110549561D02*
X62615163Y-110644800D01*
X62615163Y-110644800D02*
X62758020Y-110692419D01*
X62758020Y-110692419D02*
X62996115Y-110692419D01*
X61472306Y-110692419D02*
X62043734Y-110692419D01*
X61758020Y-110692419D02*
X61758020Y-109692419D01*
X61758020Y-109692419D02*
X61853258Y-109835276D01*
X61853258Y-109835276D02*
X61948496Y-109930514D01*
X61948496Y-109930514D02*
X62043734Y-109978133D01*
X61091353Y-109787657D02*
X61043734Y-109740038D01*
X61043734Y-109740038D02*
X60948496Y-109692419D01*
X60948496Y-109692419D02*
X60710401Y-109692419D01*
X60710401Y-109692419D02*
X60615163Y-109740038D01*
X60615163Y-109740038D02*
X60567544Y-109787657D01*
X60567544Y-109787657D02*
X60519925Y-109882895D01*
X60519925Y-109882895D02*
X60519925Y-109978133D01*
X60519925Y-109978133D02*
X60567544Y-110120990D01*
X60567544Y-110120990D02*
X61138972Y-110692419D01*
X61138972Y-110692419D02*
X60519925Y-110692419D01*
%LPC*%
D12*
%TO.C,J2*%
X79400000Y-59460000D03*
D13*
X79400000Y-62000000D03*
X79400000Y-64540000D03*
X79400000Y-67080000D03*
X79400000Y-69620000D03*
X79400000Y-72160000D03*
X79400000Y-74700000D03*
X79400000Y-77240000D03*
X79400000Y-79780000D03*
X79400000Y-82320000D03*
X79400000Y-84860000D03*
X79400000Y-87400000D03*
X79400000Y-89940000D03*
X79400000Y-92480000D03*
X79400000Y-95020000D03*
%TD*%
D12*
%TO.C,J1*%
X54000000Y-59460000D03*
D13*
X54000000Y-62000000D03*
X54000000Y-64540000D03*
X54000000Y-67080000D03*
X54000000Y-69620000D03*
X54000000Y-72160000D03*
X54000000Y-74700000D03*
X54000000Y-77240000D03*
X54000000Y-79780000D03*
X54000000Y-82320000D03*
X54000000Y-84860000D03*
X54000000Y-87400000D03*
X54000000Y-89940000D03*
X54000000Y-92480000D03*
X54000000Y-95020000D03*
%TD*%
D14*
%TO.C,H1*%
X53600000Y-53600000D03*
%TD*%
D12*
%TO.C,J3-DAC1*%
X89570000Y-55335000D03*
D13*
X92110000Y-55335000D03*
X94650000Y-55335000D03*
X97190000Y-55335000D03*
X99730000Y-55335000D03*
X102270000Y-55335000D03*
X104810000Y-55335000D03*
%TD*%
D14*
%TO.C,H4*%
X53600000Y-111400000D03*
%TD*%
D15*
%TO.C,J4*%
X62000000Y-108000000D03*
D16*
X65500000Y-108000000D03*
X69000000Y-108000000D03*
X72500000Y-108000000D03*
X76000000Y-108000000D03*
X79500000Y-108000000D03*
X83000000Y-108000000D03*
X86500000Y-108000000D03*
%TD*%
D14*
%TO.C,H3*%
X111450000Y-111430000D03*
%TD*%
%TO.C,H2*%
X111400000Y-53600000D03*
%TD*%
D12*
%TO.C,J4-IMU1*%
X107009138Y-95394959D03*
D13*
X104469138Y-95394959D03*
X101929138Y-95394959D03*
X99389138Y-95394959D03*
X96849138Y-95394959D03*
X94309138Y-95394959D03*
X91769138Y-95394959D03*
X89229138Y-95394959D03*
%TD*%
%LPD*%
M02*
