%TF.GenerationSoftware,KiCad,Pcbnew,9.0.5*%
%TF.CreationDate,2025-12-28T18:17:11+02:00*%
%TF.ProjectId,base-schematic-02,62617365-2d73-4636-9865-6d617469632d,rev?*%
%TF.SameCoordinates,Original*%
%TF.FileFunction,Copper,L1,Top*%
%TF.FilePolarity,Positive*%
%FSLAX46Y46*%
G04 Gerber Fmt 4.6, Leading zero omitted, Abs format (unit mm)*
G04 Created by KiCad (PCBNEW 9.0.5) date 2025-12-28 18:17:11*
%MOMM*%
%LPD*%
G01*
G04 APERTURE LIST*
G04 Aperture macros list*
%AMRoundRect*
0 Rectangle with rounded corners*
0 $1 Rounding radius*
0 $2 $3 $4 $5 $6 $7 $8 $9 X,Y pos of 4 corners*
0 Add a 4 corners polygon primitive as box body*
4,1,4,$2,$3,$4,$5,$6,$7,$8,$9,$2,$3,0*
0 Add four circle primitives for the rounded corners*
1,1,$1+$1,$2,$3*
1,1,$1+$1,$4,$5*
1,1,$1+$1,$6,$7*
1,1,$1+$1,$8,$9*
0 Add four rect primitives between the rounded corners*
20,1,$1+$1,$2,$3,$4,$5,0*
20,1,$1+$1,$4,$5,$6,$7,0*
20,1,$1+$1,$6,$7,$8,$9,0*
20,1,$1+$1,$8,$9,$2,$3,0*%
G04 Aperture macros list end*
%TA.AperFunction,ComponentPad*%
%ADD10R,1.700000X1.700000*%
%TD*%
%TA.AperFunction,ComponentPad*%
%ADD11C,1.700000*%
%TD*%
%TA.AperFunction,ComponentPad*%
%ADD12RoundRect,0.250001X-0.949999X-0.949999X0.949999X-0.949999X0.949999X0.949999X-0.949999X0.949999X0*%
%TD*%
%TA.AperFunction,ComponentPad*%
%ADD13C,2.400000*%
%TD*%
%TA.AperFunction,ViaPad*%
%ADD14C,0.600000*%
%TD*%
%TA.AperFunction,Conductor*%
%ADD15C,0.500000*%
%TD*%
%TA.AperFunction,Conductor*%
%ADD16C,0.300000*%
%TD*%
G04 APERTURE END LIST*
D10*
%TO.P,J2,1,Pin_1*%
%TO.N,D23*%
X79400000Y-59460000D03*
D11*
%TO.P,J2,2,Pin_2*%
%TO.N,D22*%
X79400000Y-62000000D03*
%TO.P,J2,3,Pin_3*%
%TO.N,unconnected-(J2-Pin_3-Pad3)*%
X79400000Y-64540000D03*
%TO.P,J2,4,Pin_4*%
%TO.N,unconnected-(J2-Pin_4-Pad4)*%
X79400000Y-67080000D03*
%TO.P,J2,5,Pin_5*%
%TO.N,D21*%
X79400000Y-69620000D03*
%TO.P,J2,6,Pin_6*%
%TO.N,D19*%
X79400000Y-72160000D03*
%TO.P,J2,7,Pin_7*%
%TO.N,D18*%
X79400000Y-74700000D03*
%TO.P,J2,8,Pin_8*%
%TO.N,unconnected-(J2-Pin_8-Pad8)*%
X79400000Y-77240000D03*
%TO.P,J2,9,Pin_9*%
%TO.N,unconnected-(J2-Pin_9-Pad9)*%
X79400000Y-79780000D03*
%TO.P,J2,10,Pin_10*%
%TO.N,unconnected-(J2-Pin_10-Pad10)*%
X79400000Y-82320000D03*
%TO.P,J2,11,Pin_11*%
%TO.N,unconnected-(J2-Pin_11-Pad11)*%
X79400000Y-84860000D03*
%TO.P,J2,12,Pin_12*%
%TO.N,unconnected-(J2-Pin_12-Pad12)*%
X79400000Y-87400000D03*
%TO.P,J2,13,Pin_13*%
%TO.N,unconnected-(J2-Pin_13-Pad13)*%
X79400000Y-89940000D03*
%TO.P,J2,14,Pin_14*%
%TO.N,GND*%
X79400000Y-92480000D03*
%TO.P,J2,15,Pin_15*%
%TO.N,3V3*%
X79400000Y-95020000D03*
%TD*%
D10*
%TO.P,J1,1,Pin_1*%
%TO.N,unconnected-(J1-Pin_1-Pad1)*%
X54000000Y-59460000D03*
D11*
%TO.P,J1,2,Pin_2*%
%TO.N,unconnected-(J1-Pin_2-Pad2)*%
X54000000Y-62000000D03*
%TO.P,J1,3,Pin_3*%
%TO.N,unconnected-(J1-Pin_3-Pad3)*%
X54000000Y-64540000D03*
%TO.P,J1,4,Pin_4*%
%TO.N,unconnected-(J1-Pin_4-Pad4)*%
X54000000Y-67080000D03*
%TO.P,J1,5,Pin_5*%
%TO.N,unconnected-(J1-Pin_5-Pad5)*%
X54000000Y-69620000D03*
%TO.P,J1,6,Pin_6*%
%TO.N,D32*%
X54000000Y-72160000D03*
%TO.P,J1,7,Pin_7*%
%TO.N,D33*%
X54000000Y-74700000D03*
%TO.P,J1,8,Pin_8*%
%TO.N,D25*%
X54000000Y-77240000D03*
%TO.P,J1,9,Pin_9*%
%TO.N,D26*%
X54000000Y-79780000D03*
%TO.P,J1,10,Pin_10*%
%TO.N,D27*%
X54000000Y-82320000D03*
%TO.P,J1,11,Pin_11*%
%TO.N,D14*%
X54000000Y-84860000D03*
%TO.P,J1,12,Pin_12*%
%TO.N,D12*%
X54000000Y-87400000D03*
%TO.P,J1,13,Pin_13*%
%TO.N,D13*%
X54000000Y-89940000D03*
%TO.P,J1,14,Pin_14*%
%TO.N,unconnected-(J1-Pin_14-Pad14)*%
X54000000Y-92480000D03*
%TO.P,J1,15,Pin_15*%
%TO.N,VIN*%
X54000000Y-95020000D03*
%TD*%
D10*
%TO.P,J3-DAC1,1,Pin_1*%
%TO.N,D19*%
X89570000Y-55335000D03*
D11*
%TO.P,J3-DAC1,2,Pin_2*%
%TO.N,D18*%
X92110000Y-55335000D03*
%TO.P,J3-DAC1,3,Pin_3*%
%TO.N,D23*%
X94650000Y-55335000D03*
%TO.P,J3-DAC1,4,Pin_4*%
%TO.N,D25*%
X97190000Y-55335000D03*
%TO.P,J3-DAC1,5,Pin_5*%
%TO.N,D21*%
X99730000Y-55335000D03*
%TO.P,J3-DAC1,6,Pin_6*%
%TO.N,GND*%
X102270000Y-55335000D03*
%TO.P,J3-DAC1,7,Pin_7*%
%TO.N,3V3*%
X104810000Y-55335000D03*
%TD*%
D12*
%TO.P,J4,1,Pin_1*%
%TO.N,D12*%
X62000000Y-108000000D03*
D13*
%TO.P,J4,2,Pin_2*%
%TO.N,D14*%
X65500000Y-108000000D03*
%TO.P,J4,3,Pin_3*%
%TO.N,D27*%
X69000000Y-108000000D03*
%TO.P,J4,4,Pin_4*%
%TO.N,D26*%
X72500000Y-108000000D03*
%TO.P,J4,5,Pin_5*%
%TO.N,D33*%
X76000000Y-108000000D03*
%TO.P,J4,6,Pin_6*%
%TO.N,D32*%
X79500000Y-108000000D03*
%TO.P,J4,7,Pin_7*%
%TO.N,VIN*%
X83000000Y-108000000D03*
%TO.P,J4,8,Pin_8*%
%TO.N,GND*%
X86500000Y-108000000D03*
%TD*%
D10*
%TO.P,J4-IMU1,1,Pin_1*%
%TO.N,GND*%
X107009138Y-95394959D03*
D11*
%TO.P,J4-IMU1,2,Pin_2*%
%TO.N,3V3*%
X104469138Y-95394959D03*
%TO.P,J4-IMU1,3,Pin_3*%
%TO.N,unconnected-(J4-IMU1-Pin_3-Pad3)*%
X101929138Y-95394959D03*
%TO.P,J4-IMU1,4,Pin_4*%
%TO.N,unconnected-(J4-IMU1-Pin_4-Pad4)*%
X99389138Y-95394959D03*
%TO.P,J4-IMU1,5,Pin_5*%
%TO.N,unconnected-(J4-IMU1-Pin_5-Pad5)*%
X96849138Y-95394959D03*
%TO.P,J4-IMU1,6,Pin_6*%
%TO.N,unconnected-(J4-IMU1-Pin_6-Pad6)*%
X94309138Y-95394959D03*
%TO.P,J4-IMU1,7,Pin_7*%
%TO.N,D13*%
X91769138Y-95394959D03*
%TO.P,J4-IMU1,8,Pin_8*%
%TO.N,D22*%
X89229138Y-95394959D03*
%TD*%
D14*
%TO.N,D25*%
X56403500Y-77708500D03*
%TO.N,D13*%
X60452000Y-100076000D03*
%TD*%
D15*
%TO.N,GND*%
X86500000Y-99990000D02*
X86500000Y-108000000D01*
X79400000Y-92480000D02*
X79566000Y-92646000D01*
X81090000Y-92646000D02*
X87376000Y-86360000D01*
X79566000Y-92646000D02*
X81090000Y-92646000D01*
X104140000Y-57205000D02*
X102270000Y-55335000D01*
X86500000Y-99990000D02*
X86500000Y-99580000D01*
X87376000Y-86360000D02*
X101092000Y-86360000D01*
X86500000Y-99580000D02*
X79400000Y-92480000D01*
X101092000Y-86360000D02*
X107009138Y-92277138D01*
X104140000Y-83312000D02*
X104140000Y-57205000D01*
X107009138Y-92277138D02*
X107009138Y-95394959D01*
X101092000Y-86360000D02*
X104140000Y-83312000D01*
D16*
%TO.N,D12*%
X58720000Y-87400000D02*
X54000000Y-87400000D01*
X59810000Y-88490000D02*
X58720000Y-87400000D01*
X62000000Y-99065000D02*
X59810000Y-96875000D01*
X62000000Y-108000000D02*
X62000000Y-99065000D01*
X59810000Y-96875000D02*
X59810000Y-88490000D01*
%TO.N,D33*%
X72782000Y-76972000D02*
X70510000Y-74700000D01*
X72782000Y-96875000D02*
X72782000Y-76972000D01*
X76000000Y-100093000D02*
X72782000Y-96875000D01*
X70510000Y-74700000D02*
X54000000Y-74700000D01*
X76000000Y-108000000D02*
X76000000Y-100093000D01*
X54000000Y-74700000D02*
X54000000Y-74240000D01*
%TO.N,D26*%
X69539000Y-82459000D02*
X69539000Y-96875000D01*
X69539000Y-96875000D02*
X72500000Y-99836000D01*
X54000000Y-79780000D02*
X66860000Y-79780000D01*
X72500000Y-99836000D02*
X72500000Y-108000000D01*
X66860000Y-79780000D02*
X69539000Y-82459000D01*
%TO.N,D32*%
X76025000Y-96875000D02*
X79500000Y-100350000D01*
X54000000Y-72160000D02*
X54000000Y-71700000D01*
X79500000Y-100350000D02*
X79500000Y-108000000D01*
X54000000Y-72160000D02*
X74180000Y-72160000D01*
X76025000Y-74005000D02*
X76025000Y-96875000D01*
X74180000Y-72160000D02*
X76025000Y-74005000D01*
%TO.N,D27*%
X66296000Y-96875000D02*
X66296000Y-84816000D01*
X63800000Y-82320000D02*
X54000000Y-82320000D01*
X69000000Y-108000000D02*
X69000000Y-99579000D01*
X66296000Y-84816000D02*
X63800000Y-82320000D01*
X69000000Y-99579000D02*
X66296000Y-96875000D01*
%TO.N,D14*%
X65500000Y-99322000D02*
X65500000Y-108000000D01*
X63053000Y-96875000D02*
X65500000Y-99322000D01*
X63053000Y-86913000D02*
X63053000Y-96875000D01*
X54000000Y-84860000D02*
X61000000Y-84860000D01*
X61000000Y-84860000D02*
X63053000Y-86913000D01*
%TO.N,D25*%
X56403500Y-77708500D02*
X55935000Y-77240000D01*
X55935000Y-77240000D02*
X54000000Y-77240000D01*
%TO.N,D13*%
X57050000Y-91500000D02*
X57050000Y-99060000D01*
X57050000Y-99060000D02*
X58066000Y-100076000D01*
X55490000Y-89940000D02*
X57050000Y-91500000D01*
X58066000Y-100076000D02*
X60452000Y-100076000D01*
X54000000Y-89940000D02*
X55490000Y-89940000D01*
%TO.N,VIN*%
X54200000Y-95220000D02*
X54000000Y-95020000D01*
%TO.N,D21*%
X79400000Y-69620000D02*
X92080000Y-69620000D01*
X92080000Y-69620000D02*
X99740000Y-61960000D01*
X99730000Y-61950000D02*
X99730000Y-55335000D01*
X99740000Y-61960000D02*
X99730000Y-61950000D01*
%TO.N,D23*%
X86900000Y-59460000D02*
X79400000Y-59460000D01*
X86900000Y-59460000D02*
X90525000Y-59460000D01*
X90525000Y-59460000D02*
X94650000Y-55335000D01*
%TO.N,D22*%
X108204000Y-98552000D02*
X90354179Y-98552000D01*
X89408000Y-95216097D02*
X89229138Y-95394959D01*
X107188000Y-85852000D02*
X109220000Y-87884000D01*
X107188000Y-54864000D02*
X107188000Y-85852000D01*
X89408000Y-97605821D02*
X89408000Y-95573821D01*
X83426000Y-52832000D02*
X105156000Y-52832000D01*
X79400000Y-62000000D02*
X78099000Y-60699000D01*
X109220000Y-87884000D02*
X109220000Y-97536000D01*
X90354179Y-98552000D02*
X89408000Y-97605821D01*
X105156000Y-52832000D02*
X107188000Y-54864000D01*
X89408000Y-95573821D02*
X89229138Y-95394959D01*
X78099000Y-58159000D02*
X83426000Y-52832000D01*
X78099000Y-60699000D02*
X78099000Y-58159000D01*
X109220000Y-97536000D02*
X108204000Y-98552000D01*
%TO.N,D19*%
X79400000Y-72160000D02*
X79490000Y-72160000D01*
%TD*%
M02*
