%TF.GenerationSoftware,KiCad,Pcbnew,9.0.5*%
%TF.CreationDate,2025-12-28T15:34:22+02:00*%
%TF.ProjectId,base-schematic-02,62617365-2d73-4636-9865-6d617469632d,rev?*%
%TF.SameCoordinates,Original*%
%TF.FileFunction,Copper,L2,Bot*%
%TF.FilePolarity,Positive*%
%FSLAX46Y46*%
G04 Gerber Fmt 4.6, Leading zero omitted, Abs format (unit mm)*
G04 Created by KiCad (PCBNEW 9.0.5) date 2025-12-28 15:34:22*
%MOMM*%
%LPD*%
G01*
G04 APERTURE LIST*
G04 Aperture macros list*
%AMRoundRect*
0 Rectangle with rounded corners*
0 $1 Rounding radius*
0 $2 $3 $4 $5 $6 $7 $8 $9 X,Y pos of 4 corners*
0 Add a 4 corners polygon primitive as box body*
4,1,4,$2,$3,$4,$5,$6,$7,$8,$9,$2,$3,0*
0 Add four circle primitives for the rounded corners*
1,1,$1+$1,$2,$3*
1,1,$1+$1,$4,$5*
1,1,$1+$1,$6,$7*
1,1,$1+$1,$8,$9*
0 Add four rect primitives between the rounded corners*
20,1,$1+$1,$2,$3,$4,$5,0*
20,1,$1+$1,$4,$5,$6,$7,0*
20,1,$1+$1,$6,$7,$8,$9,0*
20,1,$1+$1,$8,$9,$2,$3,0*%
G04 Aperture macros list end*
%TA.AperFunction,ComponentPad*%
%ADD10R,1.700000X1.700000*%
%TD*%
%TA.AperFunction,ComponentPad*%
%ADD11C,1.700000*%
%TD*%
%TA.AperFunction,ComponentPad*%
%ADD12C,1.600000*%
%TD*%
%TA.AperFunction,ComponentPad*%
%ADD13RoundRect,0.250001X-0.949999X-0.949999X0.949999X-0.949999X0.949999X0.949999X-0.949999X0.949999X0*%
%TD*%
%TA.AperFunction,ComponentPad*%
%ADD14C,2.400000*%
%TD*%
%TA.AperFunction,ViaPad*%
%ADD15C,0.600000*%
%TD*%
%TA.AperFunction,Conductor*%
%ADD16C,0.300000*%
%TD*%
%TA.AperFunction,Conductor*%
%ADD17C,0.500000*%
%TD*%
G04 APERTURE END LIST*
D10*
%TO.P,J2,1,Pin_1*%
%TO.N,D23*%
X79400000Y-59460000D03*
D11*
%TO.P,J2,2,Pin_2*%
%TO.N,D22*%
X79400000Y-62000000D03*
%TO.P,J2,3,Pin_3*%
%TO.N,unconnected-(J2-Pin_3-Pad3)*%
X79400000Y-64540000D03*
%TO.P,J2,4,Pin_4*%
%TO.N,unconnected-(J2-Pin_4-Pad4)*%
X79400000Y-67080000D03*
%TO.P,J2,5,Pin_5*%
%TO.N,D21*%
X79400000Y-69620000D03*
%TO.P,J2,6,Pin_6*%
%TO.N,D19*%
X79400000Y-72160000D03*
%TO.P,J2,7,Pin_7*%
%TO.N,D18*%
X79400000Y-74700000D03*
%TO.P,J2,8,Pin_8*%
%TO.N,unconnected-(J2-Pin_8-Pad8)*%
X79400000Y-77240000D03*
%TO.P,J2,9,Pin_9*%
%TO.N,unconnected-(J2-Pin_9-Pad9)*%
X79400000Y-79780000D03*
%TO.P,J2,10,Pin_10*%
%TO.N,unconnected-(J2-Pin_10-Pad10)*%
X79400000Y-82320000D03*
%TO.P,J2,11,Pin_11*%
%TO.N,unconnected-(J2-Pin_11-Pad11)*%
X79400000Y-84860000D03*
%TO.P,J2,12,Pin_12*%
%TO.N,unconnected-(J2-Pin_12-Pad12)*%
X79400000Y-87400000D03*
%TO.P,J2,13,Pin_13*%
%TO.N,unconnected-(J2-Pin_13-Pad13)*%
X79400000Y-89940000D03*
%TO.P,J2,14,Pin_14*%
%TO.N,GND*%
X79400000Y-92480000D03*
%TO.P,J2,15,Pin_15*%
%TO.N,3V3*%
X79400000Y-95020000D03*
%TD*%
D10*
%TO.P,J1,1,Pin_1*%
%TO.N,unconnected-(J1-Pin_1-Pad1)*%
X54000000Y-59460000D03*
D11*
%TO.P,J1,2,Pin_2*%
%TO.N,unconnected-(J1-Pin_2-Pad2)*%
X54000000Y-62000000D03*
%TO.P,J1,3,Pin_3*%
%TO.N,unconnected-(J1-Pin_3-Pad3)*%
X54000000Y-64540000D03*
%TO.P,J1,4,Pin_4*%
%TO.N,unconnected-(J1-Pin_4-Pad4)*%
X54000000Y-67080000D03*
%TO.P,J1,5,Pin_5*%
%TO.N,unconnected-(J1-Pin_5-Pad5)*%
X54000000Y-69620000D03*
%TO.P,J1,6,Pin_6*%
%TO.N,D32*%
X54000000Y-72160000D03*
%TO.P,J1,7,Pin_7*%
%TO.N,D33*%
X54000000Y-74700000D03*
%TO.P,J1,8,Pin_8*%
%TO.N,D25*%
X54000000Y-77240000D03*
%TO.P,J1,9,Pin_9*%
%TO.N,D26*%
X54000000Y-79780000D03*
%TO.P,J1,10,Pin_10*%
%TO.N,D27*%
X54000000Y-82320000D03*
%TO.P,J1,11,Pin_11*%
%TO.N,D14*%
X54000000Y-84860000D03*
%TO.P,J1,12,Pin_12*%
%TO.N,D12*%
X54000000Y-87400000D03*
%TO.P,J1,13,Pin_13*%
%TO.N,D13*%
X54000000Y-89940000D03*
%TO.P,J1,14,Pin_14*%
%TO.N,unconnected-(J1-Pin_14-Pad14)*%
X54000000Y-92480000D03*
%TO.P,J1,15,Pin_15*%
%TO.N,VIN*%
X54000000Y-95020000D03*
%TD*%
D12*
%TO.P,R2,1*%
%TO.N,D33*%
X63053000Y-89255000D03*
%TO.P,R2,2*%
%TO.N,Net-(J4-Pin_2)*%
X63053000Y-96875000D03*
%TD*%
%TO.P,R1,1*%
%TO.N,D32*%
X59810000Y-89255000D03*
%TO.P,R1,2*%
%TO.N,Net-(J4-Pin_1)*%
X59810000Y-96875000D03*
%TD*%
D10*
%TO.P,J3-DAC1,1,Pin_1*%
%TO.N,D19*%
X90750000Y-55325000D03*
D11*
%TO.P,J3-DAC1,2,Pin_2*%
%TO.N,D18*%
X93290000Y-55325000D03*
%TO.P,J3-DAC1,3,Pin_3*%
%TO.N,D23*%
X95830000Y-55325000D03*
%TO.P,J3-DAC1,4,Pin_4*%
%TO.N,D25*%
X98370000Y-55325000D03*
%TO.P,J3-DAC1,5,Pin_5*%
%TO.N,D21*%
X100910000Y-55325000D03*
%TO.P,J3-DAC1,6,Pin_6*%
%TO.N,GND*%
X103450000Y-55325000D03*
%TO.P,J3-DAC1,7,Pin_7*%
%TO.N,3V3*%
X105990000Y-55325000D03*
%TD*%
D12*
%TO.P,R4,1*%
%TO.N,D27*%
X69539000Y-89255000D03*
%TO.P,R4,2*%
%TO.N,Net-(J4-Pin_4)*%
X69539000Y-96875000D03*
%TD*%
%TO.P,C2,1*%
%TO.N,VIN*%
X96160000Y-107270000D03*
%TO.P,C2,2*%
%TO.N,GND*%
X101160000Y-107270000D03*
%TD*%
%TO.P,R6,1*%
%TO.N,D12*%
X76025000Y-89255000D03*
%TO.P,R6,2*%
%TO.N,Net-(J4-Pin_6)*%
X76025000Y-96875000D03*
%TD*%
%TO.P,R5,1*%
%TO.N,D14*%
X72782000Y-89255000D03*
%TO.P,R5,2*%
%TO.N,Net-(J4-Pin_5)*%
X72782000Y-96875000D03*
%TD*%
%TO.P,R3,1*%
%TO.N,D26*%
X66296000Y-89255000D03*
%TO.P,R3,2*%
%TO.N,Net-(J4-Pin_3)*%
X66296000Y-96875000D03*
%TD*%
D13*
%TO.P,J4,1,Pin_1*%
%TO.N,Net-(J4-Pin_1)*%
X62000000Y-108000000D03*
D14*
%TO.P,J4,2,Pin_2*%
%TO.N,Net-(J4-Pin_2)*%
X65500000Y-108000000D03*
%TO.P,J4,3,Pin_3*%
%TO.N,Net-(J4-Pin_3)*%
X69000000Y-108000000D03*
%TO.P,J4,4,Pin_4*%
%TO.N,Net-(J4-Pin_4)*%
X72500000Y-108000000D03*
%TO.P,J4,5,Pin_5*%
%TO.N,Net-(J4-Pin_5)*%
X76000000Y-108000000D03*
%TO.P,J4,6,Pin_6*%
%TO.N,Net-(J4-Pin_6)*%
X79500000Y-108000000D03*
%TO.P,J4,7,Pin_7*%
%TO.N,VIN*%
X83000000Y-108000000D03*
%TO.P,J4,8,Pin_8*%
%TO.N,GND*%
X86500000Y-108000000D03*
%TD*%
D10*
%TO.P,J4-IMU1,1,Pin_1*%
%TO.N,GND*%
X107009138Y-95394959D03*
D11*
%TO.P,J4-IMU1,2,Pin_2*%
%TO.N,3V3*%
X104469138Y-95394959D03*
%TO.P,J4-IMU1,3,Pin_3*%
%TO.N,unconnected-(J4-IMU1-Pin_3-Pad3)*%
X101929138Y-95394959D03*
%TO.P,J4-IMU1,4,Pin_4*%
%TO.N,unconnected-(J4-IMU1-Pin_4-Pad4)*%
X99389138Y-95394959D03*
%TO.P,J4-IMU1,5,Pin_5*%
%TO.N,unconnected-(J4-IMU1-Pin_5-Pad5)*%
X96849138Y-95394959D03*
%TO.P,J4-IMU1,6,Pin_6*%
%TO.N,unconnected-(J4-IMU1-Pin_6-Pad6)*%
X94309138Y-95394959D03*
%TO.P,J4-IMU1,7,Pin_7*%
%TO.N,D13*%
X91769138Y-95394959D03*
%TO.P,J4-IMU1,8,Pin_8*%
%TO.N,D22*%
X89229138Y-95394959D03*
%TD*%
D15*
%TO.N,D32*%
X59120000Y-76730000D03*
%TO.N,D26*%
X57330000Y-79910000D03*
X64860000Y-81220000D03*
%TO.N,D27*%
X57070000Y-82420000D03*
X66380000Y-82490000D03*
%TO.N,D14*%
X57020000Y-85250000D03*
X70290000Y-85290000D03*
%TO.N,D12*%
X57020000Y-87470000D03*
X74710000Y-87520000D03*
%TO.N,D25*%
X55950000Y-77225000D03*
X56225000Y-90550000D03*
X57450000Y-99050000D03*
%TO.N,D13*%
X92101041Y-101898959D03*
X55500000Y-101500000D03*
%TO.N,VIN*%
X84000000Y-104000000D03*
%TO.N,D21*%
X101025000Y-60450000D03*
%TO.N,D22*%
X99175000Y-85500000D03*
%TO.N,3V3*%
X105990000Y-67685000D03*
X103375000Y-98625000D03*
X104469138Y-75894138D03*
%TO.N,D18*%
X92425000Y-62050000D03*
%TO.N,D19*%
X86825000Y-61075000D03*
%TD*%
D16*
%TO.N,D32*%
X59120000Y-76650000D02*
X54630000Y-72160000D01*
X59120000Y-76730000D02*
X59120000Y-76650000D01*
X54630000Y-72160000D02*
X54000000Y-72160000D01*
%TO.N,D26*%
X63810000Y-79910000D02*
X57330000Y-79910000D01*
X64070000Y-80170000D02*
X63810000Y-79910000D01*
X64860000Y-81220000D02*
X64860000Y-80960000D01*
X64860000Y-80960000D02*
X64070000Y-80170000D01*
%TO.N,D27*%
X57140000Y-82490000D02*
X57070000Y-82420000D01*
X66380000Y-82490000D02*
X57140000Y-82490000D01*
%TO.N,D14*%
X57060000Y-85290000D02*
X57020000Y-85250000D01*
X70290000Y-85290000D02*
X57060000Y-85290000D01*
%TO.N,D12*%
X57070000Y-87520000D02*
X57020000Y-87470000D01*
X74710000Y-87520000D02*
X57070000Y-87520000D01*
%TO.N,D25*%
X57450000Y-99050000D02*
X58500000Y-100100000D01*
X58500000Y-100100000D02*
X108575000Y-100100000D01*
X98600322Y-55555322D02*
X98370000Y-55555322D01*
X56225000Y-90550000D02*
X56225000Y-77500000D01*
X110750000Y-67705000D02*
X98600322Y-55555322D01*
X110750000Y-97925000D02*
X110750000Y-67705000D01*
X56225000Y-77500000D02*
X55950000Y-77225000D01*
X108575000Y-100100000D02*
X110750000Y-97925000D01*
%TO.N,D13*%
X55898959Y-101898959D02*
X92101041Y-101898959D01*
X55500000Y-101500000D02*
X55898959Y-101898959D01*
D17*
%TO.N,VIN*%
X58000000Y-110130000D02*
X59260000Y-111390000D01*
X54000000Y-100000000D02*
X54000000Y-104000000D01*
X92470000Y-111390000D02*
X96160000Y-107700000D01*
X96160000Y-107700000D02*
X96160000Y-107270000D01*
X92890000Y-104000000D02*
X84000000Y-104000000D01*
X59260000Y-111390000D02*
X92470000Y-111390000D01*
X96160000Y-107270000D02*
X92890000Y-104000000D01*
X54000000Y-104000000D02*
X58000000Y-108000000D01*
X54000000Y-100000000D02*
X54000000Y-95020000D01*
X58000000Y-108000000D02*
X58000000Y-110130000D01*
D16*
%TO.N,D21*%
X101025000Y-60450000D02*
X101025000Y-65900000D01*
X81220000Y-67800000D02*
X79781630Y-69238370D01*
X99125000Y-67800000D02*
X81220000Y-67800000D01*
X79781630Y-69238370D02*
X79781630Y-69620000D01*
X101025000Y-65900000D02*
X99125000Y-67800000D01*
%TO.N,D22*%
X86300000Y-65000000D02*
X83300000Y-62000000D01*
X97875000Y-59975000D02*
X97875000Y-62325000D01*
X86300000Y-65050000D02*
X86300000Y-65000000D01*
X100450000Y-58675000D02*
X99175000Y-58675000D01*
X107800000Y-76875000D02*
X107800000Y-66025000D01*
X97875000Y-62325000D02*
X95150000Y-65050000D01*
X107800000Y-66025000D02*
X100450000Y-58675000D01*
X95150000Y-65050000D02*
X86300000Y-65050000D01*
X99175000Y-58675000D02*
X97875000Y-59975000D01*
X83300000Y-62000000D02*
X79400000Y-62000000D01*
X99175000Y-85500000D02*
X107800000Y-76875000D01*
D17*
%TO.N,3V3*%
X104450000Y-69225000D02*
X105925000Y-67750000D01*
X83005000Y-98625000D02*
X79400000Y-95020000D01*
X104450000Y-75875000D02*
X104450000Y-69225000D01*
X103375000Y-98625000D02*
X83005000Y-98625000D01*
D16*
%TO.N,D18*%
X92425000Y-62050000D02*
X93275000Y-61200000D01*
X93275000Y-55555322D02*
X93290000Y-55555322D01*
X93275000Y-61200000D02*
X93275000Y-55555322D01*
%TO.N,D19*%
X90750000Y-59850000D02*
X90750000Y-55325000D01*
X87000000Y-60900000D02*
X89700000Y-60900000D01*
X89700000Y-60900000D02*
X90750000Y-59850000D01*
X86825000Y-61075000D02*
X87000000Y-60900000D01*
%TO.N,D12*%
X75975000Y-88921387D02*
X76025000Y-88921387D01*
%TD*%
M02*
