%TF.GenerationSoftware,KiCad,Pcbnew,9.0.5*%
%TF.CreationDate,2025-12-28T15:22:45+02:00*%
%TF.ProjectId,base-schematic-02,62617365-2d73-4636-9865-6d617469632d,rev?*%
%TF.SameCoordinates,Original*%
%TF.FileFunction,Legend,Top*%
%TF.FilePolarity,Positive*%
%FSLAX46Y46*%
G04 Gerber Fmt 4.6, Leading zero omitted, Abs format (unit mm)*
G04 Created by KiCad (PCBNEW 9.0.5) date 2025-12-28 15:22:45*
%MOMM*%
%LPD*%
G01*
G04 APERTURE LIST*
G04 Aperture macros list*
%AMRoundRect*
0 Rectangle with rounded corners*
0 $1 Rounding radius*
0 $2 $3 $4 $5 $6 $7 $8 $9 X,Y pos of 4 corners*
0 Add a 4 corners polygon primitive as box body*
4,1,4,$2,$3,$4,$5,$6,$7,$8,$9,$2,$3,0*
0 Add four circle primitives for the rounded corners*
1,1,$1+$1,$2,$3*
1,1,$1+$1,$4,$5*
1,1,$1+$1,$6,$7*
1,1,$1+$1,$8,$9*
0 Add four rect primitives between the rounded corners*
20,1,$1+$1,$2,$3,$4,$5,0*
20,1,$1+$1,$4,$5,$6,$7,0*
20,1,$1+$1,$6,$7,$8,$9,0*
20,1,$1+$1,$8,$9,$2,$3,0*%
G04 Aperture macros list end*
%ADD10C,0.200000*%
%ADD11C,0.150000*%
%ADD12C,0.120000*%
%ADD13R,1.700000X1.700000*%
%ADD14C,1.700000*%
%ADD15C,3.200000*%
%ADD16RoundRect,0.250001X-0.949999X-0.949999X0.949999X-0.949999X0.949999X0.949999X-0.949999X0.949999X0*%
%ADD17C,2.400000*%
G04 APERTURE END LIST*
D10*
X87709138Y-82394959D02*
X108709138Y-82394959D01*
X108709138Y-97394959D01*
X87709138Y-97394959D01*
X87709138Y-82394959D01*
X84450000Y-58025000D02*
X109450000Y-58025000D01*
X109450000Y-93025000D01*
X84450000Y-93025000D01*
X84450000Y-58025000D01*
X52000000Y-53460000D02*
X81000000Y-53460000D01*
X81000000Y-106460000D01*
X52000000Y-106460000D01*
X52000000Y-53460000D01*
X89130000Y-53325000D02*
X107630000Y-53325000D01*
X107630000Y-71325000D01*
X89130000Y-71325000D01*
X89130000Y-53325000D01*
D11*
X64588095Y-55531009D02*
X64921428Y-55531009D01*
X65064285Y-56054819D02*
X64588095Y-56054819D01*
X64588095Y-56054819D02*
X64588095Y-55054819D01*
X64588095Y-55054819D02*
X65064285Y-55054819D01*
X65445238Y-56007200D02*
X65588095Y-56054819D01*
X65588095Y-56054819D02*
X65826190Y-56054819D01*
X65826190Y-56054819D02*
X65921428Y-56007200D01*
X65921428Y-56007200D02*
X65969047Y-55959580D01*
X65969047Y-55959580D02*
X66016666Y-55864342D01*
X66016666Y-55864342D02*
X66016666Y-55769104D01*
X66016666Y-55769104D02*
X65969047Y-55673866D01*
X65969047Y-55673866D02*
X65921428Y-55626247D01*
X65921428Y-55626247D02*
X65826190Y-55578628D01*
X65826190Y-55578628D02*
X65635714Y-55531009D01*
X65635714Y-55531009D02*
X65540476Y-55483390D01*
X65540476Y-55483390D02*
X65492857Y-55435771D01*
X65492857Y-55435771D02*
X65445238Y-55340533D01*
X65445238Y-55340533D02*
X65445238Y-55245295D01*
X65445238Y-55245295D02*
X65492857Y-55150057D01*
X65492857Y-55150057D02*
X65540476Y-55102438D01*
X65540476Y-55102438D02*
X65635714Y-55054819D01*
X65635714Y-55054819D02*
X65873809Y-55054819D01*
X65873809Y-55054819D02*
X66016666Y-55102438D01*
X66445238Y-56054819D02*
X66445238Y-55054819D01*
X66445238Y-55054819D02*
X66826190Y-55054819D01*
X66826190Y-55054819D02*
X66921428Y-55102438D01*
X66921428Y-55102438D02*
X66969047Y-55150057D01*
X66969047Y-55150057D02*
X67016666Y-55245295D01*
X67016666Y-55245295D02*
X67016666Y-55388152D01*
X67016666Y-55388152D02*
X66969047Y-55483390D01*
X66969047Y-55483390D02*
X66921428Y-55531009D01*
X66921428Y-55531009D02*
X66826190Y-55578628D01*
X66826190Y-55578628D02*
X66445238Y-55578628D01*
X67445238Y-55673866D02*
X68207143Y-55673866D01*
X68588095Y-55054819D02*
X69207142Y-55054819D01*
X69207142Y-55054819D02*
X68873809Y-55435771D01*
X68873809Y-55435771D02*
X69016666Y-55435771D01*
X69016666Y-55435771D02*
X69111904Y-55483390D01*
X69111904Y-55483390D02*
X69159523Y-55531009D01*
X69159523Y-55531009D02*
X69207142Y-55626247D01*
X69207142Y-55626247D02*
X69207142Y-55864342D01*
X69207142Y-55864342D02*
X69159523Y-55959580D01*
X69159523Y-55959580D02*
X69111904Y-56007200D01*
X69111904Y-56007200D02*
X69016666Y-56054819D01*
X69016666Y-56054819D02*
X68730952Y-56054819D01*
X68730952Y-56054819D02*
X68635714Y-56007200D01*
X68635714Y-56007200D02*
X68588095Y-55959580D01*
X69588095Y-55150057D02*
X69635714Y-55102438D01*
X69635714Y-55102438D02*
X69730952Y-55054819D01*
X69730952Y-55054819D02*
X69969047Y-55054819D01*
X69969047Y-55054819D02*
X70064285Y-55102438D01*
X70064285Y-55102438D02*
X70111904Y-55150057D01*
X70111904Y-55150057D02*
X70159523Y-55245295D01*
X70159523Y-55245295D02*
X70159523Y-55340533D01*
X70159523Y-55340533D02*
X70111904Y-55483390D01*
X70111904Y-55483390D02*
X69540476Y-56054819D01*
X69540476Y-56054819D02*
X70159523Y-56054819D01*
X95380952Y-77757200D02*
X95523809Y-77804819D01*
X95523809Y-77804819D02*
X95761904Y-77804819D01*
X95761904Y-77804819D02*
X95857142Y-77757200D01*
X95857142Y-77757200D02*
X95904761Y-77709580D01*
X95904761Y-77709580D02*
X95952380Y-77614342D01*
X95952380Y-77614342D02*
X95952380Y-77519104D01*
X95952380Y-77519104D02*
X95904761Y-77423866D01*
X95904761Y-77423866D02*
X95857142Y-77376247D01*
X95857142Y-77376247D02*
X95761904Y-77328628D01*
X95761904Y-77328628D02*
X95571428Y-77281009D01*
X95571428Y-77281009D02*
X95476190Y-77233390D01*
X95476190Y-77233390D02*
X95428571Y-77185771D01*
X95428571Y-77185771D02*
X95380952Y-77090533D01*
X95380952Y-77090533D02*
X95380952Y-76995295D01*
X95380952Y-76995295D02*
X95428571Y-76900057D01*
X95428571Y-76900057D02*
X95476190Y-76852438D01*
X95476190Y-76852438D02*
X95571428Y-76804819D01*
X95571428Y-76804819D02*
X95809523Y-76804819D01*
X95809523Y-76804819D02*
X95952380Y-76852438D01*
X96380952Y-77804819D02*
X96380952Y-76804819D01*
X96380952Y-76804819D02*
X96761904Y-76804819D01*
X96761904Y-76804819D02*
X96857142Y-76852438D01*
X96857142Y-76852438D02*
X96904761Y-76900057D01*
X96904761Y-76900057D02*
X96952380Y-76995295D01*
X96952380Y-76995295D02*
X96952380Y-77138152D01*
X96952380Y-77138152D02*
X96904761Y-77233390D01*
X96904761Y-77233390D02*
X96857142Y-77281009D01*
X96857142Y-77281009D02*
X96761904Y-77328628D01*
X96761904Y-77328628D02*
X96380952Y-77328628D01*
X97380952Y-77281009D02*
X97714285Y-77281009D01*
X97857142Y-77804819D02*
X97380952Y-77804819D01*
X97380952Y-77804819D02*
X97380952Y-76804819D01*
X97380952Y-76804819D02*
X97857142Y-76804819D01*
X98238095Y-77519104D02*
X98714285Y-77519104D01*
X98142857Y-77804819D02*
X98476190Y-76804819D01*
X98476190Y-76804819D02*
X98809523Y-77804819D01*
X99142857Y-77804819D02*
X99142857Y-76804819D01*
X99714285Y-77804819D02*
X99285714Y-77233390D01*
X99714285Y-76804819D02*
X99142857Y-77376247D01*
X100142857Y-77281009D02*
X100476190Y-77281009D01*
X100619047Y-77804819D02*
X100142857Y-77804819D01*
X100142857Y-77804819D02*
X100142857Y-76804819D01*
X100142857Y-76804819D02*
X100619047Y-76804819D01*
X101619047Y-77804819D02*
X101285714Y-77328628D01*
X101047619Y-77804819D02*
X101047619Y-76804819D01*
X101047619Y-76804819D02*
X101428571Y-76804819D01*
X101428571Y-76804819D02*
X101523809Y-76852438D01*
X101523809Y-76852438D02*
X101571428Y-76900057D01*
X101571428Y-76900057D02*
X101619047Y-76995295D01*
X101619047Y-76995295D02*
X101619047Y-77138152D01*
X101619047Y-77138152D02*
X101571428Y-77233390D01*
X101571428Y-77233390D02*
X101523809Y-77281009D01*
X101523809Y-77281009D02*
X101428571Y-77328628D01*
X101428571Y-77328628D02*
X101047619Y-77328628D01*
X79066666Y-56144819D02*
X79066666Y-56859104D01*
X79066666Y-56859104D02*
X79019047Y-57001961D01*
X79019047Y-57001961D02*
X78923809Y-57097200D01*
X78923809Y-57097200D02*
X78780952Y-57144819D01*
X78780952Y-57144819D02*
X78685714Y-57144819D01*
X79495238Y-56240057D02*
X79542857Y-56192438D01*
X79542857Y-56192438D02*
X79638095Y-56144819D01*
X79638095Y-56144819D02*
X79876190Y-56144819D01*
X79876190Y-56144819D02*
X79971428Y-56192438D01*
X79971428Y-56192438D02*
X80019047Y-56240057D01*
X80019047Y-56240057D02*
X80066666Y-56335295D01*
X80066666Y-56335295D02*
X80066666Y-56430533D01*
X80066666Y-56430533D02*
X80019047Y-56573390D01*
X80019047Y-56573390D02*
X79447619Y-57144819D01*
X79447619Y-57144819D02*
X80066666Y-57144819D01*
X53666666Y-56144819D02*
X53666666Y-56859104D01*
X53666666Y-56859104D02*
X53619047Y-57001961D01*
X53619047Y-57001961D02*
X53523809Y-57097200D01*
X53523809Y-57097200D02*
X53380952Y-57144819D01*
X53380952Y-57144819D02*
X53285714Y-57144819D01*
X54666666Y-57144819D02*
X54095238Y-57144819D01*
X54380952Y-57144819D02*
X54380952Y-56144819D01*
X54380952Y-56144819D02*
X54285714Y-56287676D01*
X54285714Y-56287676D02*
X54190476Y-56382914D01*
X54190476Y-56382914D02*
X54095238Y-56430533D01*
X94517857Y-69779819D02*
X94517857Y-70494104D01*
X94517857Y-70494104D02*
X94470238Y-70636961D01*
X94470238Y-70636961D02*
X94375000Y-70732200D01*
X94375000Y-70732200D02*
X94232143Y-70779819D01*
X94232143Y-70779819D02*
X94136905Y-70779819D01*
X94898810Y-69779819D02*
X95517857Y-69779819D01*
X95517857Y-69779819D02*
X95184524Y-70160771D01*
X95184524Y-70160771D02*
X95327381Y-70160771D01*
X95327381Y-70160771D02*
X95422619Y-70208390D01*
X95422619Y-70208390D02*
X95470238Y-70256009D01*
X95470238Y-70256009D02*
X95517857Y-70351247D01*
X95517857Y-70351247D02*
X95517857Y-70589342D01*
X95517857Y-70589342D02*
X95470238Y-70684580D01*
X95470238Y-70684580D02*
X95422619Y-70732200D01*
X95422619Y-70732200D02*
X95327381Y-70779819D01*
X95327381Y-70779819D02*
X95041667Y-70779819D01*
X95041667Y-70779819D02*
X94946429Y-70732200D01*
X94946429Y-70732200D02*
X94898810Y-70684580D01*
X95946429Y-70398866D02*
X96708334Y-70398866D01*
X97184524Y-70779819D02*
X97184524Y-69779819D01*
X97184524Y-69779819D02*
X97422619Y-69779819D01*
X97422619Y-69779819D02*
X97565476Y-69827438D01*
X97565476Y-69827438D02*
X97660714Y-69922676D01*
X97660714Y-69922676D02*
X97708333Y-70017914D01*
X97708333Y-70017914D02*
X97755952Y-70208390D01*
X97755952Y-70208390D02*
X97755952Y-70351247D01*
X97755952Y-70351247D02*
X97708333Y-70541723D01*
X97708333Y-70541723D02*
X97660714Y-70636961D01*
X97660714Y-70636961D02*
X97565476Y-70732200D01*
X97565476Y-70732200D02*
X97422619Y-70779819D01*
X97422619Y-70779819D02*
X97184524Y-70779819D01*
X98136905Y-70494104D02*
X98613095Y-70494104D01*
X98041667Y-70779819D02*
X98375000Y-69779819D01*
X98375000Y-69779819D02*
X98708333Y-70779819D01*
X99613095Y-70684580D02*
X99565476Y-70732200D01*
X99565476Y-70732200D02*
X99422619Y-70779819D01*
X99422619Y-70779819D02*
X99327381Y-70779819D01*
X99327381Y-70779819D02*
X99184524Y-70732200D01*
X99184524Y-70732200D02*
X99089286Y-70636961D01*
X99089286Y-70636961D02*
X99041667Y-70541723D01*
X99041667Y-70541723D02*
X98994048Y-70351247D01*
X98994048Y-70351247D02*
X98994048Y-70208390D01*
X98994048Y-70208390D02*
X99041667Y-70017914D01*
X99041667Y-70017914D02*
X99089286Y-69922676D01*
X99089286Y-69922676D02*
X99184524Y-69827438D01*
X99184524Y-69827438D02*
X99327381Y-69779819D01*
X99327381Y-69779819D02*
X99422619Y-69779819D01*
X99422619Y-69779819D02*
X99565476Y-69827438D01*
X99565476Y-69827438D02*
X99613095Y-69875057D01*
X100565476Y-70779819D02*
X99994048Y-70779819D01*
X100279762Y-70779819D02*
X100279762Y-69779819D01*
X100279762Y-69779819D02*
X100184524Y-69922676D01*
X100184524Y-69922676D02*
X100089286Y-70017914D01*
X100089286Y-70017914D02*
X99994048Y-70065533D01*
X66136666Y-98214819D02*
X66136666Y-98929104D01*
X66136666Y-98929104D02*
X66089047Y-99071961D01*
X66089047Y-99071961D02*
X65993809Y-99167200D01*
X65993809Y-99167200D02*
X65850952Y-99214819D01*
X65850952Y-99214819D02*
X65755714Y-99214819D01*
X67041428Y-98548152D02*
X67041428Y-99214819D01*
X66803333Y-98167200D02*
X66565238Y-98881485D01*
X66565238Y-98881485D02*
X67184285Y-98881485D01*
X95707233Y-82849778D02*
X95707233Y-83564063D01*
X95707233Y-83564063D02*
X95659614Y-83706920D01*
X95659614Y-83706920D02*
X95564376Y-83802159D01*
X95564376Y-83802159D02*
X95421519Y-83849778D01*
X95421519Y-83849778D02*
X95326281Y-83849778D01*
X96611995Y-83183111D02*
X96611995Y-83849778D01*
X96373900Y-82802159D02*
X96135805Y-83516444D01*
X96135805Y-83516444D02*
X96754852Y-83516444D01*
X97135805Y-83468825D02*
X97897710Y-83468825D01*
X98373900Y-83849778D02*
X98373900Y-82849778D01*
X98850090Y-83849778D02*
X98850090Y-82849778D01*
X98850090Y-82849778D02*
X99183423Y-83564063D01*
X99183423Y-83564063D02*
X99516756Y-82849778D01*
X99516756Y-82849778D02*
X99516756Y-83849778D01*
X99992947Y-82849778D02*
X99992947Y-83659301D01*
X99992947Y-83659301D02*
X100040566Y-83754539D01*
X100040566Y-83754539D02*
X100088185Y-83802159D01*
X100088185Y-83802159D02*
X100183423Y-83849778D01*
X100183423Y-83849778D02*
X100373899Y-83849778D01*
X100373899Y-83849778D02*
X100469137Y-83802159D01*
X100469137Y-83802159D02*
X100516756Y-83754539D01*
X100516756Y-83754539D02*
X100564375Y-83659301D01*
X100564375Y-83659301D02*
X100564375Y-82849778D01*
X101564375Y-83849778D02*
X100992947Y-83849778D01*
X101278661Y-83849778D02*
X101278661Y-82849778D01*
X101278661Y-82849778D02*
X101183423Y-82992635D01*
X101183423Y-82992635D02*
X101088185Y-83087873D01*
X101088185Y-83087873D02*
X100992947Y-83135492D01*
D12*
%TO.C,J2*%
X78070000Y-60730000D02*
X78070000Y-96350000D01*
X78070000Y-60730000D02*
X80730000Y-60730000D01*
X78070000Y-96350000D02*
X80730000Y-96350000D01*
X79400000Y-58130000D02*
X80730000Y-58130000D01*
X80730000Y-58130000D02*
X80730000Y-59460000D01*
X80730000Y-60730000D02*
X80730000Y-96350000D01*
%TO.C,J1*%
X52670000Y-60730000D02*
X52670000Y-96350000D01*
X52670000Y-60730000D02*
X55330000Y-60730000D01*
X52670000Y-96350000D02*
X55330000Y-96350000D01*
X54000000Y-58130000D02*
X55330000Y-58130000D01*
X55330000Y-58130000D02*
X55330000Y-59460000D01*
X55330000Y-60730000D02*
X55330000Y-96350000D01*
%TO.C,J3-DAC1*%
X89420000Y-53995000D02*
X90750000Y-53995000D01*
X89420000Y-55325000D02*
X89420000Y-53995000D01*
X92020000Y-53995000D02*
X107320000Y-53995000D01*
X92020000Y-56655000D02*
X92020000Y-53995000D01*
X92020000Y-56655000D02*
X107320000Y-56655000D01*
X107320000Y-56655000D02*
X107320000Y-53995000D01*
%TO.C,J4*%
X52330000Y-99655000D02*
X80570000Y-99655000D01*
X52330000Y-105875000D02*
X80570000Y-105875000D01*
X52330000Y-106975000D02*
X80570000Y-106975000D01*
X52330000Y-107495000D02*
X52330000Y-99655000D01*
X53900000Y-107495000D02*
X52330000Y-107495000D01*
X80570000Y-99655000D02*
X80570000Y-107495000D01*
X80570000Y-107495000D02*
X54500000Y-107495000D01*
X54640000Y-108105000D02*
X53760000Y-108105000D01*
X54200000Y-107495000D01*
X54640000Y-108105000D01*
G36*
X54640000Y-108105000D02*
G01*
X53760000Y-108105000D01*
X54200000Y-107495000D01*
X54640000Y-108105000D01*
G37*
%TO.C,J4-IMU1*%
X87899138Y-94064959D02*
X87899138Y-96724959D01*
X105739138Y-94064959D02*
X87899138Y-94064959D01*
X105739138Y-94064959D02*
X105739138Y-96724959D01*
X105739138Y-96724959D02*
X87899138Y-96724959D01*
X108339138Y-95394959D02*
X108339138Y-96724959D01*
X108339138Y-96724959D02*
X107009138Y-96724959D01*
%TD*%
%LPC*%
D13*
%TO.C,J2*%
X79400000Y-59460000D03*
D14*
X79400000Y-62000000D03*
X79400000Y-64540000D03*
X79400000Y-67080000D03*
X79400000Y-69620000D03*
X79400000Y-72160000D03*
X79400000Y-74700000D03*
X79400000Y-77240000D03*
X79400000Y-79780000D03*
X79400000Y-82320000D03*
X79400000Y-84860000D03*
X79400000Y-87400000D03*
X79400000Y-89940000D03*
X79400000Y-92480000D03*
X79400000Y-95020000D03*
%TD*%
D13*
%TO.C,J1*%
X54000000Y-59460000D03*
D14*
X54000000Y-62000000D03*
X54000000Y-64540000D03*
X54000000Y-67080000D03*
X54000000Y-69620000D03*
X54000000Y-72160000D03*
X54000000Y-74700000D03*
X54000000Y-77240000D03*
X54000000Y-79780000D03*
X54000000Y-82320000D03*
X54000000Y-84860000D03*
X54000000Y-87400000D03*
X54000000Y-89940000D03*
X54000000Y-92480000D03*
X54000000Y-95020000D03*
%TD*%
D15*
%TO.C,H1*%
X53600000Y-53600000D03*
%TD*%
D13*
%TO.C,J3-DAC1*%
X90750000Y-55325000D03*
D14*
X93290000Y-55325000D03*
X95830000Y-55325000D03*
X98370000Y-55325000D03*
X100910000Y-55325000D03*
X103450000Y-55325000D03*
X105990000Y-55325000D03*
%TD*%
D15*
%TO.C,H4*%
X53600000Y-111400000D03*
%TD*%
D16*
%TO.C,J4*%
X54200000Y-102875000D03*
D17*
X57700000Y-102875000D03*
X61200000Y-102875000D03*
X64700000Y-102875000D03*
X68200000Y-102875000D03*
X71700000Y-102875000D03*
X75200000Y-102875000D03*
X78700000Y-102875000D03*
%TD*%
D15*
%TO.C,H3*%
X111410000Y-111420000D03*
%TD*%
%TO.C,H2*%
X111400000Y-53600000D03*
%TD*%
D13*
%TO.C,J4-IMU1*%
X107009138Y-95394959D03*
D14*
X104469138Y-95394959D03*
X101929138Y-95394959D03*
X99389138Y-95394959D03*
X96849138Y-95394959D03*
X94309138Y-95394959D03*
X91769138Y-95394959D03*
X89229138Y-95394959D03*
%TD*%
%LPD*%
M02*
