M48
; DRILL file {KiCad 9.0.5} date 2025-12-28T15:15:13+0200
; FORMAT={-:-/ absolute / metric / decimal}
; #@! TF.CreationDate,2025-12-28T15:15:13+02:00
; #@! TF.GenerationSoftware,Kicad,Pcbnew,9.0.5
; #@! TF.FileFunction,Plated,1,2,PTH
FMAT,2
METRIC
; #@! TA.AperFunction,Plated,PTH,ViaDrill
T1C0.300
; #@! TA.AperFunction,Plated,PTH,ComponentDrill
T2C1.000
; #@! TA.AperFunction,Plated,PTH,ComponentDrill
T3C1.200
%
G90
G05
T1
X55.85Y-92.45
X55.95Y-77.225
X56.447Y-91.23
X57.45Y-99.05
X59.8Y-93.93
X60.21Y-88.13
X60.21Y-91.1
X60.31Y-84.75
X60.45Y-80.24
X64.7Y-82.27
X67.75Y-84.89
X71.71Y-91.0
X74.3Y-92.99
X77.91Y-97.67
X86.825Y-61.075
X92.425Y-62.05
X99.175Y-85.5
X101.025Y-60.45
X103.375Y-98.625
X104.469Y-75.894
X105.99Y-67.685
T2
X54.0Y-59.46
X54.0Y-62.0
X54.0Y-64.54
X54.0Y-67.08
X54.0Y-69.62
X54.0Y-72.16
X54.0Y-74.7
X54.0Y-77.24
X54.0Y-79.78
X54.0Y-82.32
X54.0Y-84.86
X54.0Y-87.4
X54.0Y-89.94
X54.0Y-92.48
X54.0Y-95.02
X79.4Y-59.46
X79.4Y-62.0
X79.4Y-64.54
X79.4Y-67.08
X79.4Y-69.62
X79.4Y-72.16
X79.4Y-74.7
X79.4Y-77.24
X79.4Y-79.78
X79.4Y-82.32
X79.4Y-84.86
X79.4Y-87.4
X79.4Y-89.94
X79.4Y-92.48
X79.4Y-95.02
X89.229Y-95.395
X90.75Y-55.325
X91.769Y-95.395
X93.29Y-55.325
X94.309Y-95.395
X95.83Y-55.325
X96.849Y-95.395
X98.37Y-55.325
X99.389Y-95.395
X100.91Y-55.325
X101.929Y-95.395
X103.45Y-55.325
X104.469Y-95.395
X105.99Y-55.325
X107.009Y-95.395
T3
X54.2Y-102.875
X57.7Y-102.875
X61.2Y-102.875
X64.7Y-102.875
X68.2Y-102.875
X71.7Y-102.875
X75.2Y-102.875
X78.7Y-102.875
M30
