%TF.GenerationSoftware,KiCad,Pcbnew,9.0.5*%
%TF.CreationDate,2025-12-28T15:22:45+02:00*%
%TF.ProjectId,base-schematic-02,62617365-2d73-4636-9865-6d617469632d,rev?*%
%TF.SameCoordinates,Original*%
%TF.FileFunction,Legend,Bot*%
%TF.FilePolarity,Positive*%
%FSLAX46Y46*%
G04 Gerber Fmt 4.6, Leading zero omitted, Abs format (unit mm)*
G04 Created by KiCad (PCBNEW 9.0.5) date 2025-12-28 15:22:45*
%MOMM*%
%LPD*%
G01*
G04 APERTURE LIST*
G04 Aperture macros list*
%AMRoundRect*
0 Rectangle with rounded corners*
0 $1 Rounding radius*
0 $2 $3 $4 $5 $6 $7 $8 $9 X,Y pos of 4 corners*
0 Add a 4 corners polygon primitive as box body*
4,1,4,$2,$3,$4,$5,$6,$7,$8,$9,$2,$3,0*
0 Add four circle primitives for the rounded corners*
1,1,$1+$1,$2,$3*
1,1,$1+$1,$4,$5*
1,1,$1+$1,$6,$7*
1,1,$1+$1,$8,$9*
0 Add four rect primitives between the rounded corners*
20,1,$1+$1,$2,$3,$4,$5,0*
20,1,$1+$1,$4,$5,$6,$7,0*
20,1,$1+$1,$6,$7,$8,$9,0*
20,1,$1+$1,$8,$9,$2,$3,0*%
G04 Aperture macros list end*
%ADD10C,0.100000*%
%ADD11C,0.200000*%
%ADD12R,1.700000X1.700000*%
%ADD13C,1.700000*%
%ADD14C,3.200000*%
%ADD15RoundRect,0.250001X-0.949999X-0.949999X0.949999X-0.949999X0.949999X0.949999X-0.949999X0.949999X0*%
%ADD16C,2.400000*%
G04 APERTURE END LIST*
D10*
X79892442Y-105622419D02*
X79892442Y-104622419D01*
X79892442Y-104622419D02*
X79654347Y-104622419D01*
X79654347Y-104622419D02*
X79511490Y-104670038D01*
X79511490Y-104670038D02*
X79416252Y-104765276D01*
X79416252Y-104765276D02*
X79368633Y-104860514D01*
X79368633Y-104860514D02*
X79321014Y-105050990D01*
X79321014Y-105050990D02*
X79321014Y-105193847D01*
X79321014Y-105193847D02*
X79368633Y-105384323D01*
X79368633Y-105384323D02*
X79416252Y-105479561D01*
X79416252Y-105479561D02*
X79511490Y-105574800D01*
X79511490Y-105574800D02*
X79654347Y-105622419D01*
X79654347Y-105622419D02*
X79892442Y-105622419D01*
X78368633Y-105622419D02*
X78940061Y-105622419D01*
X78654347Y-105622419D02*
X78654347Y-104622419D01*
X78654347Y-104622419D02*
X78749585Y-104765276D01*
X78749585Y-104765276D02*
X78844823Y-104860514D01*
X78844823Y-104860514D02*
X78940061Y-104908133D01*
X77987680Y-104717657D02*
X77940061Y-104670038D01*
X77940061Y-104670038D02*
X77844823Y-104622419D01*
X77844823Y-104622419D02*
X77606728Y-104622419D01*
X77606728Y-104622419D02*
X77511490Y-104670038D01*
X77511490Y-104670038D02*
X77463871Y-104717657D01*
X77463871Y-104717657D02*
X77416252Y-104812895D01*
X77416252Y-104812895D02*
X77416252Y-104908133D01*
X77416252Y-104908133D02*
X77463871Y-105050990D01*
X77463871Y-105050990D02*
X78035299Y-105622419D01*
X78035299Y-105622419D02*
X77416252Y-105622419D01*
D11*
X101686667Y-74610305D02*
X101020000Y-74610305D01*
X101820000Y-75010305D02*
X101353334Y-73610305D01*
X101353334Y-73610305D02*
X100886667Y-75010305D01*
X100420000Y-75010305D02*
X100420000Y-73610305D01*
X100420000Y-73610305D02*
X100086667Y-73610305D01*
X100086667Y-73610305D02*
X99886667Y-73676972D01*
X99886667Y-73676972D02*
X99753334Y-73810305D01*
X99753334Y-73810305D02*
X99686667Y-73943639D01*
X99686667Y-73943639D02*
X99620000Y-74210305D01*
X99620000Y-74210305D02*
X99620000Y-74410305D01*
X99620000Y-74410305D02*
X99686667Y-74676972D01*
X99686667Y-74676972D02*
X99753334Y-74810305D01*
X99753334Y-74810305D02*
X99886667Y-74943639D01*
X99886667Y-74943639D02*
X100086667Y-75010305D01*
X100086667Y-75010305D02*
X100420000Y-75010305D01*
X99020000Y-75010305D02*
X99020000Y-73610305D01*
X99020000Y-74276972D02*
X98220000Y-74276972D01*
X98220000Y-75010305D02*
X98220000Y-73610305D01*
X97553333Y-75010305D02*
X97553333Y-73610305D01*
X97553333Y-73610305D02*
X97220000Y-73610305D01*
X97220000Y-73610305D02*
X97020000Y-73676972D01*
X97020000Y-73676972D02*
X96886667Y-73810305D01*
X96886667Y-73810305D02*
X96820000Y-73943639D01*
X96820000Y-73943639D02*
X96753333Y-74210305D01*
X96753333Y-74210305D02*
X96753333Y-74410305D01*
X96753333Y-74410305D02*
X96820000Y-74676972D01*
X96820000Y-74676972D02*
X96886667Y-74810305D01*
X96886667Y-74810305D02*
X97020000Y-74943639D01*
X97020000Y-74943639D02*
X97220000Y-75010305D01*
X97220000Y-75010305D02*
X97553333Y-75010305D01*
X94286666Y-74876972D02*
X94353333Y-74943639D01*
X94353333Y-74943639D02*
X94553333Y-75010305D01*
X94553333Y-75010305D02*
X94686666Y-75010305D01*
X94686666Y-75010305D02*
X94886666Y-74943639D01*
X94886666Y-74943639D02*
X95020000Y-74810305D01*
X95020000Y-74810305D02*
X95086666Y-74676972D01*
X95086666Y-74676972D02*
X95153333Y-74410305D01*
X95153333Y-74410305D02*
X95153333Y-74210305D01*
X95153333Y-74210305D02*
X95086666Y-73943639D01*
X95086666Y-73943639D02*
X95020000Y-73810305D01*
X95020000Y-73810305D02*
X94886666Y-73676972D01*
X94886666Y-73676972D02*
X94686666Y-73610305D01*
X94686666Y-73610305D02*
X94553333Y-73610305D01*
X94553333Y-73610305D02*
X94353333Y-73676972D01*
X94353333Y-73676972D02*
X94286666Y-73743639D01*
X93086666Y-74076972D02*
X93086666Y-75010305D01*
X93686666Y-74076972D02*
X93686666Y-74810305D01*
X93686666Y-74810305D02*
X93620000Y-74943639D01*
X93620000Y-74943639D02*
X93486666Y-75010305D01*
X93486666Y-75010305D02*
X93286666Y-75010305D01*
X93286666Y-75010305D02*
X93153333Y-74943639D01*
X93153333Y-74943639D02*
X93086666Y-74876972D01*
X92419999Y-75010305D02*
X92419999Y-73610305D01*
X92419999Y-74143639D02*
X92286666Y-74076972D01*
X92286666Y-74076972D02*
X92019999Y-74076972D01*
X92019999Y-74076972D02*
X91886666Y-74143639D01*
X91886666Y-74143639D02*
X91819999Y-74210305D01*
X91819999Y-74210305D02*
X91753333Y-74343639D01*
X91753333Y-74343639D02*
X91753333Y-74743639D01*
X91753333Y-74743639D02*
X91819999Y-74876972D01*
X91819999Y-74876972D02*
X91886666Y-74943639D01*
X91886666Y-74943639D02*
X92019999Y-75010305D01*
X92019999Y-75010305D02*
X92286666Y-75010305D01*
X92286666Y-75010305D02*
X92419999Y-74943639D01*
X90619999Y-74943639D02*
X90753332Y-75010305D01*
X90753332Y-75010305D02*
X91019999Y-75010305D01*
X91019999Y-75010305D02*
X91153332Y-74943639D01*
X91153332Y-74943639D02*
X91219999Y-74810305D01*
X91219999Y-74810305D02*
X91219999Y-74276972D01*
X91219999Y-74276972D02*
X91153332Y-74143639D01*
X91153332Y-74143639D02*
X91019999Y-74076972D01*
X91019999Y-74076972D02*
X90753332Y-74076972D01*
X90753332Y-74076972D02*
X90619999Y-74143639D01*
X90619999Y-74143639D02*
X90553332Y-74276972D01*
X90553332Y-74276972D02*
X90553332Y-74410305D01*
X90553332Y-74410305D02*
X91219999Y-74543639D01*
X88486665Y-75543639D02*
X88553332Y-75476972D01*
X88553332Y-75476972D02*
X88686665Y-75276972D01*
X88686665Y-75276972D02*
X88753332Y-75143639D01*
X88753332Y-75143639D02*
X88819999Y-74943639D01*
X88819999Y-74943639D02*
X88886665Y-74610305D01*
X88886665Y-74610305D02*
X88886665Y-74343639D01*
X88886665Y-74343639D02*
X88819999Y-74010305D01*
X88819999Y-74010305D02*
X88753332Y-73810305D01*
X88753332Y-73810305D02*
X88686665Y-73676972D01*
X88686665Y-73676972D02*
X88553332Y-73476972D01*
X88553332Y-73476972D02*
X88486665Y-73410305D01*
X88086666Y-74076972D02*
X87753332Y-75010305D01*
X87753332Y-75010305D02*
X87419999Y-74076972D01*
X86886665Y-74876972D02*
X86819999Y-74943639D01*
X86819999Y-74943639D02*
X86886665Y-75010305D01*
X86886665Y-75010305D02*
X86953332Y-74943639D01*
X86953332Y-74943639D02*
X86886665Y-74876972D01*
X86886665Y-74876972D02*
X86886665Y-75010305D01*
X85486665Y-75010305D02*
X86286665Y-75010305D01*
X85886665Y-75010305D02*
X85886665Y-73610305D01*
X85886665Y-73610305D02*
X86019998Y-73810305D01*
X86019998Y-73810305D02*
X86153332Y-73943639D01*
X86153332Y-73943639D02*
X86286665Y-74010305D01*
X85019999Y-75543639D02*
X84953332Y-75476972D01*
X84953332Y-75476972D02*
X84819999Y-75276972D01*
X84819999Y-75276972D02*
X84753332Y-75143639D01*
X84753332Y-75143639D02*
X84686665Y-74943639D01*
X84686665Y-74943639D02*
X84619999Y-74610305D01*
X84619999Y-74610305D02*
X84619999Y-74343639D01*
X84619999Y-74343639D02*
X84686665Y-74010305D01*
X84686665Y-74010305D02*
X84753332Y-73810305D01*
X84753332Y-73810305D02*
X84819999Y-73676972D01*
X84819999Y-73676972D02*
X84953332Y-73476972D01*
X84953332Y-73476972D02*
X85019999Y-73410305D01*
X100320001Y-76530894D02*
X100120001Y-76597561D01*
X100120001Y-76597561D02*
X100053334Y-76664227D01*
X100053334Y-76664227D02*
X99986667Y-76797561D01*
X99986667Y-76797561D02*
X99986667Y-76997561D01*
X99986667Y-76997561D02*
X100053334Y-77130894D01*
X100053334Y-77130894D02*
X100120001Y-77197561D01*
X100120001Y-77197561D02*
X100253334Y-77264227D01*
X100253334Y-77264227D02*
X100786667Y-77264227D01*
X100786667Y-77264227D02*
X100786667Y-75864227D01*
X100786667Y-75864227D02*
X100320001Y-75864227D01*
X100320001Y-75864227D02*
X100186667Y-75930894D01*
X100186667Y-75930894D02*
X100120001Y-75997561D01*
X100120001Y-75997561D02*
X100053334Y-76130894D01*
X100053334Y-76130894D02*
X100053334Y-76264227D01*
X100053334Y-76264227D02*
X100120001Y-76397561D01*
X100120001Y-76397561D02*
X100186667Y-76464227D01*
X100186667Y-76464227D02*
X100320001Y-76530894D01*
X100320001Y-76530894D02*
X100786667Y-76530894D01*
X99520001Y-76330894D02*
X99186667Y-77264227D01*
X98853334Y-76330894D02*
X99186667Y-77264227D01*
X99186667Y-77264227D02*
X99320001Y-77597561D01*
X99320001Y-77597561D02*
X99386667Y-77664227D01*
X99386667Y-77664227D02*
X99520001Y-77730894D01*
X97253333Y-76530894D02*
X96786667Y-76530894D01*
X96586667Y-77264227D02*
X97253333Y-77264227D01*
X97253333Y-77264227D02*
X97253333Y-75864227D01*
X97253333Y-75864227D02*
X96586667Y-75864227D01*
X95986666Y-77130894D02*
X95920000Y-77197561D01*
X95920000Y-77197561D02*
X95986666Y-77264227D01*
X95986666Y-77264227D02*
X96053333Y-77197561D01*
X96053333Y-77197561D02*
X95986666Y-77130894D01*
X95986666Y-77130894D02*
X95986666Y-77264227D01*
X93519999Y-75930894D02*
X93653332Y-75864227D01*
X93653332Y-75864227D02*
X93853332Y-75864227D01*
X93853332Y-75864227D02*
X94053332Y-75930894D01*
X94053332Y-75930894D02*
X94186666Y-76064227D01*
X94186666Y-76064227D02*
X94253332Y-76197561D01*
X94253332Y-76197561D02*
X94319999Y-76464227D01*
X94319999Y-76464227D02*
X94319999Y-76664227D01*
X94319999Y-76664227D02*
X94253332Y-76930894D01*
X94253332Y-76930894D02*
X94186666Y-77064227D01*
X94186666Y-77064227D02*
X94053332Y-77197561D01*
X94053332Y-77197561D02*
X93853332Y-77264227D01*
X93853332Y-77264227D02*
X93719999Y-77264227D01*
X93719999Y-77264227D02*
X93519999Y-77197561D01*
X93519999Y-77197561D02*
X93453332Y-77130894D01*
X93453332Y-77130894D02*
X93453332Y-76664227D01*
X93453332Y-76664227D02*
X93719999Y-76664227D01*
X92653332Y-77264227D02*
X92786666Y-77197561D01*
X92786666Y-77197561D02*
X92853332Y-77130894D01*
X92853332Y-77130894D02*
X92919999Y-76997561D01*
X92919999Y-76997561D02*
X92919999Y-76597561D01*
X92919999Y-76597561D02*
X92853332Y-76464227D01*
X92853332Y-76464227D02*
X92786666Y-76397561D01*
X92786666Y-76397561D02*
X92653332Y-76330894D01*
X92653332Y-76330894D02*
X92453332Y-76330894D01*
X92453332Y-76330894D02*
X92319999Y-76397561D01*
X92319999Y-76397561D02*
X92253332Y-76464227D01*
X92253332Y-76464227D02*
X92186666Y-76597561D01*
X92186666Y-76597561D02*
X92186666Y-76997561D01*
X92186666Y-76997561D02*
X92253332Y-77130894D01*
X92253332Y-77130894D02*
X92319999Y-77197561D01*
X92319999Y-77197561D02*
X92453332Y-77264227D01*
X92453332Y-77264227D02*
X92653332Y-77264227D01*
X91386665Y-77264227D02*
X91519999Y-77197561D01*
X91519999Y-77197561D02*
X91586665Y-77064227D01*
X91586665Y-77064227D02*
X91586665Y-75864227D01*
X90253332Y-76330894D02*
X90253332Y-77264227D01*
X90853332Y-76330894D02*
X90853332Y-77064227D01*
X90853332Y-77064227D02*
X90786666Y-77197561D01*
X90786666Y-77197561D02*
X90653332Y-77264227D01*
X90653332Y-77264227D02*
X90453332Y-77264227D01*
X90453332Y-77264227D02*
X90319999Y-77197561D01*
X90319999Y-77197561D02*
X90253332Y-77130894D01*
X89586665Y-77264227D02*
X89586665Y-75864227D01*
X89586665Y-76397561D02*
X89453332Y-76330894D01*
X89453332Y-76330894D02*
X89186665Y-76330894D01*
X89186665Y-76330894D02*
X89053332Y-76397561D01*
X89053332Y-76397561D02*
X88986665Y-76464227D01*
X88986665Y-76464227D02*
X88919999Y-76597561D01*
X88919999Y-76597561D02*
X88919999Y-76997561D01*
X88919999Y-76997561D02*
X88986665Y-77130894D01*
X88986665Y-77130894D02*
X89053332Y-77197561D01*
X89053332Y-77197561D02*
X89186665Y-77264227D01*
X89186665Y-77264227D02*
X89453332Y-77264227D01*
X89453332Y-77264227D02*
X89586665Y-77197561D01*
X87786665Y-77197561D02*
X87919998Y-77264227D01*
X87919998Y-77264227D02*
X88186665Y-77264227D01*
X88186665Y-77264227D02*
X88319998Y-77197561D01*
X88319998Y-77197561D02*
X88386665Y-77064227D01*
X88386665Y-77064227D02*
X88386665Y-76530894D01*
X88386665Y-76530894D02*
X88319998Y-76397561D01*
X88319998Y-76397561D02*
X88186665Y-76330894D01*
X88186665Y-76330894D02*
X87919998Y-76330894D01*
X87919998Y-76330894D02*
X87786665Y-76397561D01*
X87786665Y-76397561D02*
X87719998Y-76530894D01*
X87719998Y-76530894D02*
X87719998Y-76664227D01*
X87719998Y-76664227D02*
X88386665Y-76797561D01*
X87253332Y-76330894D02*
X86919998Y-77264227D01*
X86919998Y-77264227D02*
X86586665Y-76330894D01*
X85453331Y-77264227D02*
X85453331Y-76530894D01*
X85453331Y-76530894D02*
X85519998Y-76397561D01*
X85519998Y-76397561D02*
X85653331Y-76330894D01*
X85653331Y-76330894D02*
X85919998Y-76330894D01*
X85919998Y-76330894D02*
X86053331Y-76397561D01*
X85453331Y-77197561D02*
X85586665Y-77264227D01*
X85586665Y-77264227D02*
X85919998Y-77264227D01*
X85919998Y-77264227D02*
X86053331Y-77197561D01*
X86053331Y-77197561D02*
X86119998Y-77064227D01*
X86119998Y-77064227D02*
X86119998Y-76930894D01*
X86119998Y-76930894D02*
X86053331Y-76797561D01*
X86053331Y-76797561D02*
X85919998Y-76730894D01*
X85919998Y-76730894D02*
X85586665Y-76730894D01*
X85586665Y-76730894D02*
X85453331Y-76664227D01*
D10*
X58199653Y-104670038D02*
X58294891Y-104622419D01*
X58294891Y-104622419D02*
X58437748Y-104622419D01*
X58437748Y-104622419D02*
X58580605Y-104670038D01*
X58580605Y-104670038D02*
X58675843Y-104765276D01*
X58675843Y-104765276D02*
X58723462Y-104860514D01*
X58723462Y-104860514D02*
X58771081Y-105050990D01*
X58771081Y-105050990D02*
X58771081Y-105193847D01*
X58771081Y-105193847D02*
X58723462Y-105384323D01*
X58723462Y-105384323D02*
X58675843Y-105479561D01*
X58675843Y-105479561D02*
X58580605Y-105574800D01*
X58580605Y-105574800D02*
X58437748Y-105622419D01*
X58437748Y-105622419D02*
X58342510Y-105622419D01*
X58342510Y-105622419D02*
X58199653Y-105574800D01*
X58199653Y-105574800D02*
X58152034Y-105527180D01*
X58152034Y-105527180D02*
X58152034Y-105193847D01*
X58152034Y-105193847D02*
X58342510Y-105193847D01*
X57723462Y-105622419D02*
X57723462Y-104622419D01*
X57723462Y-104622419D02*
X57152034Y-105622419D01*
X57152034Y-105622419D02*
X57152034Y-104622419D01*
X56675843Y-105622419D02*
X56675843Y-104622419D01*
X56675843Y-104622419D02*
X56437748Y-104622419D01*
X56437748Y-104622419D02*
X56294891Y-104670038D01*
X56294891Y-104670038D02*
X56199653Y-104765276D01*
X56199653Y-104765276D02*
X56152034Y-104860514D01*
X56152034Y-104860514D02*
X56104415Y-105050990D01*
X56104415Y-105050990D02*
X56104415Y-105193847D01*
X56104415Y-105193847D02*
X56152034Y-105384323D01*
X56152034Y-105384323D02*
X56199653Y-105479561D01*
X56199653Y-105479561D02*
X56294891Y-105574800D01*
X56294891Y-105574800D02*
X56437748Y-105622419D01*
X56437748Y-105622419D02*
X56675843Y-105622419D01*
X69307952Y-105622419D02*
X69307952Y-104622419D01*
X69307952Y-104622419D02*
X69069857Y-104622419D01*
X69069857Y-104622419D02*
X68927000Y-104670038D01*
X68927000Y-104670038D02*
X68831762Y-104765276D01*
X68831762Y-104765276D02*
X68784143Y-104860514D01*
X68784143Y-104860514D02*
X68736524Y-105050990D01*
X68736524Y-105050990D02*
X68736524Y-105193847D01*
X68736524Y-105193847D02*
X68784143Y-105384323D01*
X68784143Y-105384323D02*
X68831762Y-105479561D01*
X68831762Y-105479561D02*
X68927000Y-105574800D01*
X68927000Y-105574800D02*
X69069857Y-105622419D01*
X69069857Y-105622419D02*
X69307952Y-105622419D01*
X68355571Y-104717657D02*
X68307952Y-104670038D01*
X68307952Y-104670038D02*
X68212714Y-104622419D01*
X68212714Y-104622419D02*
X67974619Y-104622419D01*
X67974619Y-104622419D02*
X67879381Y-104670038D01*
X67879381Y-104670038D02*
X67831762Y-104717657D01*
X67831762Y-104717657D02*
X67784143Y-104812895D01*
X67784143Y-104812895D02*
X67784143Y-104908133D01*
X67784143Y-104908133D02*
X67831762Y-105050990D01*
X67831762Y-105050990D02*
X68403190Y-105622419D01*
X68403190Y-105622419D02*
X67784143Y-105622419D01*
X66927000Y-104622419D02*
X67117476Y-104622419D01*
X67117476Y-104622419D02*
X67212714Y-104670038D01*
X67212714Y-104670038D02*
X67260333Y-104717657D01*
X67260333Y-104717657D02*
X67355571Y-104860514D01*
X67355571Y-104860514D02*
X67403190Y-105050990D01*
X67403190Y-105050990D02*
X67403190Y-105431942D01*
X67403190Y-105431942D02*
X67355571Y-105527180D01*
X67355571Y-105527180D02*
X67307952Y-105574800D01*
X67307952Y-105574800D02*
X67212714Y-105622419D01*
X67212714Y-105622419D02*
X67022238Y-105622419D01*
X67022238Y-105622419D02*
X66927000Y-105574800D01*
X66927000Y-105574800D02*
X66879381Y-105527180D01*
X66879381Y-105527180D02*
X66831762Y-105431942D01*
X66831762Y-105431942D02*
X66831762Y-105193847D01*
X66831762Y-105193847D02*
X66879381Y-105098609D01*
X66879381Y-105098609D02*
X66927000Y-105050990D01*
X66927000Y-105050990D02*
X67022238Y-105003371D01*
X67022238Y-105003371D02*
X67212714Y-105003371D01*
X67212714Y-105003371D02*
X67307952Y-105050990D01*
X67307952Y-105050990D02*
X67355571Y-105098609D01*
X67355571Y-105098609D02*
X67403190Y-105193847D01*
X62251626Y-105622419D02*
X62251626Y-104622419D01*
X62251626Y-104622419D02*
X62013531Y-104622419D01*
X62013531Y-104622419D02*
X61870674Y-104670038D01*
X61870674Y-104670038D02*
X61775436Y-104765276D01*
X61775436Y-104765276D02*
X61727817Y-104860514D01*
X61727817Y-104860514D02*
X61680198Y-105050990D01*
X61680198Y-105050990D02*
X61680198Y-105193847D01*
X61680198Y-105193847D02*
X61727817Y-105384323D01*
X61727817Y-105384323D02*
X61775436Y-105479561D01*
X61775436Y-105479561D02*
X61870674Y-105574800D01*
X61870674Y-105574800D02*
X62013531Y-105622419D01*
X62013531Y-105622419D02*
X62251626Y-105622419D01*
X61346864Y-104622419D02*
X60727817Y-104622419D01*
X60727817Y-104622419D02*
X61061150Y-105003371D01*
X61061150Y-105003371D02*
X60918293Y-105003371D01*
X60918293Y-105003371D02*
X60823055Y-105050990D01*
X60823055Y-105050990D02*
X60775436Y-105098609D01*
X60775436Y-105098609D02*
X60727817Y-105193847D01*
X60727817Y-105193847D02*
X60727817Y-105431942D01*
X60727817Y-105431942D02*
X60775436Y-105527180D01*
X60775436Y-105527180D02*
X60823055Y-105574800D01*
X60823055Y-105574800D02*
X60918293Y-105622419D01*
X60918293Y-105622419D02*
X61204007Y-105622419D01*
X61204007Y-105622419D02*
X61299245Y-105574800D01*
X61299245Y-105574800D02*
X61346864Y-105527180D01*
X60346864Y-104717657D02*
X60299245Y-104670038D01*
X60299245Y-104670038D02*
X60204007Y-104622419D01*
X60204007Y-104622419D02*
X59965912Y-104622419D01*
X59965912Y-104622419D02*
X59870674Y-104670038D01*
X59870674Y-104670038D02*
X59823055Y-104717657D01*
X59823055Y-104717657D02*
X59775436Y-104812895D01*
X59775436Y-104812895D02*
X59775436Y-104908133D01*
X59775436Y-104908133D02*
X59823055Y-105050990D01*
X59823055Y-105050990D02*
X60394483Y-105622419D01*
X60394483Y-105622419D02*
X59775436Y-105622419D01*
X65779789Y-105622419D02*
X65779789Y-104622419D01*
X65779789Y-104622419D02*
X65541694Y-104622419D01*
X65541694Y-104622419D02*
X65398837Y-104670038D01*
X65398837Y-104670038D02*
X65303599Y-104765276D01*
X65303599Y-104765276D02*
X65255980Y-104860514D01*
X65255980Y-104860514D02*
X65208361Y-105050990D01*
X65208361Y-105050990D02*
X65208361Y-105193847D01*
X65208361Y-105193847D02*
X65255980Y-105384323D01*
X65255980Y-105384323D02*
X65303599Y-105479561D01*
X65303599Y-105479561D02*
X65398837Y-105574800D01*
X65398837Y-105574800D02*
X65541694Y-105622419D01*
X65541694Y-105622419D02*
X65779789Y-105622419D01*
X64875027Y-104622419D02*
X64255980Y-104622419D01*
X64255980Y-104622419D02*
X64589313Y-105003371D01*
X64589313Y-105003371D02*
X64446456Y-105003371D01*
X64446456Y-105003371D02*
X64351218Y-105050990D01*
X64351218Y-105050990D02*
X64303599Y-105098609D01*
X64303599Y-105098609D02*
X64255980Y-105193847D01*
X64255980Y-105193847D02*
X64255980Y-105431942D01*
X64255980Y-105431942D02*
X64303599Y-105527180D01*
X64303599Y-105527180D02*
X64351218Y-105574800D01*
X64351218Y-105574800D02*
X64446456Y-105622419D01*
X64446456Y-105622419D02*
X64732170Y-105622419D01*
X64732170Y-105622419D02*
X64827408Y-105574800D01*
X64827408Y-105574800D02*
X64875027Y-105527180D01*
X63922646Y-104622419D02*
X63303599Y-104622419D01*
X63303599Y-104622419D02*
X63636932Y-105003371D01*
X63636932Y-105003371D02*
X63494075Y-105003371D01*
X63494075Y-105003371D02*
X63398837Y-105050990D01*
X63398837Y-105050990D02*
X63351218Y-105098609D01*
X63351218Y-105098609D02*
X63303599Y-105193847D01*
X63303599Y-105193847D02*
X63303599Y-105431942D01*
X63303599Y-105431942D02*
X63351218Y-105527180D01*
X63351218Y-105527180D02*
X63398837Y-105574800D01*
X63398837Y-105574800D02*
X63494075Y-105622419D01*
X63494075Y-105622419D02*
X63779789Y-105622419D01*
X63779789Y-105622419D02*
X63875027Y-105574800D01*
X63875027Y-105574800D02*
X63922646Y-105527180D01*
X55195299Y-104622419D02*
X54861966Y-105622419D01*
X54861966Y-105622419D02*
X54528633Y-104622419D01*
X54195299Y-105622419D02*
X54195299Y-104622419D01*
X53719109Y-105622419D02*
X53719109Y-104622419D01*
X53719109Y-104622419D02*
X53147681Y-105622419D01*
X53147681Y-105622419D02*
X53147681Y-104622419D01*
X76364279Y-105622419D02*
X76364279Y-104622419D01*
X76364279Y-104622419D02*
X76126184Y-104622419D01*
X76126184Y-104622419D02*
X75983327Y-104670038D01*
X75983327Y-104670038D02*
X75888089Y-104765276D01*
X75888089Y-104765276D02*
X75840470Y-104860514D01*
X75840470Y-104860514D02*
X75792851Y-105050990D01*
X75792851Y-105050990D02*
X75792851Y-105193847D01*
X75792851Y-105193847D02*
X75840470Y-105384323D01*
X75840470Y-105384323D02*
X75888089Y-105479561D01*
X75888089Y-105479561D02*
X75983327Y-105574800D01*
X75983327Y-105574800D02*
X76126184Y-105622419D01*
X76126184Y-105622419D02*
X76364279Y-105622419D01*
X74840470Y-105622419D02*
X75411898Y-105622419D01*
X75126184Y-105622419D02*
X75126184Y-104622419D01*
X75126184Y-104622419D02*
X75221422Y-104765276D01*
X75221422Y-104765276D02*
X75316660Y-104860514D01*
X75316660Y-104860514D02*
X75411898Y-104908133D01*
X73983327Y-104955752D02*
X73983327Y-105622419D01*
X74221422Y-104574800D02*
X74459517Y-105289085D01*
X74459517Y-105289085D02*
X73840470Y-105289085D01*
X72836115Y-105622419D02*
X72836115Y-104622419D01*
X72836115Y-104622419D02*
X72598020Y-104622419D01*
X72598020Y-104622419D02*
X72455163Y-104670038D01*
X72455163Y-104670038D02*
X72359925Y-104765276D01*
X72359925Y-104765276D02*
X72312306Y-104860514D01*
X72312306Y-104860514D02*
X72264687Y-105050990D01*
X72264687Y-105050990D02*
X72264687Y-105193847D01*
X72264687Y-105193847D02*
X72312306Y-105384323D01*
X72312306Y-105384323D02*
X72359925Y-105479561D01*
X72359925Y-105479561D02*
X72455163Y-105574800D01*
X72455163Y-105574800D02*
X72598020Y-105622419D01*
X72598020Y-105622419D02*
X72836115Y-105622419D01*
X71883734Y-104717657D02*
X71836115Y-104670038D01*
X71836115Y-104670038D02*
X71740877Y-104622419D01*
X71740877Y-104622419D02*
X71502782Y-104622419D01*
X71502782Y-104622419D02*
X71407544Y-104670038D01*
X71407544Y-104670038D02*
X71359925Y-104717657D01*
X71359925Y-104717657D02*
X71312306Y-104812895D01*
X71312306Y-104812895D02*
X71312306Y-104908133D01*
X71312306Y-104908133D02*
X71359925Y-105050990D01*
X71359925Y-105050990D02*
X71931353Y-105622419D01*
X71931353Y-105622419D02*
X71312306Y-105622419D01*
X70978972Y-104622419D02*
X70312306Y-104622419D01*
X70312306Y-104622419D02*
X70740877Y-105622419D01*
%LPC*%
D12*
%TO.C,J2*%
X79400000Y-59460000D03*
D13*
X79400000Y-62000000D03*
X79400000Y-64540000D03*
X79400000Y-67080000D03*
X79400000Y-69620000D03*
X79400000Y-72160000D03*
X79400000Y-74700000D03*
X79400000Y-77240000D03*
X79400000Y-79780000D03*
X79400000Y-82320000D03*
X79400000Y-84860000D03*
X79400000Y-87400000D03*
X79400000Y-89940000D03*
X79400000Y-92480000D03*
X79400000Y-95020000D03*
%TD*%
D12*
%TO.C,J1*%
X54000000Y-59460000D03*
D13*
X54000000Y-62000000D03*
X54000000Y-64540000D03*
X54000000Y-67080000D03*
X54000000Y-69620000D03*
X54000000Y-72160000D03*
X54000000Y-74700000D03*
X54000000Y-77240000D03*
X54000000Y-79780000D03*
X54000000Y-82320000D03*
X54000000Y-84860000D03*
X54000000Y-87400000D03*
X54000000Y-89940000D03*
X54000000Y-92480000D03*
X54000000Y-95020000D03*
%TD*%
D14*
%TO.C,H1*%
X53600000Y-53600000D03*
%TD*%
D12*
%TO.C,J3-DAC1*%
X90750000Y-55325000D03*
D13*
X93290000Y-55325000D03*
X95830000Y-55325000D03*
X98370000Y-55325000D03*
X100910000Y-55325000D03*
X103450000Y-55325000D03*
X105990000Y-55325000D03*
%TD*%
D14*
%TO.C,H4*%
X53600000Y-111400000D03*
%TD*%
D15*
%TO.C,J4*%
X54200000Y-102875000D03*
D16*
X57700000Y-102875000D03*
X61200000Y-102875000D03*
X64700000Y-102875000D03*
X68200000Y-102875000D03*
X71700000Y-102875000D03*
X75200000Y-102875000D03*
X78700000Y-102875000D03*
%TD*%
D14*
%TO.C,H3*%
X111410000Y-111420000D03*
%TD*%
%TO.C,H2*%
X111400000Y-53600000D03*
%TD*%
D12*
%TO.C,J4-IMU1*%
X107009138Y-95394959D03*
D13*
X104469138Y-95394959D03*
X101929138Y-95394959D03*
X99389138Y-95394959D03*
X96849138Y-95394959D03*
X94309138Y-95394959D03*
X91769138Y-95394959D03*
X89229138Y-95394959D03*
%TD*%
%LPD*%
M02*
