%TF.GenerationSoftware,KiCad,Pcbnew,9.0.5*%
%TF.CreationDate,2025-12-28T15:22:45+02:00*%
%TF.ProjectId,base-schematic-02,62617365-2d73-4636-9865-6d617469632d,rev?*%
%TF.SameCoordinates,Original*%
%TF.FileFunction,Copper,L1,Top*%
%TF.FilePolarity,Positive*%
%FSLAX46Y46*%
G04 Gerber Fmt 4.6, Leading zero omitted, Abs format (unit mm)*
G04 Created by KiCad (PCBNEW 9.0.5) date 2025-12-28 15:22:45*
%MOMM*%
%LPD*%
G01*
G04 APERTURE LIST*
G04 Aperture macros list*
%AMRoundRect*
0 Rectangle with rounded corners*
0 $1 Rounding radius*
0 $2 $3 $4 $5 $6 $7 $8 $9 X,Y pos of 4 corners*
0 Add a 4 corners polygon primitive as box body*
4,1,4,$2,$3,$4,$5,$6,$7,$8,$9,$2,$3,0*
0 Add four circle primitives for the rounded corners*
1,1,$1+$1,$2,$3*
1,1,$1+$1,$4,$5*
1,1,$1+$1,$6,$7*
1,1,$1+$1,$8,$9*
0 Add four rect primitives between the rounded corners*
20,1,$1+$1,$2,$3,$4,$5,0*
20,1,$1+$1,$4,$5,$6,$7,0*
20,1,$1+$1,$6,$7,$8,$9,0*
20,1,$1+$1,$8,$9,$2,$3,0*%
G04 Aperture macros list end*
%TA.AperFunction,ComponentPad*%
%ADD10R,1.700000X1.700000*%
%TD*%
%TA.AperFunction,ComponentPad*%
%ADD11C,1.700000*%
%TD*%
%TA.AperFunction,ComponentPad*%
%ADD12RoundRect,0.250001X-0.949999X-0.949999X0.949999X-0.949999X0.949999X0.949999X-0.949999X0.949999X0*%
%TD*%
%TA.AperFunction,ComponentPad*%
%ADD13C,2.400000*%
%TD*%
%TA.AperFunction,ViaPad*%
%ADD14C,0.600000*%
%TD*%
%TA.AperFunction,Conductor*%
%ADD15C,0.500000*%
%TD*%
%TA.AperFunction,Conductor*%
%ADD16C,0.300000*%
%TD*%
G04 APERTURE END LIST*
D10*
%TO.P,J2,1,Pin_1*%
%TO.N,D23*%
X79400000Y-59460000D03*
D11*
%TO.P,J2,2,Pin_2*%
%TO.N,D22*%
X79400000Y-62000000D03*
%TO.P,J2,3,Pin_3*%
%TO.N,unconnected-(J2-Pin_3-Pad3)*%
X79400000Y-64540000D03*
%TO.P,J2,4,Pin_4*%
%TO.N,unconnected-(J2-Pin_4-Pad4)*%
X79400000Y-67080000D03*
%TO.P,J2,5,Pin_5*%
%TO.N,D21*%
X79400000Y-69620000D03*
%TO.P,J2,6,Pin_6*%
%TO.N,D19*%
X79400000Y-72160000D03*
%TO.P,J2,7,Pin_7*%
%TO.N,D18*%
X79400000Y-74700000D03*
%TO.P,J2,8,Pin_8*%
%TO.N,unconnected-(J2-Pin_8-Pad8)*%
X79400000Y-77240000D03*
%TO.P,J2,9,Pin_9*%
%TO.N,unconnected-(J2-Pin_9-Pad9)*%
X79400000Y-79780000D03*
%TO.P,J2,10,Pin_10*%
%TO.N,unconnected-(J2-Pin_10-Pad10)*%
X79400000Y-82320000D03*
%TO.P,J2,11,Pin_11*%
%TO.N,unconnected-(J2-Pin_11-Pad11)*%
X79400000Y-84860000D03*
%TO.P,J2,12,Pin_12*%
%TO.N,unconnected-(J2-Pin_12-Pad12)*%
X79400000Y-87400000D03*
%TO.P,J2,13,Pin_13*%
%TO.N,unconnected-(J2-Pin_13-Pad13)*%
X79400000Y-89940000D03*
%TO.P,J2,14,Pin_14*%
%TO.N,GND*%
X79400000Y-92480000D03*
%TO.P,J2,15,Pin_15*%
%TO.N,3V3*%
X79400000Y-95020000D03*
%TD*%
D10*
%TO.P,J1,1,Pin_1*%
%TO.N,unconnected-(J1-Pin_1-Pad1)*%
X54000000Y-59460000D03*
D11*
%TO.P,J1,2,Pin_2*%
%TO.N,unconnected-(J1-Pin_2-Pad2)*%
X54000000Y-62000000D03*
%TO.P,J1,3,Pin_3*%
%TO.N,unconnected-(J1-Pin_3-Pad3)*%
X54000000Y-64540000D03*
%TO.P,J1,4,Pin_4*%
%TO.N,unconnected-(J1-Pin_4-Pad4)*%
X54000000Y-67080000D03*
%TO.P,J1,5,Pin_5*%
%TO.N,unconnected-(J1-Pin_5-Pad5)*%
X54000000Y-69620000D03*
%TO.P,J1,6,Pin_6*%
%TO.N,D32*%
X54000000Y-72160000D03*
%TO.P,J1,7,Pin_7*%
%TO.N,D33*%
X54000000Y-74700000D03*
%TO.P,J1,8,Pin_8*%
%TO.N,D25*%
X54000000Y-77240000D03*
%TO.P,J1,9,Pin_9*%
%TO.N,D26*%
X54000000Y-79780000D03*
%TO.P,J1,10,Pin_10*%
%TO.N,D27*%
X54000000Y-82320000D03*
%TO.P,J1,11,Pin_11*%
%TO.N,D14*%
X54000000Y-84860000D03*
%TO.P,J1,12,Pin_12*%
%TO.N,D12*%
X54000000Y-87400000D03*
%TO.P,J1,13,Pin_13*%
%TO.N,D13*%
X54000000Y-89940000D03*
%TO.P,J1,14,Pin_14*%
%TO.N,GND*%
X54000000Y-92480000D03*
%TO.P,J1,15,Pin_15*%
%TO.N,VIN*%
X54000000Y-95020000D03*
%TD*%
D10*
%TO.P,J3-DAC1,1,Pin_1*%
%TO.N,D19*%
X90750000Y-55325000D03*
D11*
%TO.P,J3-DAC1,2,Pin_2*%
%TO.N,D18*%
X93290000Y-55325000D03*
%TO.P,J3-DAC1,3,Pin_3*%
%TO.N,D23*%
X95830000Y-55325000D03*
%TO.P,J3-DAC1,4,Pin_4*%
%TO.N,D25*%
X98370000Y-55325000D03*
%TO.P,J3-DAC1,5,Pin_5*%
%TO.N,D21*%
X100910000Y-55325000D03*
%TO.P,J3-DAC1,6,Pin_6*%
%TO.N,GND*%
X103450000Y-55325000D03*
%TO.P,J3-DAC1,7,Pin_7*%
%TO.N,3V3*%
X105990000Y-55325000D03*
%TD*%
D12*
%TO.P,J4,1,Pin_1*%
%TO.N,VIN*%
X54200000Y-102875000D03*
D13*
%TO.P,J4,2,Pin_2*%
%TO.N,GND*%
X57700000Y-102875000D03*
%TO.P,J4,3,Pin_3*%
%TO.N,D32*%
X61200000Y-102875000D03*
%TO.P,J4,4,Pin_4*%
%TO.N,D33*%
X64700000Y-102875000D03*
%TO.P,J4,5,Pin_5*%
%TO.N,D26*%
X68200000Y-102875000D03*
%TO.P,J4,6,Pin_6*%
%TO.N,D27*%
X71700000Y-102875000D03*
%TO.P,J4,7,Pin_7*%
%TO.N,D14*%
X75200000Y-102875000D03*
%TO.P,J4,8,Pin_8*%
%TO.N,D12*%
X78700000Y-102875000D03*
%TD*%
D10*
%TO.P,J4-IMU1,1,Pin_1*%
%TO.N,GND*%
X107009138Y-95394959D03*
D11*
%TO.P,J4-IMU1,2,Pin_2*%
%TO.N,3V3*%
X104469138Y-95394959D03*
%TO.P,J4-IMU1,3,Pin_3*%
%TO.N,unconnected-(J4-IMU1-Pin_3-Pad3)*%
X101929138Y-95394959D03*
%TO.P,J4-IMU1,4,Pin_4*%
%TO.N,unconnected-(J4-IMU1-Pin_4-Pad4)*%
X99389138Y-95394959D03*
%TO.P,J4-IMU1,5,Pin_5*%
%TO.N,unconnected-(J4-IMU1-Pin_5-Pad5)*%
X96849138Y-95394959D03*
%TO.P,J4-IMU1,6,Pin_6*%
%TO.N,unconnected-(J4-IMU1-Pin_6-Pad6)*%
X94309138Y-95394959D03*
%TO.P,J4-IMU1,7,Pin_7*%
%TO.N,D13*%
X91769138Y-95394959D03*
%TO.P,J4-IMU1,8,Pin_8*%
%TO.N,D22*%
X89229138Y-95394959D03*
%TD*%
D14*
%TO.N,GND*%
X55850000Y-92450000D03*
%TO.N,D12*%
X77910000Y-97670000D03*
X59800000Y-93930000D03*
%TO.N,D33*%
X60450000Y-80240000D03*
X64700000Y-82270000D03*
%TO.N,D26*%
X67750000Y-84890000D03*
X60310000Y-84750000D03*
%TO.N,D27*%
X71710000Y-91000000D03*
X60210000Y-88130000D03*
%TO.N,D14*%
X60210000Y-91100000D03*
X74300000Y-92990000D03*
%TO.N,D25*%
X55950000Y-77225000D03*
X56447500Y-91230000D03*
X57450000Y-99050000D03*
%TO.N,D21*%
X101025000Y-60450000D03*
%TO.N,D22*%
X99175000Y-85500000D03*
%TO.N,3V3*%
X105990000Y-67685000D03*
X103375000Y-98625000D03*
X104469138Y-75894138D03*
%TO.N,D18*%
X92425000Y-62050000D03*
%TO.N,D19*%
X86825000Y-61075000D03*
%TD*%
D15*
%TO.N,GND*%
X103450000Y-65875000D02*
X100325000Y-69000000D01*
X103450000Y-55325000D02*
X103450000Y-65875000D01*
X83700000Y-89300000D02*
X80520000Y-92480000D01*
D16*
X55820000Y-92480000D02*
X55850000Y-92450000D01*
D15*
X80520000Y-92480000D02*
X79400000Y-92480000D01*
X107009138Y-95394959D02*
X107009138Y-75684138D01*
X100325000Y-69000000D02*
X88500000Y-69000000D01*
X107009138Y-75684138D02*
X100325000Y-69000000D01*
X54000000Y-92480000D02*
X55820000Y-92480000D01*
X83700000Y-69950000D02*
X83700000Y-89300000D01*
X88500000Y-69000000D02*
X84650000Y-69000000D01*
X84650000Y-69000000D02*
X83700000Y-69950000D01*
D16*
%TO.N,D12*%
X54000000Y-87400000D02*
X59800000Y-93200000D01*
X59800000Y-93200000D02*
X59800000Y-93930000D01*
X78700000Y-98460000D02*
X78700000Y-102875000D01*
X77910000Y-97670000D02*
X78700000Y-98460000D01*
%TO.N,D33*%
X54910000Y-74700000D02*
X60450000Y-80240000D01*
X64700000Y-82270000D02*
X64700000Y-102875000D01*
X54000000Y-74700000D02*
X54910000Y-74700000D01*
X54000000Y-74700000D02*
X54000000Y-74240000D01*
%TO.N,D26*%
X68200000Y-85300000D02*
X68200000Y-102875000D01*
X58970000Y-84750000D02*
X60310000Y-84750000D01*
X54000000Y-79780000D02*
X58970000Y-84750000D01*
X67790000Y-84890000D02*
X68200000Y-85300000D01*
X67750000Y-84890000D02*
X67790000Y-84890000D01*
%TO.N,D32*%
X54000000Y-72160000D02*
X54000000Y-71700000D01*
X61200000Y-102875000D02*
X61200000Y-79360000D01*
X61200000Y-79360000D02*
X54000000Y-72160000D01*
%TO.N,D27*%
X71710000Y-91370000D02*
X71700000Y-91380000D01*
X71710000Y-91000000D02*
X71710000Y-91370000D01*
X71700000Y-91380000D02*
X71700000Y-102875000D01*
X54000000Y-82320000D02*
X59810000Y-88130000D01*
X59810000Y-88130000D02*
X60210000Y-88130000D01*
%TO.N,D14*%
X75200000Y-93890000D02*
X75200000Y-102875000D01*
X54000000Y-84860000D02*
X54030000Y-84860000D01*
X54030000Y-84860000D02*
X60210000Y-91040000D01*
X60210000Y-91040000D02*
X60210000Y-91100000D01*
X74300000Y-92990000D02*
X75200000Y-93890000D01*
%TO.N,D25*%
X56447500Y-91230000D02*
X56447500Y-91347500D01*
X57450000Y-92350000D02*
X57450000Y-99050000D01*
X55935000Y-77240000D02*
X55950000Y-77225000D01*
X54000000Y-77240000D02*
X55935000Y-77240000D01*
X56447500Y-91347500D02*
X57450000Y-92350000D01*
%TO.N,D13*%
X91769138Y-104555862D02*
X91769138Y-95394959D01*
X52275000Y-91665000D02*
X52275000Y-105550000D01*
X52275000Y-105550000D02*
X53200000Y-106475000D01*
X53200000Y-106475000D02*
X89850000Y-106475000D01*
X54000000Y-89940000D02*
X52275000Y-91665000D01*
X89850000Y-106475000D02*
X91769138Y-104555862D01*
%TO.N,VIN*%
X54200000Y-95220000D02*
X54000000Y-95020000D01*
D15*
X54200000Y-102875000D02*
X54200000Y-95220000D01*
D16*
%TO.N,D21*%
X100910000Y-55325000D02*
X100910000Y-60335000D01*
X100910000Y-60335000D02*
X101025000Y-60450000D01*
%TO.N,D23*%
X95830000Y-55325000D02*
X91695000Y-59460000D01*
X91695000Y-59460000D02*
X79400000Y-59460000D01*
%TO.N,D22*%
X89280041Y-95394959D02*
X99175000Y-85500000D01*
X89229138Y-95394959D02*
X89280041Y-95394959D01*
D15*
%TO.N,3V3*%
X104469138Y-97530862D02*
X103375000Y-98625000D01*
X104469138Y-75894138D02*
X104450000Y-75875000D01*
D16*
X105990000Y-67685000D02*
X105925000Y-67750000D01*
D15*
X104469138Y-95394959D02*
X104469138Y-75894138D01*
X104469138Y-95394959D02*
X104469138Y-97530862D01*
X105990000Y-55325000D02*
X105990000Y-67685000D01*
D16*
X105990000Y-55325000D02*
X105975000Y-55340000D01*
%TO.N,D18*%
X92425000Y-62050000D02*
X87265108Y-62050000D01*
X82700000Y-74225000D02*
X82225000Y-74700000D01*
X82700000Y-66615108D02*
X82700000Y-74225000D01*
X87265108Y-62050000D02*
X82700000Y-66615108D01*
X82225000Y-74700000D02*
X79400000Y-74700000D01*
%TO.N,D19*%
X81750000Y-69900000D02*
X81750000Y-66150000D01*
X81750000Y-66150000D02*
X86825000Y-61075000D01*
X79490000Y-72160000D02*
X81750000Y-69900000D01*
X79400000Y-72160000D02*
X79490000Y-72160000D01*
%TD*%
M02*
