%TF.GenerationSoftware,KiCad,Pcbnew,9.0.5*%
%TF.CreationDate,2025-12-28T17:34:09+02:00*%
%TF.ProjectId,base-schematic-02,62617365-2d73-4636-9865-6d617469632d,rev?*%
%TF.SameCoordinates,Original*%
%TF.FileFunction,Copper,L2,Bot*%
%TF.FilePolarity,Positive*%
%FSLAX46Y46*%
G04 Gerber Fmt 4.6, Leading zero omitted, Abs format (unit mm)*
G04 Created by KiCad (PCBNEW 9.0.5) date 2025-12-28 17:34:09*
%MOMM*%
%LPD*%
G01*
G04 APERTURE LIST*
G04 Aperture macros list*
%AMRoundRect*
0 Rectangle with rounded corners*
0 $1 Rounding radius*
0 $2 $3 $4 $5 $6 $7 $8 $9 X,Y pos of 4 corners*
0 Add a 4 corners polygon primitive as box body*
4,1,4,$2,$3,$4,$5,$6,$7,$8,$9,$2,$3,0*
0 Add four circle primitives for the rounded corners*
1,1,$1+$1,$2,$3*
1,1,$1+$1,$4,$5*
1,1,$1+$1,$6,$7*
1,1,$1+$1,$8,$9*
0 Add four rect primitives between the rounded corners*
20,1,$1+$1,$2,$3,$4,$5,0*
20,1,$1+$1,$4,$5,$6,$7,0*
20,1,$1+$1,$6,$7,$8,$9,0*
20,1,$1+$1,$8,$9,$2,$3,0*%
G04 Aperture macros list end*
%TA.AperFunction,ComponentPad*%
%ADD10R,1.700000X1.700000*%
%TD*%
%TA.AperFunction,ComponentPad*%
%ADD11C,1.700000*%
%TD*%
%TA.AperFunction,ComponentPad*%
%ADD12C,1.600000*%
%TD*%
%TA.AperFunction,ComponentPad*%
%ADD13RoundRect,0.250001X-0.949999X-0.949999X0.949999X-0.949999X0.949999X0.949999X-0.949999X0.949999X0*%
%TD*%
%TA.AperFunction,ComponentPad*%
%ADD14C,2.400000*%
%TD*%
%TA.AperFunction,ComponentPad*%
%ADD15RoundRect,0.250000X-0.950000X-0.550000X0.950000X-0.550000X0.950000X0.550000X-0.950000X0.550000X0*%
%TD*%
%TA.AperFunction,ComponentPad*%
%ADD16O,2.400000X1.600000*%
%TD*%
%TA.AperFunction,ViaPad*%
%ADD17C,0.600000*%
%TD*%
%TA.AperFunction,Conductor*%
%ADD18C,0.300000*%
%TD*%
%TA.AperFunction,Conductor*%
%ADD19C,0.500000*%
%TD*%
G04 APERTURE END LIST*
D10*
%TO.P,J2,1,Pin_1*%
%TO.N,D23*%
X79400000Y-59460000D03*
D11*
%TO.P,J2,2,Pin_2*%
%TO.N,D22*%
X79400000Y-62000000D03*
%TO.P,J2,3,Pin_3*%
%TO.N,unconnected-(J2-Pin_3-Pad3)*%
X79400000Y-64540000D03*
%TO.P,J2,4,Pin_4*%
%TO.N,unconnected-(J2-Pin_4-Pad4)*%
X79400000Y-67080000D03*
%TO.P,J2,5,Pin_5*%
%TO.N,D21*%
X79400000Y-69620000D03*
%TO.P,J2,6,Pin_6*%
%TO.N,D19*%
X79400000Y-72160000D03*
%TO.P,J2,7,Pin_7*%
%TO.N,D18*%
X79400000Y-74700000D03*
%TO.P,J2,8,Pin_8*%
%TO.N,unconnected-(J2-Pin_8-Pad8)*%
X79400000Y-77240000D03*
%TO.P,J2,9,Pin_9*%
%TO.N,unconnected-(J2-Pin_9-Pad9)*%
X79400000Y-79780000D03*
%TO.P,J2,10,Pin_10*%
%TO.N,unconnected-(J2-Pin_10-Pad10)*%
X79400000Y-82320000D03*
%TO.P,J2,11,Pin_11*%
%TO.N,unconnected-(J2-Pin_11-Pad11)*%
X79400000Y-84860000D03*
%TO.P,J2,12,Pin_12*%
%TO.N,unconnected-(J2-Pin_12-Pad12)*%
X79400000Y-87400000D03*
%TO.P,J2,13,Pin_13*%
%TO.N,unconnected-(J2-Pin_13-Pad13)*%
X79400000Y-89940000D03*
%TO.P,J2,14,Pin_14*%
%TO.N,GND*%
X79400000Y-92480000D03*
%TO.P,J2,15,Pin_15*%
%TO.N,3V3*%
X79400000Y-95020000D03*
%TD*%
D10*
%TO.P,J1,1,Pin_1*%
%TO.N,unconnected-(J1-Pin_1-Pad1)*%
X54000000Y-59460000D03*
D11*
%TO.P,J1,2,Pin_2*%
%TO.N,unconnected-(J1-Pin_2-Pad2)*%
X54000000Y-62000000D03*
%TO.P,J1,3,Pin_3*%
%TO.N,unconnected-(J1-Pin_3-Pad3)*%
X54000000Y-64540000D03*
%TO.P,J1,4,Pin_4*%
%TO.N,unconnected-(J1-Pin_4-Pad4)*%
X54000000Y-67080000D03*
%TO.P,J1,5,Pin_5*%
%TO.N,unconnected-(J1-Pin_5-Pad5)*%
X54000000Y-69620000D03*
%TO.P,J1,6,Pin_6*%
%TO.N,D32*%
X54000000Y-72160000D03*
%TO.P,J1,7,Pin_7*%
%TO.N,D33*%
X54000000Y-74700000D03*
%TO.P,J1,8,Pin_8*%
%TO.N,D25*%
X54000000Y-77240000D03*
%TO.P,J1,9,Pin_9*%
%TO.N,D26*%
X54000000Y-79780000D03*
%TO.P,J1,10,Pin_10*%
%TO.N,D27*%
X54000000Y-82320000D03*
%TO.P,J1,11,Pin_11*%
%TO.N,D14*%
X54000000Y-84860000D03*
%TO.P,J1,12,Pin_12*%
%TO.N,D12*%
X54000000Y-87400000D03*
%TO.P,J1,13,Pin_13*%
%TO.N,D13*%
X54000000Y-89940000D03*
%TO.P,J1,14,Pin_14*%
%TO.N,unconnected-(J1-Pin_14-Pad14)*%
X54000000Y-92480000D03*
%TO.P,J1,15,Pin_15*%
%TO.N,VIN*%
X54000000Y-95020000D03*
%TD*%
D12*
%TO.P,R2,1*%
%TO.N,Net-(U1-B1)*%
X63053000Y-89255000D03*
%TO.P,R2,2*%
%TO.N,Net-(J4-Pin_2)*%
X63053000Y-96875000D03*
%TD*%
%TO.P,R1,1*%
%TO.N,Net-(U1-B0)*%
X59810000Y-89255000D03*
%TO.P,R1,2*%
%TO.N,Net-(J4-Pin_1)*%
X59810000Y-96875000D03*
%TD*%
D10*
%TO.P,J3-DAC1,1,Pin_1*%
%TO.N,D19*%
X89570000Y-55335000D03*
D11*
%TO.P,J3-DAC1,2,Pin_2*%
%TO.N,D18*%
X92110000Y-55335000D03*
%TO.P,J3-DAC1,3,Pin_3*%
%TO.N,D23*%
X94650000Y-55335000D03*
%TO.P,J3-DAC1,4,Pin_4*%
%TO.N,D25*%
X97190000Y-55335000D03*
%TO.P,J3-DAC1,5,Pin_5*%
%TO.N,D21*%
X99730000Y-55335000D03*
%TO.P,J3-DAC1,6,Pin_6*%
%TO.N,GND*%
X102270000Y-55335000D03*
%TO.P,J3-DAC1,7,Pin_7*%
%TO.N,3V3*%
X104810000Y-55335000D03*
%TD*%
D12*
%TO.P,R4,1*%
%TO.N,Net-(U1-B3)*%
X69539000Y-89255000D03*
%TO.P,R4,2*%
%TO.N,Net-(J4-Pin_4)*%
X69539000Y-96875000D03*
%TD*%
%TO.P,C2,1*%
%TO.N,VIN*%
X96160000Y-107270000D03*
%TO.P,C2,2*%
%TO.N,GND*%
X101160000Y-107270000D03*
%TD*%
%TO.P,R6,1*%
%TO.N,Net-(U1-B4)*%
X76025000Y-89255000D03*
%TO.P,R6,2*%
%TO.N,Net-(J4-Pin_6)*%
X76025000Y-96875000D03*
%TD*%
%TO.P,C1,1*%
%TO.N,VIN*%
X74440000Y-61710000D03*
%TO.P,C1,2*%
%TO.N,GND*%
X74440000Y-64210000D03*
%TD*%
%TO.P,R5,1*%
%TO.N,Net-(U1-B5)*%
X72782000Y-89255000D03*
%TO.P,R5,2*%
%TO.N,Net-(J4-Pin_5)*%
X72782000Y-96875000D03*
%TD*%
%TO.P,R3,1*%
%TO.N,Net-(U1-B2)*%
X66296000Y-89255000D03*
%TO.P,R3,2*%
%TO.N,Net-(J4-Pin_3)*%
X66296000Y-96875000D03*
%TD*%
D13*
%TO.P,J4,1,Pin_1*%
%TO.N,Net-(J4-Pin_1)*%
X62000000Y-108000000D03*
D14*
%TO.P,J4,2,Pin_2*%
%TO.N,Net-(J4-Pin_2)*%
X65500000Y-108000000D03*
%TO.P,J4,3,Pin_3*%
%TO.N,Net-(J4-Pin_3)*%
X69000000Y-108000000D03*
%TO.P,J4,4,Pin_4*%
%TO.N,Net-(J4-Pin_4)*%
X72500000Y-108000000D03*
%TO.P,J4,5,Pin_5*%
%TO.N,Net-(J4-Pin_5)*%
X76000000Y-108000000D03*
%TO.P,J4,6,Pin_6*%
%TO.N,Net-(J4-Pin_6)*%
X79500000Y-108000000D03*
%TO.P,J4,7,Pin_7*%
%TO.N,VIN*%
X83000000Y-108000000D03*
%TO.P,J4,8,Pin_8*%
%TO.N,GND*%
X86500000Y-108000000D03*
%TD*%
D15*
%TO.P,U1,1,A->B*%
%TO.N,VIN*%
X61650000Y-61510000D03*
D16*
%TO.P,U1,2,A0*%
%TO.N,D32*%
X61650000Y-64050000D03*
%TO.P,U1,3,A1*%
%TO.N,D33*%
X61650000Y-66590000D03*
%TO.P,U1,4,A2*%
%TO.N,D26*%
X61650000Y-69130000D03*
%TO.P,U1,5,A3*%
%TO.N,D27*%
X61650000Y-71670000D03*
%TO.P,U1,6,A4*%
%TO.N,D14*%
X61650000Y-74210000D03*
%TO.P,U1,7,A5*%
%TO.N,D12*%
X61650000Y-76750000D03*
%TO.P,U1,8,A6*%
%TO.N,unconnected-(U1-A6-Pad8)*%
X61650000Y-79290000D03*
%TO.P,U1,9,A7*%
%TO.N,unconnected-(U1-A7-Pad9)*%
X61650000Y-81830000D03*
%TO.P,U1,10,GND*%
%TO.N,GND*%
X61650000Y-84370000D03*
%TO.P,U1,11,B7*%
%TO.N,unconnected-(U1-B7-Pad11)*%
X69270000Y-84370000D03*
%TO.P,U1,12,B6*%
%TO.N,unconnected-(U1-B6-Pad12)*%
X69270000Y-81830000D03*
%TO.P,U1,13,B5*%
%TO.N,Net-(U1-B5)*%
X69270000Y-79290000D03*
%TO.P,U1,14,B4*%
%TO.N,Net-(U1-B4)*%
X69270000Y-76750000D03*
%TO.P,U1,15,B3*%
%TO.N,Net-(U1-B3)*%
X69270000Y-74210000D03*
%TO.P,U1,16,B2*%
%TO.N,Net-(U1-B2)*%
X69270000Y-71670000D03*
%TO.P,U1,17,B1*%
%TO.N,Net-(U1-B1)*%
X69270000Y-69130000D03*
%TO.P,U1,18,B0*%
%TO.N,Net-(U1-B0)*%
X69270000Y-66590000D03*
%TO.P,U1,19,CE*%
%TO.N,GND*%
X69270000Y-64050000D03*
%TO.P,U1,20,VCC*%
%TO.N,VIN*%
X69270000Y-61510000D03*
%TD*%
D10*
%TO.P,J4-IMU1,1,Pin_1*%
%TO.N,GND*%
X107009138Y-95394959D03*
D11*
%TO.P,J4-IMU1,2,Pin_2*%
%TO.N,3V3*%
X104469138Y-95394959D03*
%TO.P,J4-IMU1,3,Pin_3*%
%TO.N,unconnected-(J4-IMU1-Pin_3-Pad3)*%
X101929138Y-95394959D03*
%TO.P,J4-IMU1,4,Pin_4*%
%TO.N,unconnected-(J4-IMU1-Pin_4-Pad4)*%
X99389138Y-95394959D03*
%TO.P,J4-IMU1,5,Pin_5*%
%TO.N,unconnected-(J4-IMU1-Pin_5-Pad5)*%
X96849138Y-95394959D03*
%TO.P,J4-IMU1,6,Pin_6*%
%TO.N,unconnected-(J4-IMU1-Pin_6-Pad6)*%
X94309138Y-95394959D03*
%TO.P,J4-IMU1,7,Pin_7*%
%TO.N,D13*%
X91769138Y-95394959D03*
%TO.P,J4-IMU1,8,Pin_8*%
%TO.N,D22*%
X89229138Y-95394959D03*
%TD*%
D17*
%TO.N,D13*%
X60452000Y-100076000D03*
%TO.N,D25*%
X57157500Y-78432500D03*
%TD*%
D18*
%TO.N,D13*%
X89916000Y-100076000D02*
X91769138Y-98222862D01*
X60452000Y-100076000D02*
X89916000Y-100076000D01*
X91769138Y-98222862D02*
X91769138Y-95394959D01*
%TO.N,D25*%
X57790000Y-79065000D02*
X57157500Y-78432500D01*
X57790000Y-98900000D02*
X57790000Y-79065000D01*
X59982000Y-101092000D02*
X57790000Y-98900000D01*
X106918000Y-101092000D02*
X59982000Y-101092000D01*
X109630000Y-98380000D02*
X106918000Y-101092000D01*
X107150000Y-56720000D02*
X109630000Y-59200000D01*
X107150000Y-54290000D02*
X107150000Y-56720000D01*
X105580000Y-52720000D02*
X107150000Y-54290000D01*
X109630000Y-59200000D02*
X109630000Y-98380000D01*
X97900000Y-52730000D02*
X105570000Y-52730000D01*
X105570000Y-52730000D02*
X105580000Y-52720000D01*
X97190000Y-53440000D02*
X97900000Y-52730000D01*
X97190000Y-55335000D02*
X97190000Y-53440000D01*
D19*
%TO.N,3V3*%
X104469138Y-89806960D02*
X104469138Y-95394959D01*
X104105089Y-89442911D02*
X104469138Y-89806960D01*
X105664000Y-87884000D02*
X105664000Y-56189000D01*
X104105089Y-89442911D02*
X105664000Y-87884000D01*
X105664000Y-56189000D02*
X104810000Y-55335000D01*
X98517089Y-89442911D02*
X104105089Y-89442911D01*
X98482179Y-89408000D02*
X98517089Y-89442911D01*
X88900000Y-89408000D02*
X98482179Y-89408000D01*
X83288000Y-95020000D02*
X88900000Y-89408000D01*
X79400000Y-95020000D02*
X83288000Y-95020000D01*
D18*
%TO.N,D18*%
X92110000Y-70740000D02*
X92110000Y-55335000D01*
X88150000Y-74700000D02*
X92110000Y-70740000D01*
%TO.N,D19*%
X79400000Y-72160000D02*
X79840000Y-71720000D01*
X79840000Y-71720000D02*
X88180000Y-71720000D01*
X88180000Y-71720000D02*
X89570000Y-70330000D01*
X89570000Y-70330000D02*
X89570000Y-55335000D01*
D19*
%TO.N,VIN*%
X91860000Y-111570000D02*
X96160000Y-107270000D01*
X59890000Y-111570000D02*
X91860000Y-111570000D01*
X54000000Y-105680000D02*
X59890000Y-111570000D01*
X54000000Y-99610000D02*
X54000000Y-105680000D01*
D18*
%TO.N,D18*%
X88150000Y-74700000D02*
X79400000Y-74700000D01*
%TO.N,D21*%
X79781630Y-69238370D02*
X79781630Y-69620000D01*
D19*
%TO.N,VIN*%
X56286500Y-97323500D02*
X54000000Y-99610000D01*
X56306500Y-97323500D02*
X56286500Y-97323500D01*
X58867840Y-61482160D02*
X56306500Y-64043500D01*
X56306500Y-64043500D02*
X56306500Y-97323500D01*
X61650000Y-61482160D02*
X58867840Y-61482160D01*
X54000000Y-99610000D02*
X54000000Y-95020000D01*
X96160000Y-107700000D02*
X96160000Y-107270000D01*
D18*
%TO.N,Net-(U1-B4)*%
X75975000Y-88921387D02*
X76025000Y-88921387D01*
%TD*%
M02*
