%TF.GenerationSoftware,KiCad,Pcbnew,9.0.5*%
%TF.CreationDate,2025-12-28T17:34:09+02:00*%
%TF.ProjectId,base-schematic-02,62617365-2d73-4636-9865-6d617469632d,rev?*%
%TF.SameCoordinates,Original*%
%TF.FileFunction,Legend,Top*%
%TF.FilePolarity,Positive*%
%FSLAX46Y46*%
G04 Gerber Fmt 4.6, Leading zero omitted, Abs format (unit mm)*
G04 Created by KiCad (PCBNEW 9.0.5) date 2025-12-28 17:34:09*
%MOMM*%
%LPD*%
G01*
G04 APERTURE LIST*
G04 Aperture macros list*
%AMRoundRect*
0 Rectangle with rounded corners*
0 $1 Rounding radius*
0 $2 $3 $4 $5 $6 $7 $8 $9 X,Y pos of 4 corners*
0 Add a 4 corners polygon primitive as box body*
4,1,4,$2,$3,$4,$5,$6,$7,$8,$9,$2,$3,0*
0 Add four circle primitives for the rounded corners*
1,1,$1+$1,$2,$3*
1,1,$1+$1,$4,$5*
1,1,$1+$1,$6,$7*
1,1,$1+$1,$8,$9*
0 Add four rect primitives between the rounded corners*
20,1,$1+$1,$2,$3,$4,$5,0*
20,1,$1+$1,$4,$5,$6,$7,0*
20,1,$1+$1,$6,$7,$8,$9,0*
20,1,$1+$1,$8,$9,$2,$3,0*%
G04 Aperture macros list end*
%ADD10C,0.200000*%
%ADD11C,0.150000*%
%ADD12C,0.120000*%
%ADD13R,1.700000X1.700000*%
%ADD14C,1.700000*%
%ADD15C,3.200000*%
%ADD16C,1.600000*%
%ADD17RoundRect,0.250001X-0.949999X-0.949999X0.949999X-0.949999X0.949999X0.949999X-0.949999X0.949999X0*%
%ADD18C,2.400000*%
%ADD19RoundRect,0.250000X-0.950000X-0.550000X0.950000X-0.550000X0.950000X0.550000X-0.950000X0.550000X0*%
%ADD20O,2.400000X1.600000*%
G04 APERTURE END LIST*
D10*
X87709138Y-82394959D02*
X108709138Y-82394959D01*
X108709138Y-97394959D01*
X87709138Y-97394959D01*
X87709138Y-82394959D01*
X52000000Y-53460000D02*
X81000000Y-53460000D01*
X81000000Y-106460000D01*
X52000000Y-106460000D01*
X52000000Y-53460000D01*
X87950000Y-53335000D02*
X106450000Y-53335000D01*
X106450000Y-71335000D01*
X87950000Y-71335000D01*
X87950000Y-53335000D01*
D11*
X64588095Y-55531009D02*
X64921428Y-55531009D01*
X65064285Y-56054819D02*
X64588095Y-56054819D01*
X64588095Y-56054819D02*
X64588095Y-55054819D01*
X64588095Y-55054819D02*
X65064285Y-55054819D01*
X65445238Y-56007200D02*
X65588095Y-56054819D01*
X65588095Y-56054819D02*
X65826190Y-56054819D01*
X65826190Y-56054819D02*
X65921428Y-56007200D01*
X65921428Y-56007200D02*
X65969047Y-55959580D01*
X65969047Y-55959580D02*
X66016666Y-55864342D01*
X66016666Y-55864342D02*
X66016666Y-55769104D01*
X66016666Y-55769104D02*
X65969047Y-55673866D01*
X65969047Y-55673866D02*
X65921428Y-55626247D01*
X65921428Y-55626247D02*
X65826190Y-55578628D01*
X65826190Y-55578628D02*
X65635714Y-55531009D01*
X65635714Y-55531009D02*
X65540476Y-55483390D01*
X65540476Y-55483390D02*
X65492857Y-55435771D01*
X65492857Y-55435771D02*
X65445238Y-55340533D01*
X65445238Y-55340533D02*
X65445238Y-55245295D01*
X65445238Y-55245295D02*
X65492857Y-55150057D01*
X65492857Y-55150057D02*
X65540476Y-55102438D01*
X65540476Y-55102438D02*
X65635714Y-55054819D01*
X65635714Y-55054819D02*
X65873809Y-55054819D01*
X65873809Y-55054819D02*
X66016666Y-55102438D01*
X66445238Y-56054819D02*
X66445238Y-55054819D01*
X66445238Y-55054819D02*
X66826190Y-55054819D01*
X66826190Y-55054819D02*
X66921428Y-55102438D01*
X66921428Y-55102438D02*
X66969047Y-55150057D01*
X66969047Y-55150057D02*
X67016666Y-55245295D01*
X67016666Y-55245295D02*
X67016666Y-55388152D01*
X67016666Y-55388152D02*
X66969047Y-55483390D01*
X66969047Y-55483390D02*
X66921428Y-55531009D01*
X66921428Y-55531009D02*
X66826190Y-55578628D01*
X66826190Y-55578628D02*
X66445238Y-55578628D01*
X67445238Y-55673866D02*
X68207143Y-55673866D01*
X68588095Y-55054819D02*
X69207142Y-55054819D01*
X69207142Y-55054819D02*
X68873809Y-55435771D01*
X68873809Y-55435771D02*
X69016666Y-55435771D01*
X69016666Y-55435771D02*
X69111904Y-55483390D01*
X69111904Y-55483390D02*
X69159523Y-55531009D01*
X69159523Y-55531009D02*
X69207142Y-55626247D01*
X69207142Y-55626247D02*
X69207142Y-55864342D01*
X69207142Y-55864342D02*
X69159523Y-55959580D01*
X69159523Y-55959580D02*
X69111904Y-56007200D01*
X69111904Y-56007200D02*
X69016666Y-56054819D01*
X69016666Y-56054819D02*
X68730952Y-56054819D01*
X68730952Y-56054819D02*
X68635714Y-56007200D01*
X68635714Y-56007200D02*
X68588095Y-55959580D01*
X69588095Y-55150057D02*
X69635714Y-55102438D01*
X69635714Y-55102438D02*
X69730952Y-55054819D01*
X69730952Y-55054819D02*
X69969047Y-55054819D01*
X69969047Y-55054819D02*
X70064285Y-55102438D01*
X70064285Y-55102438D02*
X70111904Y-55150057D01*
X70111904Y-55150057D02*
X70159523Y-55245295D01*
X70159523Y-55245295D02*
X70159523Y-55340533D01*
X70159523Y-55340533D02*
X70111904Y-55483390D01*
X70111904Y-55483390D02*
X69540476Y-56054819D01*
X69540476Y-56054819D02*
X70159523Y-56054819D01*
X95380952Y-77757200D02*
X95523809Y-77804819D01*
X95523809Y-77804819D02*
X95761904Y-77804819D01*
X95761904Y-77804819D02*
X95857142Y-77757200D01*
X95857142Y-77757200D02*
X95904761Y-77709580D01*
X95904761Y-77709580D02*
X95952380Y-77614342D01*
X95952380Y-77614342D02*
X95952380Y-77519104D01*
X95952380Y-77519104D02*
X95904761Y-77423866D01*
X95904761Y-77423866D02*
X95857142Y-77376247D01*
X95857142Y-77376247D02*
X95761904Y-77328628D01*
X95761904Y-77328628D02*
X95571428Y-77281009D01*
X95571428Y-77281009D02*
X95476190Y-77233390D01*
X95476190Y-77233390D02*
X95428571Y-77185771D01*
X95428571Y-77185771D02*
X95380952Y-77090533D01*
X95380952Y-77090533D02*
X95380952Y-76995295D01*
X95380952Y-76995295D02*
X95428571Y-76900057D01*
X95428571Y-76900057D02*
X95476190Y-76852438D01*
X95476190Y-76852438D02*
X95571428Y-76804819D01*
X95571428Y-76804819D02*
X95809523Y-76804819D01*
X95809523Y-76804819D02*
X95952380Y-76852438D01*
X96380952Y-77804819D02*
X96380952Y-76804819D01*
X96380952Y-76804819D02*
X96761904Y-76804819D01*
X96761904Y-76804819D02*
X96857142Y-76852438D01*
X96857142Y-76852438D02*
X96904761Y-76900057D01*
X96904761Y-76900057D02*
X96952380Y-76995295D01*
X96952380Y-76995295D02*
X96952380Y-77138152D01*
X96952380Y-77138152D02*
X96904761Y-77233390D01*
X96904761Y-77233390D02*
X96857142Y-77281009D01*
X96857142Y-77281009D02*
X96761904Y-77328628D01*
X96761904Y-77328628D02*
X96380952Y-77328628D01*
X97380952Y-77281009D02*
X97714285Y-77281009D01*
X97857142Y-77804819D02*
X97380952Y-77804819D01*
X97380952Y-77804819D02*
X97380952Y-76804819D01*
X97380952Y-76804819D02*
X97857142Y-76804819D01*
X98238095Y-77519104D02*
X98714285Y-77519104D01*
X98142857Y-77804819D02*
X98476190Y-76804819D01*
X98476190Y-76804819D02*
X98809523Y-77804819D01*
X99142857Y-77804819D02*
X99142857Y-76804819D01*
X99714285Y-77804819D02*
X99285714Y-77233390D01*
X99714285Y-76804819D02*
X99142857Y-77376247D01*
X100142857Y-77281009D02*
X100476190Y-77281009D01*
X100619047Y-77804819D02*
X100142857Y-77804819D01*
X100142857Y-77804819D02*
X100142857Y-76804819D01*
X100142857Y-76804819D02*
X100619047Y-76804819D01*
X101619047Y-77804819D02*
X101285714Y-77328628D01*
X101047619Y-77804819D02*
X101047619Y-76804819D01*
X101047619Y-76804819D02*
X101428571Y-76804819D01*
X101428571Y-76804819D02*
X101523809Y-76852438D01*
X101523809Y-76852438D02*
X101571428Y-76900057D01*
X101571428Y-76900057D02*
X101619047Y-76995295D01*
X101619047Y-76995295D02*
X101619047Y-77138152D01*
X101619047Y-77138152D02*
X101571428Y-77233390D01*
X101571428Y-77233390D02*
X101523809Y-77281009D01*
X101523809Y-77281009D02*
X101428571Y-77328628D01*
X101428571Y-77328628D02*
X101047619Y-77328628D01*
D10*
X84450000Y-58025000D02*
X109450000Y-58025000D01*
X109450000Y-93025000D01*
X84450000Y-93025000D01*
X84450000Y-58025000D01*
D11*
X79066666Y-56144819D02*
X79066666Y-56859104D01*
X79066666Y-56859104D02*
X79019047Y-57001961D01*
X79019047Y-57001961D02*
X78923809Y-57097200D01*
X78923809Y-57097200D02*
X78780952Y-57144819D01*
X78780952Y-57144819D02*
X78685714Y-57144819D01*
X79495238Y-56240057D02*
X79542857Y-56192438D01*
X79542857Y-56192438D02*
X79638095Y-56144819D01*
X79638095Y-56144819D02*
X79876190Y-56144819D01*
X79876190Y-56144819D02*
X79971428Y-56192438D01*
X79971428Y-56192438D02*
X80019047Y-56240057D01*
X80019047Y-56240057D02*
X80066666Y-56335295D01*
X80066666Y-56335295D02*
X80066666Y-56430533D01*
X80066666Y-56430533D02*
X80019047Y-56573390D01*
X80019047Y-56573390D02*
X79447619Y-57144819D01*
X79447619Y-57144819D02*
X80066666Y-57144819D01*
X53606666Y-56374819D02*
X53606666Y-57089104D01*
X53606666Y-57089104D02*
X53559047Y-57231961D01*
X53559047Y-57231961D02*
X53463809Y-57327200D01*
X53463809Y-57327200D02*
X53320952Y-57374819D01*
X53320952Y-57374819D02*
X53225714Y-57374819D01*
X54606666Y-57374819D02*
X54035238Y-57374819D01*
X54320952Y-57374819D02*
X54320952Y-56374819D01*
X54320952Y-56374819D02*
X54225714Y-56517676D01*
X54225714Y-56517676D02*
X54130476Y-56612914D01*
X54130476Y-56612914D02*
X54035238Y-56660533D01*
X63507819Y-93231666D02*
X63031628Y-93564999D01*
X63507819Y-93803094D02*
X62507819Y-93803094D01*
X62507819Y-93803094D02*
X62507819Y-93422142D01*
X62507819Y-93422142D02*
X62555438Y-93326904D01*
X62555438Y-93326904D02*
X62603057Y-93279285D01*
X62603057Y-93279285D02*
X62698295Y-93231666D01*
X62698295Y-93231666D02*
X62841152Y-93231666D01*
X62841152Y-93231666D02*
X62936390Y-93279285D01*
X62936390Y-93279285D02*
X62984009Y-93326904D01*
X62984009Y-93326904D02*
X63031628Y-93422142D01*
X63031628Y-93422142D02*
X63031628Y-93803094D01*
X62603057Y-92850713D02*
X62555438Y-92803094D01*
X62555438Y-92803094D02*
X62507819Y-92707856D01*
X62507819Y-92707856D02*
X62507819Y-92469761D01*
X62507819Y-92469761D02*
X62555438Y-92374523D01*
X62555438Y-92374523D02*
X62603057Y-92326904D01*
X62603057Y-92326904D02*
X62698295Y-92279285D01*
X62698295Y-92279285D02*
X62793533Y-92279285D01*
X62793533Y-92279285D02*
X62936390Y-92326904D01*
X62936390Y-92326904D02*
X63507819Y-92898332D01*
X63507819Y-92898332D02*
X63507819Y-92279285D01*
X60264819Y-93231666D02*
X59788628Y-93564999D01*
X60264819Y-93803094D02*
X59264819Y-93803094D01*
X59264819Y-93803094D02*
X59264819Y-93422142D01*
X59264819Y-93422142D02*
X59312438Y-93326904D01*
X59312438Y-93326904D02*
X59360057Y-93279285D01*
X59360057Y-93279285D02*
X59455295Y-93231666D01*
X59455295Y-93231666D02*
X59598152Y-93231666D01*
X59598152Y-93231666D02*
X59693390Y-93279285D01*
X59693390Y-93279285D02*
X59741009Y-93326904D01*
X59741009Y-93326904D02*
X59788628Y-93422142D01*
X59788628Y-93422142D02*
X59788628Y-93803094D01*
X60264819Y-92279285D02*
X60264819Y-92850713D01*
X60264819Y-92564999D02*
X59264819Y-92564999D01*
X59264819Y-92564999D02*
X59407676Y-92660237D01*
X59407676Y-92660237D02*
X59502914Y-92755475D01*
X59502914Y-92755475D02*
X59550533Y-92850713D01*
X93337857Y-69789819D02*
X93337857Y-70504104D01*
X93337857Y-70504104D02*
X93290238Y-70646961D01*
X93290238Y-70646961D02*
X93195000Y-70742200D01*
X93195000Y-70742200D02*
X93052143Y-70789819D01*
X93052143Y-70789819D02*
X92956905Y-70789819D01*
X93718810Y-69789819D02*
X94337857Y-69789819D01*
X94337857Y-69789819D02*
X94004524Y-70170771D01*
X94004524Y-70170771D02*
X94147381Y-70170771D01*
X94147381Y-70170771D02*
X94242619Y-70218390D01*
X94242619Y-70218390D02*
X94290238Y-70266009D01*
X94290238Y-70266009D02*
X94337857Y-70361247D01*
X94337857Y-70361247D02*
X94337857Y-70599342D01*
X94337857Y-70599342D02*
X94290238Y-70694580D01*
X94290238Y-70694580D02*
X94242619Y-70742200D01*
X94242619Y-70742200D02*
X94147381Y-70789819D01*
X94147381Y-70789819D02*
X93861667Y-70789819D01*
X93861667Y-70789819D02*
X93766429Y-70742200D01*
X93766429Y-70742200D02*
X93718810Y-70694580D01*
X94766429Y-70408866D02*
X95528334Y-70408866D01*
X96004524Y-70789819D02*
X96004524Y-69789819D01*
X96004524Y-69789819D02*
X96242619Y-69789819D01*
X96242619Y-69789819D02*
X96385476Y-69837438D01*
X96385476Y-69837438D02*
X96480714Y-69932676D01*
X96480714Y-69932676D02*
X96528333Y-70027914D01*
X96528333Y-70027914D02*
X96575952Y-70218390D01*
X96575952Y-70218390D02*
X96575952Y-70361247D01*
X96575952Y-70361247D02*
X96528333Y-70551723D01*
X96528333Y-70551723D02*
X96480714Y-70646961D01*
X96480714Y-70646961D02*
X96385476Y-70742200D01*
X96385476Y-70742200D02*
X96242619Y-70789819D01*
X96242619Y-70789819D02*
X96004524Y-70789819D01*
X96956905Y-70504104D02*
X97433095Y-70504104D01*
X96861667Y-70789819D02*
X97195000Y-69789819D01*
X97195000Y-69789819D02*
X97528333Y-70789819D01*
X98433095Y-70694580D02*
X98385476Y-70742200D01*
X98385476Y-70742200D02*
X98242619Y-70789819D01*
X98242619Y-70789819D02*
X98147381Y-70789819D01*
X98147381Y-70789819D02*
X98004524Y-70742200D01*
X98004524Y-70742200D02*
X97909286Y-70646961D01*
X97909286Y-70646961D02*
X97861667Y-70551723D01*
X97861667Y-70551723D02*
X97814048Y-70361247D01*
X97814048Y-70361247D02*
X97814048Y-70218390D01*
X97814048Y-70218390D02*
X97861667Y-70027914D01*
X97861667Y-70027914D02*
X97909286Y-69932676D01*
X97909286Y-69932676D02*
X98004524Y-69837438D01*
X98004524Y-69837438D02*
X98147381Y-69789819D01*
X98147381Y-69789819D02*
X98242619Y-69789819D01*
X98242619Y-69789819D02*
X98385476Y-69837438D01*
X98385476Y-69837438D02*
X98433095Y-69885057D01*
X99385476Y-70789819D02*
X98814048Y-70789819D01*
X99099762Y-70789819D02*
X99099762Y-69789819D01*
X99099762Y-69789819D02*
X99004524Y-69932676D01*
X99004524Y-69932676D02*
X98909286Y-70027914D01*
X98909286Y-70027914D02*
X98814048Y-70075533D01*
X69993819Y-93231666D02*
X69517628Y-93564999D01*
X69993819Y-93803094D02*
X68993819Y-93803094D01*
X68993819Y-93803094D02*
X68993819Y-93422142D01*
X68993819Y-93422142D02*
X69041438Y-93326904D01*
X69041438Y-93326904D02*
X69089057Y-93279285D01*
X69089057Y-93279285D02*
X69184295Y-93231666D01*
X69184295Y-93231666D02*
X69327152Y-93231666D01*
X69327152Y-93231666D02*
X69422390Y-93279285D01*
X69422390Y-93279285D02*
X69470009Y-93326904D01*
X69470009Y-93326904D02*
X69517628Y-93422142D01*
X69517628Y-93422142D02*
X69517628Y-93803094D01*
X69327152Y-92374523D02*
X69993819Y-92374523D01*
X68946200Y-92612618D02*
X69660485Y-92850713D01*
X69660485Y-92850713D02*
X69660485Y-92231666D01*
X98493333Y-107629580D02*
X98445714Y-107677200D01*
X98445714Y-107677200D02*
X98302857Y-107724819D01*
X98302857Y-107724819D02*
X98207619Y-107724819D01*
X98207619Y-107724819D02*
X98064762Y-107677200D01*
X98064762Y-107677200D02*
X97969524Y-107581961D01*
X97969524Y-107581961D02*
X97921905Y-107486723D01*
X97921905Y-107486723D02*
X97874286Y-107296247D01*
X97874286Y-107296247D02*
X97874286Y-107153390D01*
X97874286Y-107153390D02*
X97921905Y-106962914D01*
X97921905Y-106962914D02*
X97969524Y-106867676D01*
X97969524Y-106867676D02*
X98064762Y-106772438D01*
X98064762Y-106772438D02*
X98207619Y-106724819D01*
X98207619Y-106724819D02*
X98302857Y-106724819D01*
X98302857Y-106724819D02*
X98445714Y-106772438D01*
X98445714Y-106772438D02*
X98493333Y-106820057D01*
X98874286Y-106820057D02*
X98921905Y-106772438D01*
X98921905Y-106772438D02*
X99017143Y-106724819D01*
X99017143Y-106724819D02*
X99255238Y-106724819D01*
X99255238Y-106724819D02*
X99350476Y-106772438D01*
X99350476Y-106772438D02*
X99398095Y-106820057D01*
X99398095Y-106820057D02*
X99445714Y-106915295D01*
X99445714Y-106915295D02*
X99445714Y-107010533D01*
X99445714Y-107010533D02*
X99398095Y-107153390D01*
X99398095Y-107153390D02*
X98826667Y-107724819D01*
X98826667Y-107724819D02*
X99445714Y-107724819D01*
X76479819Y-93231666D02*
X76003628Y-93564999D01*
X76479819Y-93803094D02*
X75479819Y-93803094D01*
X75479819Y-93803094D02*
X75479819Y-93422142D01*
X75479819Y-93422142D02*
X75527438Y-93326904D01*
X75527438Y-93326904D02*
X75575057Y-93279285D01*
X75575057Y-93279285D02*
X75670295Y-93231666D01*
X75670295Y-93231666D02*
X75813152Y-93231666D01*
X75813152Y-93231666D02*
X75908390Y-93279285D01*
X75908390Y-93279285D02*
X75956009Y-93326904D01*
X75956009Y-93326904D02*
X76003628Y-93422142D01*
X76003628Y-93422142D02*
X76003628Y-93803094D01*
X75479819Y-92374523D02*
X75479819Y-92564999D01*
X75479819Y-92564999D02*
X75527438Y-92660237D01*
X75527438Y-92660237D02*
X75575057Y-92707856D01*
X75575057Y-92707856D02*
X75717914Y-92803094D01*
X75717914Y-92803094D02*
X75908390Y-92850713D01*
X75908390Y-92850713D02*
X76289342Y-92850713D01*
X76289342Y-92850713D02*
X76384580Y-92803094D01*
X76384580Y-92803094D02*
X76432200Y-92755475D01*
X76432200Y-92755475D02*
X76479819Y-92660237D01*
X76479819Y-92660237D02*
X76479819Y-92469761D01*
X76479819Y-92469761D02*
X76432200Y-92374523D01*
X76432200Y-92374523D02*
X76384580Y-92326904D01*
X76384580Y-92326904D02*
X76289342Y-92279285D01*
X76289342Y-92279285D02*
X76051247Y-92279285D01*
X76051247Y-92279285D02*
X75956009Y-92326904D01*
X75956009Y-92326904D02*
X75908390Y-92374523D01*
X75908390Y-92374523D02*
X75860771Y-92469761D01*
X75860771Y-92469761D02*
X75860771Y-92660237D01*
X75860771Y-92660237D02*
X75908390Y-92755475D01*
X75908390Y-92755475D02*
X75956009Y-92803094D01*
X75956009Y-92803094D02*
X76051247Y-92850713D01*
X74343333Y-59699580D02*
X74295714Y-59747200D01*
X74295714Y-59747200D02*
X74152857Y-59794819D01*
X74152857Y-59794819D02*
X74057619Y-59794819D01*
X74057619Y-59794819D02*
X73914762Y-59747200D01*
X73914762Y-59747200D02*
X73819524Y-59651961D01*
X73819524Y-59651961D02*
X73771905Y-59556723D01*
X73771905Y-59556723D02*
X73724286Y-59366247D01*
X73724286Y-59366247D02*
X73724286Y-59223390D01*
X73724286Y-59223390D02*
X73771905Y-59032914D01*
X73771905Y-59032914D02*
X73819524Y-58937676D01*
X73819524Y-58937676D02*
X73914762Y-58842438D01*
X73914762Y-58842438D02*
X74057619Y-58794819D01*
X74057619Y-58794819D02*
X74152857Y-58794819D01*
X74152857Y-58794819D02*
X74295714Y-58842438D01*
X74295714Y-58842438D02*
X74343333Y-58890057D01*
X75295714Y-59794819D02*
X74724286Y-59794819D01*
X75010000Y-59794819D02*
X75010000Y-58794819D01*
X75010000Y-58794819D02*
X74914762Y-58937676D01*
X74914762Y-58937676D02*
X74819524Y-59032914D01*
X74819524Y-59032914D02*
X74724286Y-59080533D01*
X73236819Y-93231666D02*
X72760628Y-93564999D01*
X73236819Y-93803094D02*
X72236819Y-93803094D01*
X72236819Y-93803094D02*
X72236819Y-93422142D01*
X72236819Y-93422142D02*
X72284438Y-93326904D01*
X72284438Y-93326904D02*
X72332057Y-93279285D01*
X72332057Y-93279285D02*
X72427295Y-93231666D01*
X72427295Y-93231666D02*
X72570152Y-93231666D01*
X72570152Y-93231666D02*
X72665390Y-93279285D01*
X72665390Y-93279285D02*
X72713009Y-93326904D01*
X72713009Y-93326904D02*
X72760628Y-93422142D01*
X72760628Y-93422142D02*
X72760628Y-93803094D01*
X72236819Y-92326904D02*
X72236819Y-92803094D01*
X72236819Y-92803094D02*
X72713009Y-92850713D01*
X72713009Y-92850713D02*
X72665390Y-92803094D01*
X72665390Y-92803094D02*
X72617771Y-92707856D01*
X72617771Y-92707856D02*
X72617771Y-92469761D01*
X72617771Y-92469761D02*
X72665390Y-92374523D01*
X72665390Y-92374523D02*
X72713009Y-92326904D01*
X72713009Y-92326904D02*
X72808247Y-92279285D01*
X72808247Y-92279285D02*
X73046342Y-92279285D01*
X73046342Y-92279285D02*
X73141580Y-92326904D01*
X73141580Y-92326904D02*
X73189200Y-92374523D01*
X73189200Y-92374523D02*
X73236819Y-92469761D01*
X73236819Y-92469761D02*
X73236819Y-92707856D01*
X73236819Y-92707856D02*
X73189200Y-92803094D01*
X73189200Y-92803094D02*
X73141580Y-92850713D01*
X66750819Y-93231666D02*
X66274628Y-93564999D01*
X66750819Y-93803094D02*
X65750819Y-93803094D01*
X65750819Y-93803094D02*
X65750819Y-93422142D01*
X65750819Y-93422142D02*
X65798438Y-93326904D01*
X65798438Y-93326904D02*
X65846057Y-93279285D01*
X65846057Y-93279285D02*
X65941295Y-93231666D01*
X65941295Y-93231666D02*
X66084152Y-93231666D01*
X66084152Y-93231666D02*
X66179390Y-93279285D01*
X66179390Y-93279285D02*
X66227009Y-93326904D01*
X66227009Y-93326904D02*
X66274628Y-93422142D01*
X66274628Y-93422142D02*
X66274628Y-93803094D01*
X65750819Y-92898332D02*
X65750819Y-92279285D01*
X65750819Y-92279285D02*
X66131771Y-92612618D01*
X66131771Y-92612618D02*
X66131771Y-92469761D01*
X66131771Y-92469761D02*
X66179390Y-92374523D01*
X66179390Y-92374523D02*
X66227009Y-92326904D01*
X66227009Y-92326904D02*
X66322247Y-92279285D01*
X66322247Y-92279285D02*
X66560342Y-92279285D01*
X66560342Y-92279285D02*
X66655580Y-92326904D01*
X66655580Y-92326904D02*
X66703200Y-92374523D01*
X66703200Y-92374523D02*
X66750819Y-92469761D01*
X66750819Y-92469761D02*
X66750819Y-92755475D01*
X66750819Y-92755475D02*
X66703200Y-92850713D01*
X66703200Y-92850713D02*
X66655580Y-92898332D01*
X95707233Y-82849778D02*
X95707233Y-83564063D01*
X95707233Y-83564063D02*
X95659614Y-83706920D01*
X95659614Y-83706920D02*
X95564376Y-83802159D01*
X95564376Y-83802159D02*
X95421519Y-83849778D01*
X95421519Y-83849778D02*
X95326281Y-83849778D01*
X96611995Y-83183111D02*
X96611995Y-83849778D01*
X96373900Y-82802159D02*
X96135805Y-83516444D01*
X96135805Y-83516444D02*
X96754852Y-83516444D01*
X97135805Y-83468825D02*
X97897710Y-83468825D01*
X98373900Y-83849778D02*
X98373900Y-82849778D01*
X98850090Y-83849778D02*
X98850090Y-82849778D01*
X98850090Y-82849778D02*
X99183423Y-83564063D01*
X99183423Y-83564063D02*
X99516756Y-82849778D01*
X99516756Y-82849778D02*
X99516756Y-83849778D01*
X99992947Y-82849778D02*
X99992947Y-83659301D01*
X99992947Y-83659301D02*
X100040566Y-83754539D01*
X100040566Y-83754539D02*
X100088185Y-83802159D01*
X100088185Y-83802159D02*
X100183423Y-83849778D01*
X100183423Y-83849778D02*
X100373899Y-83849778D01*
X100373899Y-83849778D02*
X100469137Y-83802159D01*
X100469137Y-83802159D02*
X100516756Y-83754539D01*
X100516756Y-83754539D02*
X100564375Y-83659301D01*
X100564375Y-83659301D02*
X100564375Y-82849778D01*
X101564375Y-83849778D02*
X100992947Y-83849778D01*
X101278661Y-83849778D02*
X101278661Y-82849778D01*
X101278661Y-82849778D02*
X101183423Y-82992635D01*
X101183423Y-82992635D02*
X101088185Y-83087873D01*
X101088185Y-83087873D02*
X100992947Y-83135492D01*
D12*
%TO.C,J2*%
X78070000Y-60730000D02*
X78070000Y-96350000D01*
X78070000Y-60730000D02*
X80730000Y-60730000D01*
X78070000Y-96350000D02*
X80730000Y-96350000D01*
X79400000Y-58130000D02*
X80730000Y-58130000D01*
X80730000Y-58130000D02*
X80730000Y-59460000D01*
X80730000Y-60730000D02*
X80730000Y-96350000D01*
%TO.C,J1*%
X52670000Y-60730000D02*
X52670000Y-96350000D01*
X52670000Y-60730000D02*
X55330000Y-60730000D01*
X52670000Y-96350000D02*
X55330000Y-96350000D01*
X54000000Y-58130000D02*
X55330000Y-58130000D01*
X55330000Y-58130000D02*
X55330000Y-59460000D01*
X55330000Y-60730000D02*
X55330000Y-96350000D01*
%TO.C,R2*%
X61683000Y-89795000D02*
X61683000Y-96335000D01*
X61683000Y-96335000D02*
X62013000Y-96335000D01*
X62013000Y-89795000D02*
X61683000Y-89795000D01*
X64093000Y-89795000D02*
X64423000Y-89795000D01*
X64423000Y-89795000D02*
X64423000Y-96335000D01*
X64423000Y-96335000D02*
X64093000Y-96335000D01*
%TO.C,R1*%
X58440000Y-89795000D02*
X58440000Y-96335000D01*
X58440000Y-96335000D02*
X58770000Y-96335000D01*
X58770000Y-89795000D02*
X58440000Y-89795000D01*
X60850000Y-89795000D02*
X61180000Y-89795000D01*
X61180000Y-89795000D02*
X61180000Y-96335000D01*
X61180000Y-96335000D02*
X60850000Y-96335000D01*
%TO.C,J3-DAC1*%
X88240000Y-54005000D02*
X89570000Y-54005000D01*
X88240000Y-55335000D02*
X88240000Y-54005000D01*
X90840000Y-54005000D02*
X106140000Y-54005000D01*
X90840000Y-56665000D02*
X90840000Y-54005000D01*
X90840000Y-56665000D02*
X106140000Y-56665000D01*
X106140000Y-56665000D02*
X106140000Y-54005000D01*
%TO.C,R4*%
X68169000Y-89795000D02*
X68169000Y-96335000D01*
X68169000Y-96335000D02*
X68499000Y-96335000D01*
X68499000Y-89795000D02*
X68169000Y-89795000D01*
X70579000Y-89795000D02*
X70909000Y-89795000D01*
X70909000Y-89795000D02*
X70909000Y-96335000D01*
X70909000Y-96335000D02*
X70579000Y-96335000D01*
%TO.C,C2*%
X103780000Y-107270000D02*
G75*
G02*
X93540000Y-107270000I-5120000J0D01*
G01*
X93540000Y-107270000D02*
G75*
G02*
X103780000Y-107270000I5120000J0D01*
G01*
%TO.C,R6*%
X74655000Y-89795000D02*
X74655000Y-96335000D01*
X74655000Y-96335000D02*
X74985000Y-96335000D01*
X74985000Y-89795000D02*
X74655000Y-89795000D01*
X77065000Y-89795000D02*
X77395000Y-89795000D01*
X77395000Y-89795000D02*
X77395000Y-96335000D01*
X77395000Y-96335000D02*
X77065000Y-96335000D01*
%TO.C,C1*%
X73070000Y-60340000D02*
X75810000Y-60340000D01*
X73070000Y-65580000D02*
X73070000Y-60340000D01*
X75810000Y-60340000D02*
X75810000Y-65580000D01*
X75810000Y-65580000D02*
X73070000Y-65580000D01*
%TO.C,R5*%
X71412000Y-89795000D02*
X71412000Y-96335000D01*
X71412000Y-96335000D02*
X71742000Y-96335000D01*
X71742000Y-89795000D02*
X71412000Y-89795000D01*
X73822000Y-89795000D02*
X74152000Y-89795000D01*
X74152000Y-89795000D02*
X74152000Y-96335000D01*
X74152000Y-96335000D02*
X73822000Y-96335000D01*
%TO.C,R3*%
X64926000Y-89795000D02*
X64926000Y-96335000D01*
X64926000Y-96335000D02*
X65256000Y-96335000D01*
X65256000Y-89795000D02*
X64926000Y-89795000D01*
X67336000Y-89795000D02*
X67666000Y-89795000D01*
X67666000Y-89795000D02*
X67666000Y-96335000D01*
X67666000Y-96335000D02*
X67336000Y-96335000D01*
%TO.C,J4*%
X60130000Y-104780000D02*
X88370000Y-104780000D01*
X60130000Y-111000000D02*
X88370000Y-111000000D01*
X60130000Y-112100000D02*
X88370000Y-112100000D01*
X60130000Y-112620000D02*
X60130000Y-104780000D01*
X61700000Y-112620000D02*
X60130000Y-112620000D01*
X88370000Y-104780000D02*
X88370000Y-112620000D01*
X88370000Y-112620000D02*
X62300000Y-112620000D01*
X62440000Y-113230000D02*
X61560000Y-113230000D01*
X62000000Y-112620000D01*
X62440000Y-113230000D01*
G36*
X62440000Y-113230000D02*
G01*
X61560000Y-113230000D01*
X62000000Y-112620000D01*
X62440000Y-113230000D01*
G37*
%TO.C,U1*%
X63210000Y-60180000D02*
X63210000Y-85700000D01*
X63210000Y-85700000D02*
X67710000Y-85700000D01*
X64460000Y-60180000D02*
X63210000Y-60180000D01*
X67710000Y-60180000D02*
X66460000Y-60180000D01*
X67710000Y-85700000D02*
X67710000Y-60180000D01*
X66460000Y-60180000D02*
G75*
G02*
X64460000Y-60180000I-1000000J0D01*
G01*
%TO.C,J4-IMU1*%
X87899138Y-94064959D02*
X87899138Y-96724959D01*
X105739138Y-94064959D02*
X87899138Y-94064959D01*
X105739138Y-94064959D02*
X105739138Y-96724959D01*
X105739138Y-96724959D02*
X87899138Y-96724959D01*
X108339138Y-95394959D02*
X108339138Y-96724959D01*
X108339138Y-96724959D02*
X107009138Y-96724959D01*
%TD*%
%LPC*%
D13*
%TO.C,J2*%
X79400000Y-59460000D03*
D14*
X79400000Y-62000000D03*
X79400000Y-64540000D03*
X79400000Y-67080000D03*
X79400000Y-69620000D03*
X79400000Y-72160000D03*
X79400000Y-74700000D03*
X79400000Y-77240000D03*
X79400000Y-79780000D03*
X79400000Y-82320000D03*
X79400000Y-84860000D03*
X79400000Y-87400000D03*
X79400000Y-89940000D03*
X79400000Y-92480000D03*
X79400000Y-95020000D03*
%TD*%
D13*
%TO.C,J1*%
X54000000Y-59460000D03*
D14*
X54000000Y-62000000D03*
X54000000Y-64540000D03*
X54000000Y-67080000D03*
X54000000Y-69620000D03*
X54000000Y-72160000D03*
X54000000Y-74700000D03*
X54000000Y-77240000D03*
X54000000Y-79780000D03*
X54000000Y-82320000D03*
X54000000Y-84860000D03*
X54000000Y-87400000D03*
X54000000Y-89940000D03*
X54000000Y-92480000D03*
X54000000Y-95020000D03*
%TD*%
D15*
%TO.C,H1*%
X53600000Y-53600000D03*
%TD*%
D16*
%TO.C,R2*%
X63053000Y-89255000D03*
X63053000Y-96875000D03*
%TD*%
%TO.C,R1*%
X59810000Y-89255000D03*
X59810000Y-96875000D03*
%TD*%
D13*
%TO.C,J3-DAC1*%
X89570000Y-55335000D03*
D14*
X92110000Y-55335000D03*
X94650000Y-55335000D03*
X97190000Y-55335000D03*
X99730000Y-55335000D03*
X102270000Y-55335000D03*
X104810000Y-55335000D03*
%TD*%
D15*
%TO.C,H4*%
X53600000Y-111400000D03*
%TD*%
D16*
%TO.C,R4*%
X69539000Y-89255000D03*
X69539000Y-96875000D03*
%TD*%
%TO.C,C2*%
X96160000Y-107270000D03*
X101160000Y-107270000D03*
%TD*%
%TO.C,R6*%
X76025000Y-89255000D03*
X76025000Y-96875000D03*
%TD*%
%TO.C,C1*%
X74440000Y-61710000D03*
X74440000Y-64210000D03*
%TD*%
%TO.C,R5*%
X72782000Y-89255000D03*
X72782000Y-96875000D03*
%TD*%
%TO.C,R3*%
X66296000Y-89255000D03*
X66296000Y-96875000D03*
%TD*%
D17*
%TO.C,J4*%
X62000000Y-108000000D03*
D18*
X65500000Y-108000000D03*
X69000000Y-108000000D03*
X72500000Y-108000000D03*
X76000000Y-108000000D03*
X79500000Y-108000000D03*
X83000000Y-108000000D03*
X86500000Y-108000000D03*
%TD*%
D19*
%TO.C,U1*%
X61650000Y-61510000D03*
D20*
X61650000Y-64050000D03*
X61650000Y-66590000D03*
X61650000Y-69130000D03*
X61650000Y-71670000D03*
X61650000Y-74210000D03*
X61650000Y-76750000D03*
X61650000Y-79290000D03*
X61650000Y-81830000D03*
X61650000Y-84370000D03*
X69270000Y-84370000D03*
X69270000Y-81830000D03*
X69270000Y-79290000D03*
X69270000Y-76750000D03*
X69270000Y-74210000D03*
X69270000Y-71670000D03*
X69270000Y-69130000D03*
X69270000Y-66590000D03*
X69270000Y-64050000D03*
X69270000Y-61510000D03*
%TD*%
D15*
%TO.C,H3*%
X111450000Y-111430000D03*
%TD*%
%TO.C,H2*%
X111400000Y-53600000D03*
%TD*%
D13*
%TO.C,J4-IMU1*%
X107009138Y-95394959D03*
D14*
X104469138Y-95394959D03*
X101929138Y-95394959D03*
X99389138Y-95394959D03*
X96849138Y-95394959D03*
X94309138Y-95394959D03*
X91769138Y-95394959D03*
X89229138Y-95394959D03*
%TD*%
%LPD*%
M02*
